<?xml version="1.0" encoding="UTF-8" standalone="no"?>
<!DOCTYPE svg PUBLIC "-//W3C//DTD SVG 1.1//EN"
 "http://www.w3.org/Graphics/SVG/1.1/DTD/svg11.dtd">
<!-- Generated by graphviz version 9.0.0 (20230911.1827)
 -->
<!-- Title: mux2to1 Pages: 1 -->
<svg width="308pt" height="177pt"
 viewBox="0.00 0.00 307.60 176.50" xmlns="http://www.w3.org/2000/svg" xmlns:xlink="http://www.w3.org/1999/xlink">
<g id="page0,1_graph0" class="graph" transform="scale(1 1) rotate(0) translate(4 172.5)">
<title>mux2to1</title>
<polygon fill="white" stroke="none" points="-4,4 -4,-172.5 303.6,-172.5 303.6,4 -4,4"/>
<text text-anchor="middle" x="149.8" y="-7.2" font-family="Times,serif" font-size="14.00">mux2to1</text>
<!-- n1 -->
<g id="node1" class="node">
<title>n1</title>
<polygon fill="none" stroke="black" points="74.6,-143.04 74.6,-157.96 52.75,-168.5 21.85,-168.5 0,-157.96 0,-143.04 21.85,-132.5 52.75,-132.5 74.6,-143.04"/>
<text text-anchor="middle" x="37.3" y="-145.45" font-family="Times,serif" font-size="14.00">input0</text>
</g>
<!-- c9 -->
<g id="node5" class="node">
<title>c9</title>
<polygon fill="none" stroke="black" points="110.6,-59.75 110.6,-133.25 209.6,-133.25 209.6,-59.75 110.6,-59.75"/>
<text text-anchor="middle" x="123.48" y="-115.95" font-family="Times,serif" font-size="14.00">A</text>
<polyline fill="none" stroke="black" points="110.6,-108.75 136.35,-108.75"/>
<text text-anchor="middle" x="123.48" y="-91.45" font-family="Times,serif" font-size="14.00">B</text>
<polyline fill="none" stroke="black" points="110.6,-84.25 136.35,-84.25"/>
<text text-anchor="middle" x="123.48" y="-66.95" font-family="Times,serif" font-size="14.00">S</text>
<polyline fill="none" stroke="black" points="136.35,-59.75 136.35,-133.25"/>
<text text-anchor="middle" x="160.1" y="-99.7" font-family="Times,serif" font-size="14.00">$7</text>
<text text-anchor="middle" x="160.1" y="-83.2" font-family="Times,serif" font-size="14.00">$mux</text>
<polyline fill="none" stroke="black" points="183.85,-59.75 183.85,-133.25"/>
<text text-anchor="middle" x="196.73" y="-91.45" font-family="Times,serif" font-size="14.00">Y</text>
</g>
<!-- n1&#45;&gt;c9 -->
<g id="edge1" class="edge">
<title>n1:e&#45;&gt;c9:w</title>
<path fill="none" stroke="black" stroke-width="3" d="M74.6,-150.5C90.49,-150.5 91.05,-133.15 99.99,-125.29"/>
<polygon fill="black" stroke="black" stroke-width="3" points="98.09,-129.69 106.33,-123.03 95.73,-123.1 98.09,-129.69"/>
</g>
<!-- n2 -->
<g id="node2" class="node">
<title>n2</title>
<polygon fill="none" stroke="black" points="74.6,-89.04 74.6,-103.96 52.75,-114.5 21.85,-114.5 0,-103.96 0,-89.04 21.85,-78.5 52.75,-78.5 74.6,-89.04"/>
<text text-anchor="middle" x="37.3" y="-91.45" font-family="Times,serif" font-size="14.00">input1</text>
</g>
<!-- n2&#45;&gt;c9 -->
<g id="edge2" class="edge">
<title>n2:e&#45;&gt;c9:w</title>
<path fill="none" stroke="black" stroke-width="3" d="M74.6,-96.5C85.98,-96.5 91.29,-96.5 99.16,-96.5"/>
<polygon fill="black" stroke="black" stroke-width="3" points="96.06,-100 106.06,-96.5 96.06,-93 96.06,-100"/>
</g>
<!-- n3 -->
<g id="node3" class="node">
<title>n3</title>
<polygon fill="none" stroke="black" points="299.6,-89.04 299.6,-103.96 283.79,-114.5 261.42,-114.5 245.6,-103.96 245.6,-89.04 261.42,-78.5 283.79,-78.5 299.6,-89.04"/>
<text text-anchor="middle" x="272.6" y="-91.45" font-family="Times,serif" font-size="14.00">out</text>
</g>
<!-- n4 -->
<g id="node4" class="node">
<title>n4</title>
<polygon fill="none" stroke="black" points="71.83,-35.04 71.83,-49.96 51.6,-60.5 23,-60.5 2.77,-49.96 2.77,-35.04 23,-24.5 51.6,-24.5 71.83,-35.04"/>
<text text-anchor="middle" x="37.3" y="-37.45" font-family="Times,serif" font-size="14.00">select</text>
</g>
<!-- n4&#45;&gt;c9 -->
<g id="edge4" class="edge">
<title>n4:e&#45;&gt;c9:w</title>
<path fill="none" stroke="black" d="M73.3,-42.5C89.71,-42.5 90.43,-60.2 99.97,-67.94"/>
<polygon fill="black" stroke="black" points="98.57,-71.17 109.17,-71.02 100.79,-64.53 98.57,-71.17"/>
</g>
<!-- c9&#45;&gt;n3 -->
<g id="edge3" class="edge">
<title>c9:e&#45;&gt;n3:w</title>
<path fill="none" stroke="black" stroke-width="3" d="M209.6,-96.5C220.98,-96.5 226.29,-96.5 234.16,-96.5"/>
<polygon fill="black" stroke="black" stroke-width="3" points="231.06,-100 241.06,-96.5 231.06,-93 231.06,-100"/>
</g>
</g>
</svg>
