<?xml version="1.0" encoding="UTF-8" standalone="no"?>
<!DOCTYPE svg PUBLIC "-//W3C//DTD SVG 1.1//EN"
 "http://www.w3.org/Graphics/SVG/1.1/DTD/svg11.dtd">
<!-- Generated by graphviz version 9.0.0 (20230911.1827)
 -->
<!-- Title: program_counter Pages: 1 -->
<svg width="362pt" height="123pt"
 viewBox="0.00 0.00 362.01 122.50" xmlns="http://www.w3.org/2000/svg" xmlns:xlink="http://www.w3.org/1999/xlink">
<g id="page0,1_graph0" class="graph" transform="scale(1 1) rotate(0) translate(4 118.5)">
<title>program_counter</title>
<polygon fill="white" stroke="none" points="-4,4 -4,-118.5 358.01,-118.5 358.01,4 -4,4"/>
<text text-anchor="middle" x="177" y="-7.2" font-family="Times,serif" font-size="14.00">program_counter</text>
<!-- n1 -->
<g id="node1" class="node">
<title>n1</title>
<polygon fill="none" stroke="black" points="67.07,-89.04 67.07,-103.96 51.25,-114.5 28.89,-114.5 13.07,-103.96 13.07,-89.04 28.89,-78.5 51.25,-78.5 67.07,-89.04"/>
<text text-anchor="middle" x="40.07" y="-91.45" font-family="Times,serif" font-size="14.00">clk</text>
</g>
<!-- c7 -->
<g id="node4" class="node">
<title>c7</title>
<polygon fill="none" stroke="black" points="116.14,-45 116.14,-94 227.89,-94 227.89,-45 116.14,-45"/>
<text text-anchor="middle" x="137.64" y="-76.7" font-family="Times,serif" font-size="14.00">CLK</text>
<polyline fill="none" stroke="black" points="116.14,-69.5 159.14,-69.5"/>
<text text-anchor="middle" x="137.64" y="-52.2" font-family="Times,serif" font-size="14.00">D</text>
<polyline fill="none" stroke="black" points="159.14,-45 159.14,-94"/>
<text text-anchor="middle" x="180.64" y="-72.7" font-family="Times,serif" font-size="14.00">$545</text>
<text text-anchor="middle" x="180.64" y="-56.2" font-family="Times,serif" font-size="14.00">$dff</text>
<polyline fill="none" stroke="black" points="202.14,-45 202.14,-94"/>
<text text-anchor="middle" x="215.02" y="-64.7" font-family="Times,serif" font-size="14.00">Q</text>
</g>
<!-- n1&#45;&gt;c7 -->
<g id="edge1" class="edge">
<title>n1:e&#45;&gt;c7:w</title>
<path fill="none" stroke="black" d="M68.07,-96.5C86.08,-96.5 91.74,-86.79 104.93,-82.99"/>
<polygon fill="black" stroke="black" points="105.19,-86.49 114.64,-81.7 104.27,-79.55 105.19,-86.49"/>
</g>
<!-- n2 -->
<g id="node2" class="node">
<title>n2</title>
<polygon fill="none" stroke="black" points="80.14,-35.04 80.14,-49.96 56.67,-60.5 23.47,-60.5 0,-49.96 0,-35.04 23.47,-24.5 56.67,-24.5 80.14,-35.04"/>
<text text-anchor="middle" x="40.07" y="-37.45" font-family="Times,serif" font-size="14.00">inAddr</text>
</g>
<!-- n2&#45;&gt;c7 -->
<g id="edge2" class="edge">
<title>n2:e&#45;&gt;c7:w</title>
<path fill="none" stroke="black" stroke-width="3" d="M80.14,-42.5C92.87,-42.5 96.97,-50.59 105.12,-54.89"/>
<polygon fill="black" stroke="black" stroke-width="3" points="101.19,-57.55 111.72,-56.45 102.8,-50.74 101.19,-57.55"/>
</g>
<!-- n3 -->
<g id="node3" class="node">
<title>n3</title>
<polygon fill="none" stroke="black" points="354.01,-62.04 354.01,-76.96 327.61,-87.5 290.29,-87.5 263.89,-76.96 263.89,-62.04 290.29,-51.5 327.61,-51.5 354.01,-62.04"/>
<text text-anchor="middle" x="308.95" y="-64.45" font-family="Times,serif" font-size="14.00">outAddr</text>
</g>
<!-- c7&#45;&gt;n3 -->
<g id="edge3" class="edge">
<title>c7:e&#45;&gt;n3:w</title>
<path fill="none" stroke="black" stroke-width="3" d="M227.89,-69.5C239.27,-69.5 244.58,-69.5 252.45,-69.5"/>
<polygon fill="black" stroke="black" stroke-width="3" points="249.35,-73 259.35,-69.5 249.35,-66 249.35,-73"/>
</g>
</g>
</svg>
