<?xml version="1.0" encoding="UTF-8" standalone="no"?>
<!DOCTYPE svg PUBLIC "-//W3C//DTD SVG 1.1//EN"
 "http://www.w3.org/Graphics/SVG/1.1/DTD/svg11.dtd">
<!-- Generated by graphviz version 9.0.0 (20230911.1827)
 -->
<!-- Title: sign_mask_gen Pages: 1 -->
<svg width="1011pt" height="346pt"
 viewBox="0.00 0.00 1011.49 346.00" xmlns="http://www.w3.org/2000/svg" xmlns:xlink="http://www.w3.org/1999/xlink">
<g id="page0,1_graph0" class="graph" transform="scale(1 1) rotate(0) translate(4 342)">
<title>sign_mask_gen</title>
<polygon fill="white" stroke="none" points="-4,4 -4,-342 1007.49,-342 1007.49,4 -4,4"/>
<text text-anchor="middle" x="501.75" y="-7.2" font-family="Times,serif" font-size="14.00">sign_mask_gen</text>
<!-- n4 -->
<g id="node1" class="node">
<title>n4</title>
<polygon fill="none" stroke="black" points="69.06,-200.54 69.06,-215.46 48.83,-226 20.23,-226 0,-215.46 0,-200.54 20.23,-190 48.83,-190 69.06,-200.54"/>
<text text-anchor="middle" x="34.53" y="-202.95" font-family="Times,serif" font-size="14.00">func3</text>
</g>
<!-- x0 -->
<g id="node5" class="node">
<title>x0</title>
<path fill="none" stroke="black" d="M117.06,-25C117.06,-25 155.56,-25 155.56,-25 161.56,-25 167.56,-31 167.56,-37 167.56,-37 167.56,-49 167.56,-49 167.56,-55 161.56,-61 155.56,-61 155.56,-61 117.06,-61 117.06,-61 111.06,-61 105.06,-55 105.06,-49 105.06,-49 105.06,-37 105.06,-37 105.06,-31 111.06,-25 117.06,-25"/>
<text text-anchor="middle" x="136.31" y="-38.2" font-family="Times,serif" font-size="14.00">2:2 &#45; 0:0</text>
</g>
<!-- n4&#45;&gt;x0 -->
<g id="edge10" class="edge">
<title>n4:e&#45;&gt;x0:w</title>
<path fill="none" stroke="black" stroke-width="3" d="M69.06,-208C139.72,-208 42.73,-61.77 93.74,-44.63"/>
<polygon fill="black" stroke="black" stroke-width="3" points="91.17,-48.54 100.57,-43.65 90.17,-41.61 91.17,-48.54"/>
</g>
<!-- x5 -->
<g id="node13" class="node">
<title>x5</title>
<path fill="none" stroke="black" d="M117.06,-135C117.06,-135 155.56,-135 155.56,-135 161.56,-135 167.56,-141 167.56,-147 167.56,-147 167.56,-159 167.56,-159 167.56,-165 161.56,-171 155.56,-171 155.56,-171 117.06,-171 117.06,-171 111.06,-171 105.06,-165 105.06,-159 105.06,-159 105.06,-147 105.06,-147 105.06,-141 111.06,-135 117.06,-135"/>
<text text-anchor="middle" x="136.31" y="-148.2" font-family="Times,serif" font-size="14.00">1:0 &#45; 1:0</text>
</g>
<!-- n4&#45;&gt;x5 -->
<g id="edge11" class="edge">
<title>n4:e&#45;&gt;x5:w</title>
<path fill="none" stroke="black" stroke-width="3" d="M69.06,-208C93.48,-208 81.82,-169.57 94.4,-156.96"/>
<polygon fill="black" stroke="black" stroke-width="3" points="92.65,-161.34 100.81,-154.58 90.21,-154.77 92.65,-161.34"/>
</g>
<!-- x7 -->
<g id="node16" class="node">
<title>x7</title>
<path fill="none" stroke="black" d="M117.06,-245C117.06,-245 155.56,-245 155.56,-245 161.56,-245 167.56,-251 167.56,-257 167.56,-257 167.56,-269 167.56,-269 167.56,-275 161.56,-281 155.56,-281 155.56,-281 117.06,-281 117.06,-281 111.06,-281 105.06,-275 105.06,-269 105.06,-269 105.06,-257 105.06,-257 105.06,-251 111.06,-245 117.06,-245"/>
<text text-anchor="middle" x="136.31" y="-258.2" font-family="Times,serif" font-size="14.00">1:0 &#45; 1:0</text>
</g>
<!-- n4&#45;&gt;x7 -->
<g id="edge12" class="edge">
<title>n4:e&#45;&gt;x7:w</title>
<path fill="none" stroke="black" stroke-width="3" d="M69.06,-208C93.48,-208 81.82,-246.43 94.4,-259.04"/>
<polygon fill="black" stroke="black" stroke-width="3" points="90.21,-261.23 100.81,-261.42 92.65,-254.66 90.21,-261.23"/>
</g>
<!-- x9 -->
<g id="node18" class="node">
<title>x9</title>
<path fill="none" stroke="black" d="M117.06,-300C117.06,-300 155.56,-300 155.56,-300 161.56,-300 167.56,-306 167.56,-312 167.56,-312 167.56,-324 167.56,-324 167.56,-330 161.56,-336 155.56,-336 155.56,-336 117.06,-336 117.06,-336 111.06,-336 105.06,-330 105.06,-324 105.06,-324 105.06,-312 105.06,-312 105.06,-306 111.06,-300 117.06,-300"/>
<text text-anchor="middle" x="136.31" y="-313.2" font-family="Times,serif" font-size="14.00">1:0 &#45; 1:0</text>
</g>
<!-- n4&#45;&gt;x9 -->
<g id="edge13" class="edge">
<title>n4:e&#45;&gt;x9:w</title>
<path fill="none" stroke="black" stroke-width="3" d="M69.06,-208C115.88,-208 64.68,-299.12 93.89,-315.5"/>
<polygon fill="black" stroke="black" stroke-width="3" points="90.11,-318.23 100.63,-317.01 91.64,-311.4 90.11,-318.23"/>
</g>
<!-- n5 -->
<g id="node2" class="node">
<title>n5</title>
<polygon fill="none" stroke="black" points="715.27,-252 671.6,-234 715.27,-216 758.94,-234 715.27,-252"/>
<text text-anchor="middle" x="715.27" y="-228.95" font-family="Times,serif" font-size="14.00">mask</text>
</g>
<!-- x10 -->
<g id="node19" class="node">
<title>x10</title>
<path fill="none" stroke="black" d="M806.94,-208C806.94,-208 845.44,-208 845.44,-208 851.44,-208 857.44,-214 857.44,-220 857.44,-220 857.44,-232 857.44,-232 857.44,-238 851.44,-244 845.44,-244 845.44,-244 806.94,-244 806.94,-244 800.94,-244 794.94,-238 794.94,-232 794.94,-232 794.94,-220 794.94,-220 794.94,-214 800.94,-208 806.94,-208"/>
<text text-anchor="middle" x="826.19" y="-221.2" font-family="Times,serif" font-size="14.00">2:0 &#45; 2:0</text>
</g>
<!-- n5&#45;&gt;x10 -->
<g id="edge15" class="edge">
<title>n5:e&#45;&gt;x10:w</title>
<path fill="none" stroke="black" stroke-width="3" d="M758.94,-234C770.72,-234 775.69,-229.87 783.65,-227.54"/>
<polygon fill="black" stroke="black" stroke-width="3" points="781,-231.44 790.44,-226.61 780.05,-224.5 781,-231.44"/>
</g>
<!-- n6 -->
<g id="node3" class="node">
<title>n6</title>
<polygon fill="none" stroke="black" points="1003.49,-178.54 1003.49,-193.46 971.26,-204 925.67,-204 893.44,-193.46 893.44,-178.54 925.67,-168 971.26,-168 1003.49,-178.54"/>
<text text-anchor="middle" x="948.46" y="-180.95" font-family="Times,serif" font-size="14.00">sign_mask</text>
</g>
<!-- c9 -->
<g id="node4" class="node">
<title>c9</title>
<polygon fill="none" stroke="black" points="224.94,-39.5 224.94,-80.5 319.44,-80.5 319.44,-39.5 224.94,-39.5"/>
<text text-anchor="middle" x="237.81" y="-55.2" font-family="Times,serif" font-size="14.00">A</text>
<polyline fill="none" stroke="black" points="250.69,-39.5 250.69,-80.5"/>
<text text-anchor="middle" x="272.19" y="-63.2" font-family="Times,serif" font-size="14.00">$280</text>
<text text-anchor="middle" x="272.19" y="-46.7" font-family="Times,serif" font-size="14.00">$not</text>
<polyline fill="none" stroke="black" points="293.69,-39.5 293.69,-80.5"/>
<text text-anchor="middle" x="306.56" y="-55.2" font-family="Times,serif" font-size="14.00">Y</text>
</g>
<!-- x1 -->
<g id="node6" class="node">
<title>x1</title>
<path fill="none" stroke="black" d="M563.47,-132C563.47,-132 601.97,-132 601.97,-132 607.97,-132 613.97,-138 613.97,-144 613.97,-144 613.97,-156 613.97,-156 613.97,-162 607.97,-168 601.97,-168 601.97,-168 563.47,-168 563.47,-168 557.47,-168 551.47,-162 551.47,-156 551.47,-156 551.47,-144 551.47,-144 551.47,-138 557.47,-132 563.47,-132"/>
<text text-anchor="middle" x="582.72" y="-145.2" font-family="Times,serif" font-size="14.00">0:0 &#45; 3:3</text>
</g>
<!-- c9&#45;&gt;x1 -->
<g id="edge2" class="edge">
<title>c9:e&#45;&gt;x1:w</title>
<path fill="none" stroke="black" d="M332.93,-60.42C427.06,-66.78 443.81,-143.17 537.89,-149.57"/>
<polygon fill="none" stroke="black" points="333.08,-60.43 326.95,-64.23 321.09,-60.03 327.22,-56.23 333.08,-60.43"/>
<polygon fill="none" stroke="black" points="537.83,-149.57 543.96,-145.77 549.82,-149.97 543.69,-153.77 537.83,-149.57"/>
</g>
<!-- x0&#45;&gt;c9 -->
<g id="edge1" class="edge">
<title>x0:e&#45;&gt;c9:w</title>
<path fill="none" stroke="black" d="M180.29,-44.57C192.43,-47.79 199.2,-55.12 211.29,-58.39"/>
<polygon fill="none" stroke="black" points="180.37,-44.58 173.92,-47.81 168.46,-43.11 174.9,-39.87 180.37,-44.58"/>
<polygon fill="none" stroke="black" points="211.39,-58.4 217.84,-55.17 223.29,-59.89 216.84,-63.11 211.39,-58.4"/>
</g>
<!-- x1&#45;&gt;n6 -->
<g id="edge17" class="edge">
<title>x1:e&#45;&gt;n6:w</title>
<path fill="none" stroke="black" stroke-width="3" d="M614.72,-150C735.72,-150 766.63,-183.79 882,-185.9"/>
<polygon fill="black" stroke="black" stroke-width="3" points="878.86,-189.37 888.89,-185.96 878.93,-182.37 878.86,-189.37"/>
</g>
<!-- v2 -->
<g id="node7" class="node">
<title>v2</title>
<ellipse fill="none" stroke="black" cx="435.33" cy="-320" rx="30.88" ry="18"/>
<text text-anchor="middle" x="435.33" y="-314.95" font-family="Times,serif" font-size="14.00">3&#39;000</text>
</g>
<!-- c12 -->
<g id="node9" class="node">
<title>c12</title>
<polygon fill="none" stroke="black" points="529.85,-205.25 529.85,-278.75 635.6,-278.75 635.6,-205.25 529.85,-205.25"/>
<text text-anchor="middle" x="542.72" y="-261.45" font-family="Times,serif" font-size="14.00">A</text>
<polyline fill="none" stroke="black" points="529.85,-254.25 555.6,-254.25"/>
<text text-anchor="middle" x="542.72" y="-236.95" font-family="Times,serif" font-size="14.00">B</text>
<polyline fill="none" stroke="black" points="529.85,-229.75 555.6,-229.75"/>
<text text-anchor="middle" x="542.72" y="-212.45" font-family="Times,serif" font-size="14.00">S</text>
<polyline fill="none" stroke="black" points="555.6,-205.25 555.6,-278.75"/>
<text text-anchor="middle" x="582.72" y="-245.2" font-family="Times,serif" font-size="14.00">$285</text>
<text text-anchor="middle" x="582.72" y="-228.7" font-family="Times,serif" font-size="14.00">$pmux</text>
<polyline fill="none" stroke="black" points="609.85,-205.25 609.85,-278.75"/>
<text text-anchor="middle" x="622.72" y="-236.95" font-family="Times,serif" font-size="14.00">Y</text>
</g>
<!-- v2&#45;&gt;c12 -->
<g id="edge18" class="edge">
<title>v2:e&#45;&gt;c12:w</title>
<path fill="none" stroke="black" stroke-width="3" d="M467.33,-320C499.49,-320 495.2,-278.69 518.82,-269.01"/>
<polygon fill="black" stroke="black" stroke-width="3" points="516.17,-273.05 525.38,-267.82 514.91,-266.17 516.17,-273.05"/>
</g>
<!-- v3 -->
<g id="node8" class="node">
<title>v3</title>
<ellipse fill="none" stroke="black" cx="435.33" cy="-266" rx="58.52" ry="18"/>
<text text-anchor="middle" x="435.33" y="-260.95" font-family="Times,serif" font-size="14.00">9&#39;001011111</text>
</g>
<!-- v3&#45;&gt;c12 -->
<g id="edge19" class="edge">
<title>v3:e&#45;&gt;c12:w</title>
<path fill="none" stroke="black" stroke-width="3" d="M493.85,-266C508.42,-266 510.54,-252.22 519.07,-245.54"/>
<polygon fill="black" stroke="black" stroke-width="3" points="517.13,-249.87 525.53,-243.42 514.94,-243.22 517.13,-249.87"/>
</g>
<!-- c12&#45;&gt;n5 -->
<g id="edge14" class="edge">
<title>c12:e&#45;&gt;n5:w</title>
<path fill="none" stroke="black" stroke-width="3" d="M635.6,-242C647.38,-242 652.35,-237.87 660.31,-235.54"/>
<polygon fill="black" stroke="black" stroke-width="3" points="657.66,-239.44 667.1,-234.61 656.72,-232.5 657.66,-239.44"/>
</g>
<!-- x4 -->
<g id="node10" class="node">
<title>x4</title>
<path fill="none" stroke="black" d="M416.08,-156.25C416.08,-156.25 454.58,-156.25 454.58,-156.25 460.58,-156.25 466.58,-162.25 466.58,-168.25 466.58,-168.25 466.58,-217.75 466.58,-217.75 466.58,-223.75 460.58,-229.75 454.58,-229.75 454.58,-229.75 416.08,-229.75 416.08,-229.75 410.08,-229.75 404.08,-223.75 404.08,-217.75 404.08,-217.75 404.08,-168.25 404.08,-168.25 404.08,-162.25 410.08,-156.25 416.08,-156.25"/>
<text text-anchor="middle" x="435.33" y="-212.45" font-family="Times,serif" font-size="14.00">0:0 &#45; 2:2</text>
<polyline fill="none" stroke="black" points="404.08,-205.25 466.58,-205.25"/>
<text text-anchor="middle" x="435.33" y="-187.95" font-family="Times,serif" font-size="14.00">0:0 &#45; 1:1</text>
<polyline fill="none" stroke="black" points="404.08,-180.75 466.58,-180.75"/>
<text text-anchor="middle" x="435.33" y="-163.45" font-family="Times,serif" font-size="14.00">0:0 &#45; 0:0</text>
</g>
<!-- x4&#45;&gt;c12 -->
<g id="edge3" class="edge">
<title>x4:e&#45;&gt;c12:w</title>
<path fill="none" stroke="black" stroke-width="3" d="M480.05,-194.73C495.13,-199.15 502.08,-210.88 517.18,-215.29"/>
<polygon fill="none" stroke="black" stroke-width="3" points="481.9,-194.98 475.42,-198.13 470.01,-193.36 476.49,-190.21 481.9,-194.98"/>
<polygon fill="none" stroke="black" stroke-width="3" points="515.27,-215.03 521.76,-211.87 527.17,-216.64 520.68,-219.8 515.27,-215.03"/>
</g>
<!-- v6 -->
<g id="node11" class="node">
<title>v6</title>
<ellipse fill="none" stroke="black" cx="136.31" cy="-98" rx="27" ry="18"/>
<text text-anchor="middle" x="136.31" y="-92.95" font-family="Times,serif" font-size="14.00">2&#39;10</text>
</g>
<!-- c13 -->
<g id="node12" class="node">
<title>c13</title>
<polygon fill="none" stroke="black" points="203.56,-116.5 203.56,-165.5 340.81,-165.5 340.81,-116.5 203.56,-116.5"/>
<text text-anchor="middle" x="216.44" y="-148.2" font-family="Times,serif" font-size="14.00">A</text>
<polyline fill="none" stroke="black" points="203.56,-141 229.31,-141"/>
<text text-anchor="middle" x="216.44" y="-123.7" font-family="Times,serif" font-size="14.00">B</text>
<polyline fill="none" stroke="black" points="229.31,-116.5 229.31,-165.5"/>
<text text-anchor="middle" x="272.19" y="-144.2" font-family="Times,serif" font-size="14.00">$286_CMP0</text>
<text text-anchor="middle" x="272.19" y="-127.7" font-family="Times,serif" font-size="14.00">$eq</text>
<polyline fill="none" stroke="black" points="315.06,-116.5 315.06,-165.5"/>
<text text-anchor="middle" x="327.94" y="-136.2" font-family="Times,serif" font-size="14.00">Y</text>
</g>
<!-- v6&#45;&gt;c13 -->
<g id="edge20" class="edge">
<title>v6:e&#45;&gt;c13:w</title>
<path fill="none" stroke="black" stroke-width="3" d="M164.31,-98C181.85,-98 182.31,-117.3 192.64,-125.44"/>
<polygon fill="black" stroke="black" stroke-width="3" points="188.65,-127.83 199.25,-127.59 190.82,-121.17 188.65,-127.83"/>
</g>
<!-- c13&#45;&gt;x4 -->
<g id="edge7" class="edge">
<title>c13:e&#45;&gt;x4:w</title>
<path fill="none" stroke="black" d="M340.81,-141C366.82,-141 371.95,-160.94 392.08,-166.55"/>
<polygon fill="black" stroke="black" points="391.46,-170 401.83,-167.81 392.36,-163.06 391.46,-170"/>
</g>
<!-- x5&#45;&gt;c13 -->
<g id="edge4" class="edge">
<title>x5:e&#45;&gt;c13:w</title>
<path fill="none" stroke="black" stroke-width="3" d="M180.28,-153C183.88,-153 187.01,-153 190.59,-153"/>
<polygon fill="none" stroke="black" stroke-width="3" points="182.27,-153 176.27,-157 170.27,-153 176.27,-149 182.27,-153"/>
<polygon fill="none" stroke="black" stroke-width="3" points="188.86,-153 194.86,-149 200.86,-153 194.86,-157 188.86,-153"/>
</g>
<!-- v8 -->
<g id="node14" class="node">
<title>v8</title>
<ellipse fill="none" stroke="black" cx="136.31" cy="-208" rx="27" ry="18"/>
<text text-anchor="middle" x="136.31" y="-202.95" font-family="Times,serif" font-size="14.00">2&#39;01</text>
</g>
<!-- c14 -->
<g id="node15" class="node">
<title>c14</title>
<polygon fill="none" stroke="black" points="203.56,-195.5 203.56,-244.5 340.81,-244.5 340.81,-195.5 203.56,-195.5"/>
<text text-anchor="middle" x="216.44" y="-227.2" font-family="Times,serif" font-size="14.00">A</text>
<polyline fill="none" stroke="black" points="203.56,-220 229.31,-220"/>
<text text-anchor="middle" x="216.44" y="-202.7" font-family="Times,serif" font-size="14.00">B</text>
<polyline fill="none" stroke="black" points="229.31,-195.5 229.31,-244.5"/>
<text text-anchor="middle" x="272.19" y="-223.2" font-family="Times,serif" font-size="14.00">$287_CMP0</text>
<text text-anchor="middle" x="272.19" y="-206.7" font-family="Times,serif" font-size="14.00">$eq</text>
<polyline fill="none" stroke="black" points="315.06,-195.5 315.06,-244.5"/>
<text text-anchor="middle" x="327.94" y="-215.2" font-family="Times,serif" font-size="14.00">Y</text>
</g>
<!-- v8&#45;&gt;c14 -->
<g id="edge21" class="edge">
<title>v8:e&#45;&gt;c14:w</title>
<path fill="none" stroke="black" stroke-width="3" d="M164.31,-208C177.26,-208 183,-208 192.23,-208"/>
<polygon fill="black" stroke="black" stroke-width="3" points="189.02,-211.5 199.02,-208 189.02,-204.5 189.02,-211.5"/>
</g>
<!-- c14&#45;&gt;x4 -->
<g id="edge8" class="edge">
<title>c14:e&#45;&gt;x4:w</title>
<path fill="none" stroke="black" d="M340.81,-220C366.82,-220 371.95,-200.06 392.08,-194.45"/>
<polygon fill="black" stroke="black" points="392.36,-197.94 401.83,-193.19 391.46,-191 392.36,-197.94"/>
</g>
<!-- x7&#45;&gt;c14 -->
<g id="edge5" class="edge">
<title>x7:e&#45;&gt;c14:w</title>
<path fill="none" stroke="black" stroke-width="3" d="M179.38,-257.88C184.57,-252.1 186.61,-242.76 191.83,-237.02"/>
<polygon fill="none" stroke="black" stroke-width="3" points="181.05,-257.15 177.14,-263.21 170.04,-261.92 173.96,-255.87 181.05,-257.15"/>
<polygon fill="none" stroke="black" stroke-width="3" points="190.05,-237.79 193.99,-231.75 201.08,-233.06 197.14,-239.1 190.05,-237.79"/>
</g>
<!-- c15 -->
<g id="node17" class="node">
<title>c15</title>
<polygon fill="none" stroke="black" points="203.56,-280.5 203.56,-321.5 340.81,-321.5 340.81,-280.5 203.56,-280.5"/>
<text text-anchor="middle" x="216.44" y="-296.2" font-family="Times,serif" font-size="14.00">A</text>
<polyline fill="none" stroke="black" points="229.31,-280.5 229.31,-321.5"/>
<text text-anchor="middle" x="272.19" y="-304.2" font-family="Times,serif" font-size="14.00">$288_CMP0</text>
<text text-anchor="middle" x="272.19" y="-287.7" font-family="Times,serif" font-size="14.00">$logic_not</text>
<polyline fill="none" stroke="black" points="315.06,-280.5 315.06,-321.5"/>
<text text-anchor="middle" x="327.94" y="-296.2" font-family="Times,serif" font-size="14.00">Y</text>
</g>
<!-- c15&#45;&gt;x4 -->
<g id="edge9" class="edge">
<title>c15:e&#45;&gt;x4:w</title>
<path fill="none" stroke="black" d="M340.81,-301C372.68,-301 355.96,-263.09 376.81,-239 383.58,-231.19 386.47,-224.19 392.5,-220.58"/>
<polygon fill="black" stroke="black" points="392.94,-224.07 401.86,-218.35 391.32,-217.26 392.94,-224.07"/>
</g>
<!-- x9&#45;&gt;c15 -->
<g id="edge6" class="edge">
<title>x9:e&#45;&gt;c15:w</title>
<path fill="none" stroke="black" stroke-width="3" d="M179.94,-314.23C184.03,-311.41 187.1,-307.58 191.2,-304.76"/>
<polygon fill="none" stroke="black" stroke-width="3" points="181.63,-313.71 177.05,-319.29 170.15,-317.21 174.72,-311.64 181.63,-313.71"/>
<polygon fill="none" stroke="black" stroke-width="3" points="189.49,-305.28 194.07,-299.71 200.98,-301.79 196.4,-307.36 189.49,-305.28"/>
</g>
<!-- x10&#45;&gt;n6 -->
<g id="edge16" class="edge">
<title>x10:e&#45;&gt;n6:w</title>
<path fill="none" stroke="black" stroke-width="3" d="M857.44,-226C876.68,-226 872.78,-200.1 882.98,-189.98"/>
<polygon fill="black" stroke="black" stroke-width="3" points="881.09,-194.45 889.19,-187.62 878.6,-187.9 881.09,-194.45"/>
</g>
</g>
</svg>
