<?xml version="1.0" encoding="UTF-8" standalone="no"?>
<!DOCTYPE svg PUBLIC "-//W3C//DTD SVG 1.1//EN"
 "http://www.w3.org/Graphics/SVG/1.1/DTD/svg11.dtd">
<!-- Generated by graphviz version 9.0.0 (20230911.1827)
 -->
<!-- Title: top Pages: 1 -->
<svg width="1654pt" height="551pt"
 viewBox="0.00 0.00 1654.18 550.75" xmlns="http://www.w3.org/2000/svg" xmlns:xlink="http://www.w3.org/1999/xlink">
<g id="page0,1_graph0" class="graph" transform="scale(1 1) rotate(0) translate(4 546.75)">
<title>top</title>
<polygon fill="white" stroke="none" points="-4,4 -4,-546.75 1650.18,-546.75 1650.18,4 -4,4"/>
<text text-anchor="middle" x="823.09" y="-7.2" font-family="Times,serif" font-size="14.00">top</text>
<!-- n1 -->
<g id="node1" class="node">
<title>n1</title>
<polygon fill="none" stroke="black" points="443.11,-237.5 315.48,-219.5 443.11,-201.5 570.74,-219.5 443.11,-237.5"/>
<text text-anchor="middle" x="443.11" y="-214.45" font-family="Times,serif" font-size="14.00">CLKHF_POWERUP</text>
</g>
<!-- n2 -->
<g id="node2" class="node">
<title>n2</title>
<polygon fill="none" stroke="black" points="443.11,-291.5 367.59,-273.5 443.11,-255.5 518.63,-273.5 443.11,-291.5"/>
<text text-anchor="middle" x="443.11" y="-268.45" font-family="Times,serif" font-size="14.00">ENCLKHF</text>
</g>
<!-- n3 -->
<g id="node3" class="node">
<title>n3</title>
<polygon fill="none" stroke="black" points="31.36,-458.5 0,-440.5 31.36,-422.5 62.73,-440.5 31.36,-458.5"/>
<text text-anchor="middle" x="31.36" y="-435.45" font-family="Times,serif" font-size="14.00">clk</text>
</g>
<!-- c19 -->
<g id="node16" class="node">
<title>c19</title>
<polygon fill="none" stroke="black" points="139.6,-468.75 139.6,-542.25 238.6,-542.25 238.6,-468.75 139.6,-468.75"/>
<text text-anchor="middle" x="152.48" y="-524.95" font-family="Times,serif" font-size="14.00">A</text>
<polyline fill="none" stroke="black" points="139.6,-517.75 165.35,-517.75"/>
<text text-anchor="middle" x="152.48" y="-500.45" font-family="Times,serif" font-size="14.00">B</text>
<polyline fill="none" stroke="black" points="139.6,-493.25 165.35,-493.25"/>
<text text-anchor="middle" x="152.48" y="-475.95" font-family="Times,serif" font-size="14.00">S</text>
<polyline fill="none" stroke="black" points="165.35,-468.75 165.35,-542.25"/>
<text text-anchor="middle" x="189.1" y="-508.7" font-family="Times,serif" font-size="14.00">$281</text>
<text text-anchor="middle" x="189.1" y="-492.2" font-family="Times,serif" font-size="14.00">$mux</text>
<polyline fill="none" stroke="black" points="212.85,-468.75 212.85,-542.25"/>
<text text-anchor="middle" x="225.73" y="-500.45" font-family="Times,serif" font-size="14.00">Y</text>
</g>
<!-- n3&#45;&gt;c19 -->
<g id="edge12" class="edge">
<title>n3:e&#45;&gt;c19:w</title>
<path fill="none" stroke="black" d="M62.73,-440.5C110.63,-440.5 90.14,-516.34 126.81,-528.78"/>
<polygon fill="black" stroke="black" points="126.2,-532.23 136.61,-530.27 127.25,-525.31 126.2,-532.23"/>
</g>
<!-- c23 -->
<g id="node19" class="node">
<title>c23</title>
<polygon fill="none" stroke="black" points="98.73,-338.75 98.73,-412.25 279.48,-412.25 279.48,-338.75 98.73,-338.75"/>
<text text-anchor="middle" x="137.85" y="-394.95" font-family="Times,serif" font-size="14.00">CLKHF</text>
<polyline fill="none" stroke="black" points="98.73,-387.75 176.98,-387.75"/>
<text text-anchor="middle" x="137.85" y="-370.45" font-family="Times,serif" font-size="14.00">CLKHFEN</text>
<polyline fill="none" stroke="black" points="98.73,-363.25 176.98,-363.25"/>
<text text-anchor="middle" x="137.85" y="-345.95" font-family="Times,serif" font-size="14.00">CLKHFPU</text>
<polyline fill="none" stroke="black" points="176.98,-338.75 176.98,-412.25"/>
<text text-anchor="middle" x="218.35" y="-378.7" font-family="Times,serif" font-size="14.00">OSCInst0</text>
<text text-anchor="middle" x="218.35" y="-362.2" font-family="Times,serif" font-size="14.00">SB_HFOSC</text>
<polyline fill="none" stroke="black" points="259.73,-338.75 259.73,-412.25"/>
<text text-anchor="middle" x="269.6" y="-370.45" font-family="Times,serif" font-size="14.00"> </text>
</g>
<!-- n3&#45;&gt;c23 -->
<g id="edge13" class="edge">
<title>n3:e&#45;&gt;c23:w</title>
<path fill="none" stroke="black" d="M62.73,-440.5C81.98,-440.5 78.07,-414.6 88.27,-404.48"/>
<polygon fill="black" stroke="black" points="89.22,-407.87 97.32,-401.04 86.72,-401.33 89.22,-407.87"/>
</g>
<!-- c31 -->
<g id="node20" class="node">
<title>c31</title>
<polygon fill="none" stroke="black" points="1183.5,-204 1183.5,-351 1426.5,-351 1426.5,-204 1183.5,-204"/>
<text text-anchor="middle" x="1220.75" y="-333.7" font-family="Times,serif" font-size="14.00">addr</text>
<polyline fill="none" stroke="black" points="1183.5,-326.5 1258,-326.5"/>
<text text-anchor="middle" x="1220.75" y="-309.2" font-family="Times,serif" font-size="14.00">clk</text>
<polyline fill="none" stroke="black" points="1183.5,-302 1258,-302"/>
<text text-anchor="middle" x="1220.75" y="-284.7" font-family="Times,serif" font-size="14.00">memread</text>
<polyline fill="none" stroke="black" points="1183.5,-277.5 1258,-277.5"/>
<text text-anchor="middle" x="1220.75" y="-260.2" font-family="Times,serif" font-size="14.00">memwrite</text>
<polyline fill="none" stroke="black" points="1183.5,-253 1258,-253"/>
<text text-anchor="middle" x="1220.75" y="-235.7" font-family="Times,serif" font-size="14.00">sign_mask</text>
<polyline fill="none" stroke="black" points="1183.5,-228.5 1258,-228.5"/>
<text text-anchor="middle" x="1220.75" y="-211.2" font-family="Times,serif" font-size="14.00">write_data</text>
<polyline fill="none" stroke="black" points="1258,-204 1258,-351"/>
<text text-anchor="middle" x="1308" y="-280.7" font-family="Times,serif" font-size="14.00">data_mem_inst</text>
<text text-anchor="middle" x="1308" y="-264.2" font-family="Times,serif" font-size="14.00">data_mem</text>
<polyline fill="none" stroke="black" points="1358,-204 1358,-351"/>
<text text-anchor="middle" x="1392.25" y="-321.7" font-family="Times,serif" font-size="14.00">clk_stall</text>
<polyline fill="none" stroke="black" points="1358,-302.5 1426.5,-302.5"/>
<text text-anchor="middle" x="1392.25" y="-272.7" font-family="Times,serif" font-size="14.00">led</text>
<polyline fill="none" stroke="black" points="1358,-253 1426.5,-253"/>
<text text-anchor="middle" x="1392.25" y="-223.7" font-family="Times,serif" font-size="14.00">read_data</text>
</g>
<!-- n3&#45;&gt;c31 -->
<g id="edge14" class="edge">
<title>n3:e&#45;&gt;c31:w</title>
<path fill="none" stroke="black" d="M62.73,-440.5C231.34,-440.5 273.5,-440.5 442.11,-440.5 442.11,-440.5 442.11,-440.5 759.99,-440.5 846.21,-440.5 1078.74,-473.51 1147.5,-421.5 1183.92,-393.95 1142.3,-327.91 1172.35,-316.27"/>
<polygon fill="black" stroke="black" points="1172.67,-319.76 1182,-314.74 1171.58,-312.85 1172.67,-319.76"/>
</g>
<!-- n4 -->
<g id="node4" class="node">
<title>n4</title>
<polygon fill="none" stroke="black" points="443.11,-381.5 382.07,-363.5 443.11,-345.5 504.15,-363.5 443.11,-381.5"/>
<text text-anchor="middle" x="443.11" y="-358.45" font-family="Times,serif" font-size="14.00">clk_proc</text>
</g>
<!-- c42 -->
<g id="node22" class="node">
<title>c42</title>
<polygon fill="none" stroke="black" points="606.74,-171 606.74,-318 911.24,-318 911.24,-171 606.74,-171"/>
<text text-anchor="middle" x="655.62" y="-288.7" font-family="Times,serif" font-size="14.00">clk</text>
<polyline fill="none" stroke="black" points="606.74,-269.5 704.49,-269.5"/>
<text text-anchor="middle" x="655.62" y="-239.7" font-family="Times,serif" font-size="14.00">data_mem_out</text>
<polyline fill="none" stroke="black" points="606.74,-220 704.49,-220"/>
<text text-anchor="middle" x="655.62" y="-190.7" font-family="Times,serif" font-size="14.00">inst_mem_out</text>
<polyline fill="none" stroke="black" points="704.49,-171 704.49,-318"/>
<text text-anchor="middle" x="738.37" y="-247.7" font-family="Times,serif" font-size="14.00">processor</text>
<text text-anchor="middle" x="738.37" y="-231.2" font-family="Times,serif" font-size="14.00">cpu</text>
<polyline fill="none" stroke="black" points="772.24,-171 772.24,-318"/>
<text text-anchor="middle" x="841.74" y="-300.7" font-family="Times,serif" font-size="14.00">data_mem_WrData</text>
<polyline fill="none" stroke="black" points="772.24,-293.5 911.24,-293.5"/>
<text text-anchor="middle" x="841.74" y="-276.2" font-family="Times,serif" font-size="14.00">data_mem_addr</text>
<polyline fill="none" stroke="black" points="772.24,-269 911.24,-269"/>
<text text-anchor="middle" x="841.74" y="-251.7" font-family="Times,serif" font-size="14.00">data_mem_memread</text>
<polyline fill="none" stroke="black" points="772.24,-244.5 911.24,-244.5"/>
<text text-anchor="middle" x="841.74" y="-227.2" font-family="Times,serif" font-size="14.00">data_mem_memwrite</text>
<polyline fill="none" stroke="black" points="772.24,-220 911.24,-220"/>
<text text-anchor="middle" x="841.74" y="-202.7" font-family="Times,serif" font-size="14.00">data_mem_sign_mask</text>
<polyline fill="none" stroke="black" points="772.24,-195.5 911.24,-195.5"/>
<text text-anchor="middle" x="841.74" y="-178.2" font-family="Times,serif" font-size="14.00">inst_mem_in</text>
</g>
<!-- n4&#45;&gt;c42 -->
<g id="edge16" class="edge">
<title>n4:e&#45;&gt;c42:w</title>
<path fill="none" stroke="black" d="M507.11,-363.5C557.11,-363.5 553.57,-303.76 595.41,-294.66"/>
<polygon fill="black" stroke="black" points="595.64,-298.15 605.24,-293.65 594.93,-291.19 595.64,-298.15"/>
</g>
<!-- n5 -->
<g id="node5" class="node">
<title>n5</title>
<polygon fill="none" stroke="black" points="1047.37,-412.5 962.44,-394.5 1047.37,-376.5 1132.3,-394.5 1047.37,-412.5"/>
<text text-anchor="middle" x="1047.37" y="-389.45" font-family="Times,serif" font-size="14.00">data_WrData</text>
</g>
<!-- n5&#45;&gt;c31 -->
<g id="edge18" class="edge">
<title>n5:e&#45;&gt;c31:w</title>
<path fill="none" stroke="black" stroke-width="3" d="M1135.37,-394.5C1213,-394.5 1113.2,-234.78 1172.12,-217.93"/>
<polygon fill="black" stroke="black" stroke-width="3" points="1169.51,-221.79 1178.99,-217.07 1168.63,-214.84 1169.51,-221.79"/>
</g>
<!-- n6 -->
<g id="node6" class="node">
<title>n6</title>
<polygon fill="none" stroke="black" points="1047.37,-358.5 980.54,-340.5 1047.37,-322.5 1114.2,-340.5 1047.37,-358.5"/>
<text text-anchor="middle" x="1047.37" y="-335.45" font-family="Times,serif" font-size="14.00">data_addr</text>
</g>
<!-- n6&#45;&gt;c31 -->
<g id="edge20" class="edge">
<title>n6:e&#45;&gt;c31:w</title>
<path fill="none" stroke="black" stroke-width="3" d="M1116.37,-340.5C1142.02,-340.5 1151.11,-339.02 1172.11,-338.61"/>
<polygon fill="black" stroke="black" stroke-width="3" points="1168.99,-342.14 1178.95,-338.54 1168.92,-335.14 1168.99,-342.14"/>
</g>
<!-- n7 -->
<g id="node7" class="node">
<title>n7</title>
<polygon fill="none" stroke="black" points="1550.32,-421.5 1462.5,-403.5 1550.32,-385.5 1638.14,-403.5 1550.32,-421.5"/>
<text text-anchor="middle" x="1550.32" y="-398.45" font-family="Times,serif" font-size="14.00">data_clk_stall</text>
</g>
<!-- n7&#45;&gt;c19 -->
<g id="edge22" class="edge">
<title>n7:e&#45;&gt;c19:w</title>
<path fill="none" stroke="black" d="M1641.32,-403.5C1649.33,-403.5 1645.86,-415.72 1640.32,-421.5 1457.38,-612.32 1312.72,-479.5 1048.37,-479.5 757.99,-479.5 757.99,-479.5 757.99,-479.5 527.1,-479.5 469.48,-470.75 238.6,-468.25 194.39,-467.77 171.62,-438.28 139.1,-468.25 138.85,-468.48 138.61,-468.73 138.37,-469"/>
<polygon fill="black" stroke="black" points="134.87,-468.91 138.14,-478.99 141.87,-469.07 134.87,-468.91"/>
</g>
<!-- n8 -->
<g id="node8" class="node">
<title>n8</title>
<polygon fill="none" stroke="black" points="1047.37,-304.5 953.76,-286.5 1047.37,-268.5 1140.98,-286.5 1047.37,-304.5"/>
<text text-anchor="middle" x="1047.37" y="-281.45" font-family="Times,serif" font-size="14.00">data_memread</text>
</g>
<!-- n8&#45;&gt;c31 -->
<g id="edge24" class="edge">
<title>n8:e&#45;&gt;c31:w</title>
<path fill="none" stroke="black" d="M1144.37,-286.5C1157.31,-286.5 1162.99,-288.15 1172.18,-289"/>
<polygon fill="black" stroke="black" points="1171.84,-292.49 1181.98,-289.43 1172.15,-285.5 1171.84,-292.49"/>
</g>
<!-- n9 -->
<g id="node9" class="node">
<title>n9</title>
<polygon fill="none" stroke="black" points="1047.37,-250.5 949.41,-232.5 1047.37,-214.5 1145.32,-232.5 1047.37,-250.5"/>
<text text-anchor="middle" x="1047.37" y="-227.45" font-family="Times,serif" font-size="14.00">data_memwrite</text>
</g>
<!-- n9&#45;&gt;c31 -->
<g id="edge26" class="edge">
<title>n9:e&#45;&gt;c31:w</title>
<path fill="none" stroke="black" d="M1147.5,-232.5C1164.45,-232.5 1163.64,-252.64 1172.82,-261.45"/>
<polygon fill="black" stroke="black" points="1171.49,-264.69 1182.08,-264.96 1173.97,-258.15 1171.49,-264.69"/>
</g>
<!-- n10 -->
<g id="node10" class="node">
<title>n10</title>
<polygon fill="none" stroke="black" points="1550.32,-195.5 1490,-177.5 1550.32,-159.5 1610.63,-177.5 1550.32,-195.5"/>
<text text-anchor="middle" x="1550.32" y="-172.45" font-family="Times,serif" font-size="14.00">data_out</text>
</g>
<!-- n10&#45;&gt;c42 -->
<g id="edge3" class="edge">
<title>n10:e&#45;&gt;c42:w</title>
<path fill="none" stroke="black" stroke-width="3" d="M1613.32,-177.5C1621.33,-177.5 1618.14,-189.99 1612.32,-195.5 1572.82,-232.86 1544.25,-198.97 1490,-195.5 1336.84,-185.7 1300.66,-161.3 1147.5,-151.5 1058.68,-145.82 1016.49,-95.59 947.24,-151.5 888.17,-199.2 970.32,-270.8 911.24,-318.5 806.03,-403.45 703.25,-413.47 606.99,-318.5 597.94,-309.57 592.45,-270.18 598.04,-252.8"/>
<polygon fill="black" stroke="black" stroke-width="3" points="598.46,-257.42 602.85,-247.78 593.41,-252.58 598.46,-257.42"/>
</g>
<!-- n11 -->
<g id="node11" class="node">
<title>n11</title>
<polygon fill="none" stroke="black" points="1047.37,-196.5 947.24,-178.5 1047.37,-160.5 1147.5,-178.5 1047.37,-196.5"/>
<text text-anchor="middle" x="1047.37" y="-173.45" font-family="Times,serif" font-size="14.00">data_sign_mask</text>
</g>
<!-- n11&#45;&gt;c31 -->
<g id="edge5" class="edge">
<title>n11:e&#45;&gt;c31:w</title>
<path fill="none" stroke="black" stroke-width="3" d="M1147.5,-178.5C1174.63,-178.5 1158.55,-223.46 1172.85,-236.81"/>
<polygon fill="black" stroke="black" stroke-width="3" points="1168.61,-239.04 1179.21,-239.01 1170.91,-232.43 1168.61,-239.04"/>
</g>
<!-- n12 -->
<g id="node12" class="node">
<title>n12</title>
<polygon fill="none" stroke="black" points="1047.37,-65.5 996.46,-47.5 1047.37,-29.5 1098.28,-47.5 1047.37,-65.5"/>
<text text-anchor="middle" x="1047.37" y="-42.45" font-family="Times,serif" font-size="14.00">inst_in</text>
</g>
<!-- c33 -->
<g id="node21" class="node">
<title>c33</title>
<polygon fill="none" stroke="black" points="1204.87,-25 1204.87,-66 1405.12,-66 1405.12,-25 1204.87,-25"/>
<text text-anchor="middle" x="1224.87" y="-40.7" font-family="Times,serif" font-size="14.00">addr</text>
<polyline fill="none" stroke="black" points="1244.87,-25 1244.87,-66"/>
<text text-anchor="middle" x="1308.37" y="-48.7" font-family="Times,serif" font-size="14.00">inst_mem</text>
<text text-anchor="middle" x="1308.37" y="-32.2" font-family="Times,serif" font-size="14.00">instruction_memory</text>
<polyline fill="none" stroke="black" points="1371.87,-25 1371.87,-66"/>
<text text-anchor="middle" x="1388.5" y="-40.7" font-family="Times,serif" font-size="14.00">out</text>
</g>
<!-- n12&#45;&gt;c33 -->
<g id="edge7" class="edge">
<title>n12:e&#45;&gt;c33:w</title>
<path fill="none" stroke="black" stroke-width="3" d="M1100.37,-47.5C1142.47,-47.5 1155.7,-45.83 1192.84,-45.54"/>
<polygon fill="black" stroke="black" stroke-width="3" points="1189.47,-49.05 1199.45,-45.52 1189.44,-42.05 1189.47,-49.05"/>
</g>
<!-- n13 -->
<g id="node13" class="node">
<title>n13</title>
<polygon fill="none" stroke="black" points="1550.32,-88.5 1492.89,-70.5 1550.32,-52.5 1607.74,-70.5 1550.32,-88.5"/>
<text text-anchor="middle" x="1550.32" y="-65.45" font-family="Times,serif" font-size="14.00">inst_out</text>
</g>
<!-- n13&#45;&gt;c42 -->
<g id="edge9" class="edge">
<title>n13:e&#45;&gt;c42:w</title>
<path fill="none" stroke="black" stroke-width="3" d="M1610.32,-70.5C1618.33,-70.5 1615,-82.85 1609.32,-88.5 1557.09,-140.43 1020.56,-114.41 947.24,-121.5 795.17,-136.21 709.32,-57.05 606.99,-170.5 603.27,-174.63 600.24,-180.88 599.53,-186.1"/>
<polygon fill="black" stroke="black" stroke-width="3" points="594.87,-185.5 603.42,-191.76 600.64,-181.53 594.87,-185.5"/>
</g>
<!-- n14 -->
<g id="node14" class="node">
<title>n14</title>
<polygon fill="none" stroke="black" points="1577.32,-270.04 1577.32,-284.96 1561.5,-295.5 1539.13,-295.5 1523.32,-284.96 1523.32,-270.04 1539.13,-259.5 1561.5,-259.5 1577.32,-270.04"/>
<text text-anchor="middle" x="1550.32" y="-272.45" font-family="Times,serif" font-size="14.00">led</text>
</g>
<!-- v0 -->
<g id="node15" class="node">
<title>v0</title>
<ellipse fill="none" stroke="black" cx="31.36" cy="-505.5" rx="27" ry="18"/>
<text text-anchor="middle" x="31.36" y="-500.45" font-family="Times,serif" font-size="14.00">1&#39;1</text>
</g>
<!-- v0&#45;&gt;c19 -->
<g id="edge27" class="edge">
<title>v0:e&#45;&gt;c19:w</title>
<path fill="none" stroke="black" d="M59.36,-505.5C90.26,-505.5 100.7,-505.5 126.8,-505.5"/>
<polygon fill="black" stroke="black" points="126.59,-509 136.59,-505.5 126.59,-502 126.59,-509"/>
</g>
<!-- c19&#45;&gt;n4 -->
<g id="edge15" class="edge">
<title>c19:e&#45;&gt;n4:w</title>
<path fill="none" stroke="black" d="M240.1,-505.5C324.45,-505.5 293.92,-375.97 367.95,-364.33"/>
<polygon fill="black" stroke="black" points="367.89,-367.85 377.6,-363.61 367.37,-360.87 367.89,-367.85"/>
</g>
<!-- v1 -->
<g id="node17" class="node">
<title>v1</title>
<ellipse fill="none" stroke="black" cx="31.36" cy="-381.5" rx="27" ry="18"/>
<text text-anchor="middle" x="31.36" y="-376.45" font-family="Times,serif" font-size="14.00">1&#39;1</text>
</g>
<!-- v1&#45;&gt;c23 -->
<g id="edge28" class="edge">
<title>v1:e&#45;&gt;c23:w</title>
<path fill="none" stroke="black" d="M59.36,-381.5C72.5,-381.5 78.07,-378.19 87.31,-376.49"/>
<polygon fill="black" stroke="black" points="87.56,-379.98 97.22,-375.63 86.96,-373.01 87.56,-379.98"/>
</g>
<!-- v2 -->
<g id="node18" class="node">
<title>v2</title>
<ellipse fill="none" stroke="black" cx="31.36" cy="-327.5" rx="27" ry="18"/>
<text text-anchor="middle" x="31.36" y="-322.45" font-family="Times,serif" font-size="14.00">1&#39;1</text>
</g>
<!-- v2&#45;&gt;c23 -->
<g id="edge29" class="edge">
<title>v2:e&#45;&gt;c23:w</title>
<path fill="none" stroke="black" d="M59.36,-327.5C75.04,-327.5 77.89,-341.26 87.76,-347.49"/>
<polygon fill="black" stroke="black" points="86.7,-350.83 97.27,-350.1 88.55,-344.08 86.7,-350.83"/>
</g>
<!-- c31&#45;&gt;n7 -->
<g id="edge21" class="edge">
<title>c31:e&#45;&gt;n7:w</title>
<path fill="none" stroke="black" d="M1426.5,-326.5C1459.55,-326.5 1433.4,-385.45 1451.65,-400.19"/>
<polygon fill="black" stroke="black" points="1450.46,-403.49 1461.05,-403.06 1452.5,-396.79 1450.46,-403.49"/>
</g>
<!-- c31&#45;&gt;n10 -->
<g id="edge2" class="edge">
<title>c31:e&#45;&gt;n10:w</title>
<path fill="none" stroke="black" stroke-width="3" d="M1426.5,-228.5C1457.36,-228.5 1453.77,-189.45 1476.02,-179.69"/>
<polygon fill="black" stroke="black" stroke-width="3" points="1473.71,-183.71 1482.86,-178.36 1472.38,-176.83 1473.71,-183.71"/>
</g>
<!-- c31&#45;&gt;n14 -->
<g id="edge10" class="edge">
<title>c31:e&#45;&gt;n14:w</title>
<path fill="none" stroke="black" stroke-width="3" d="M1426.5,-277.5C1465.09,-277.5 1477.45,-277.5 1511.13,-277.5"/>
<polygon fill="black" stroke="black" stroke-width="3" points="1507.78,-281 1517.78,-277.5 1507.78,-274 1507.78,-281"/>
</g>
<!-- c33&#45;&gt;n13 -->
<g id="edge8" class="edge">
<title>c33:e&#45;&gt;n13:w</title>
<path fill="none" stroke="black" stroke-width="3" d="M1406,-45.5C1440.96,-45.5 1449.57,-65.5 1478.97,-69.72"/>
<polygon fill="black" stroke="black" stroke-width="3" points="1475.57,-73 1485.79,-70.19 1476.05,-66.02 1475.57,-73"/>
</g>
<!-- c42&#45;&gt;n5 -->
<g id="edge17" class="edge">
<title>c42:e&#45;&gt;n5:w</title>
<path fill="none" stroke="black" stroke-width="3" d="M911.24,-305.5C951.64,-305.5 922,-377.34 948.17,-391.93"/>
<polygon fill="black" stroke="black" stroke-width="3" points="944.41,-394.66 954.94,-393.49 945.98,-387.84 944.41,-394.66"/>
</g>
<!-- c42&#45;&gt;n6 -->
<g id="edge19" class="edge">
<title>c42:e&#45;&gt;n6:w</title>
<path fill="none" stroke="black" stroke-width="3" d="M911.24,-281.5C946.62,-281.5 940.72,-328.3 967.07,-338.54"/>
<polygon fill="black" stroke="black" stroke-width="3" points="963.44,-341.46 973.89,-339.72 964.64,-334.56 963.44,-341.46"/>
</g>
<!-- c42&#45;&gt;n8 -->
<g id="edge23" class="edge">
<title>c42:e&#45;&gt;n8:w</title>
<path fill="none" stroke="black" d="M911.24,-256.5C928.53,-256.5 929.25,-275.18 939.55,-283.06"/>
<polygon fill="black" stroke="black" points="938.34,-286.34 948.93,-286.04 940.46,-279.67 938.34,-286.34"/>
</g>
<!-- c42&#45;&gt;n9 -->
<g id="edge25" class="edge">
<title>c42:e&#45;&gt;n9:w</title>
<path fill="none" stroke="black" d="M911.24,-232.5C922.62,-232.5 927.93,-232.5 935.8,-232.5"/>
<polygon fill="black" stroke="black" points="935.73,-236 945.73,-232.5 935.73,-229 935.73,-236"/>
</g>
<!-- c42&#45;&gt;n11 -->
<g id="edge4" class="edge">
<title>c42:e&#45;&gt;n11:w</title>
<path fill="none" stroke="black" stroke-width="3" d="M911.24,-207.5C927.13,-207.5 927.69,-190.15 936.63,-182.29"/>
<polygon fill="black" stroke="black" stroke-width="3" points="934.73,-186.69 942.97,-180.03 932.37,-180.1 934.73,-186.69"/>
</g>
<!-- c42&#45;&gt;n12 -->
<g id="edge6" class="edge">
<title>c42:e&#45;&gt;n12:w</title>
<path fill="none" stroke="black" stroke-width="3" d="M911.24,-183.5C959.74,-183.5 917.97,-119.16 947.24,-80.5 960.14,-63.46 966.54,-51.85 983.23,-48.5"/>
<polygon fill="black" stroke="black" stroke-width="3" points="980.2,-52.28 989.85,-47.9 979.57,-45.31 980.2,-52.28"/>
</g>
<!-- v3 -->
<g id="node23" class="node">
<title>v3</title>
<ellipse fill="none" stroke="black" cx="31.36" cy="-219.5" rx="27" ry="18"/>
<text text-anchor="middle" x="31.36" y="-214.45" font-family="Times,serif" font-size="14.00">1&#39;1</text>
</g>
<!-- x4 -->
<g id="node24" class="node">
<title>x4</title>
<path fill="none" stroke="black" d="M204.1,-237.5C204.1,-237.5 174.1,-237.5 174.1,-237.5 168.1,-237.5 162.1,-231.5 162.1,-225.5 162.1,-225.5 162.1,-213.5 162.1,-213.5 162.1,-207.5 168.1,-201.5 174.1,-201.5 174.1,-201.5 204.1,-201.5 204.1,-201.5 210.1,-201.5 216.1,-207.5 216.1,-213.5 216.1,-213.5 216.1,-225.5 216.1,-225.5 216.1,-231.5 210.1,-237.5 204.1,-237.5"/>
<text text-anchor="middle" x="189.1" y="-214.45" font-family="Times,serif" font-size="14.00">BUF</text>
</g>
<!-- v3&#45;&gt;x4 -->
<g id="edge30" class="edge">
<title>v3:e&#45;&gt;x4:w</title>
<path fill="none" stroke="black" d="M59.36,-219.5C100.52,-219.5 113.58,-219.5 149.69,-219.5"/>
<polygon fill="black" stroke="black" points="149.59,-223 159.59,-219.5 149.59,-216 149.59,-223"/>
</g>
<!-- x4&#45;&gt;n1 -->
<g id="edge1" class="edge">
<title>x4:e&#45;&gt;n1:w</title>
<path fill="none" stroke="black" d="M217.1,-219.5C256.73,-219.5 269.42,-219.5 303.99,-219.5"/>
<polygon fill="black" stroke="black" points="303.97,-223 313.97,-219.5 303.97,-216 303.97,-223"/>
</g>
<!-- v5 -->
<g id="node25" class="node">
<title>v5</title>
<ellipse fill="none" stroke="black" cx="31.36" cy="-273.5" rx="27" ry="18"/>
<text text-anchor="middle" x="31.36" y="-268.45" font-family="Times,serif" font-size="14.00">1&#39;1</text>
</g>
<!-- x6 -->
<g id="node26" class="node">
<title>x6</title>
<path fill="none" stroke="black" d="M204.1,-291.5C204.1,-291.5 174.1,-291.5 174.1,-291.5 168.1,-291.5 162.1,-285.5 162.1,-279.5 162.1,-279.5 162.1,-267.5 162.1,-267.5 162.1,-261.5 168.1,-255.5 174.1,-255.5 174.1,-255.5 204.1,-255.5 204.1,-255.5 210.1,-255.5 216.1,-261.5 216.1,-267.5 216.1,-267.5 216.1,-279.5 216.1,-279.5 216.1,-285.5 210.1,-291.5 204.1,-291.5"/>
<text text-anchor="middle" x="189.1" y="-268.45" font-family="Times,serif" font-size="14.00">BUF</text>
</g>
<!-- v5&#45;&gt;x6 -->
<g id="edge31" class="edge">
<title>v5:e&#45;&gt;x6:w</title>
<path fill="none" stroke="black" d="M59.36,-273.5C100.52,-273.5 113.58,-273.5 149.69,-273.5"/>
<polygon fill="black" stroke="black" points="149.59,-277 159.59,-273.5 149.59,-270 149.59,-277"/>
</g>
<!-- x6&#45;&gt;n2 -->
<g id="edge11" class="edge">
<title>x6:e&#45;&gt;n2:w</title>
<path fill="none" stroke="black" d="M217.1,-273.5C278.9,-273.5 297.16,-273.5 353.68,-273.5"/>
<polygon fill="black" stroke="black" points="353.6,-277 363.6,-273.5 353.6,-270 353.6,-277"/>
</g>
</g>
</svg>
