<?xml version="1.0" encoding="UTF-8" standalone="no"?>
<!DOCTYPE svg PUBLIC "-//W3C//DTD SVG 1.1//EN"
 "http://www.w3.org/Graphics/SVG/1.1/DTD/svg11.dtd">
<!-- Generated by graphviz version 9.0.0 (20230911.1827)
 -->
<!-- Title: ex_mem Pages: 1 -->
<svg width="366pt" height="123pt"
 viewBox="0.00 0.00 366.44 122.50" xmlns="http://www.w3.org/2000/svg" xmlns:xlink="http://www.w3.org/1999/xlink">
<g id="page0,1_graph0" class="graph" transform="scale(1 1) rotate(0) translate(4 118.5)">
<title>ex_mem</title>
<polygon fill="white" stroke="none" points="-4,4 -4,-118.5 362.44,-118.5 362.44,4 -4,4"/>
<text text-anchor="middle" x="179.22" y="-7.2" font-family="Times,serif" font-size="14.00">ex_mem</text>
<!-- n1 -->
<g id="node1" class="node">
<title>n1</title>
<polygon fill="none" stroke="black" points="68.18,-89.04 68.18,-103.96 52.36,-114.5 30,-114.5 14.18,-103.96 14.18,-89.04 30,-78.5 52.36,-78.5 68.18,-89.04"/>
<text text-anchor="middle" x="41.18" y="-91.45" font-family="Times,serif" font-size="14.00">clk</text>
</g>
<!-- c7 -->
<g id="node4" class="node">
<title>c7</title>
<polygon fill="none" stroke="black" points="118.36,-45 118.36,-94 230.11,-94 230.11,-45 118.36,-45"/>
<text text-anchor="middle" x="139.86" y="-76.7" font-family="Times,serif" font-size="14.00">CLK</text>
<polyline fill="none" stroke="black" points="118.36,-69.5 161.36,-69.5"/>
<text text-anchor="middle" x="139.86" y="-52.2" font-family="Times,serif" font-size="14.00">D</text>
<polyline fill="none" stroke="black" points="161.36,-45 161.36,-94"/>
<text text-anchor="middle" x="182.86" y="-72.7" font-family="Times,serif" font-size="14.00">$547</text>
<text text-anchor="middle" x="182.86" y="-56.2" font-family="Times,serif" font-size="14.00">$dff</text>
<polyline fill="none" stroke="black" points="204.36,-45 204.36,-94"/>
<text text-anchor="middle" x="217.23" y="-64.7" font-family="Times,serif" font-size="14.00">Q</text>
</g>
<!-- n1&#45;&gt;c7 -->
<g id="edge1" class="edge">
<title>n1:e&#45;&gt;c7:w</title>
<path fill="none" stroke="black" d="M69.18,-96.5C87.75,-96.5 93.52,-86.6 107.29,-82.88"/>
<polygon fill="black" stroke="black" points="107.37,-86.4 116.86,-81.69 106.5,-79.46 107.37,-86.4"/>
</g>
<!-- n2 -->
<g id="node2" class="node">
<title>n2</title>
<polygon fill="none" stroke="black" points="82.36,-35.04 82.36,-49.96 58.24,-60.5 24.12,-60.5 0,-49.96 0,-35.04 24.12,-24.5 58.24,-24.5 82.36,-35.04"/>
<text text-anchor="middle" x="41.18" y="-37.45" font-family="Times,serif" font-size="14.00">data_in</text>
</g>
<!-- n2&#45;&gt;c7 -->
<g id="edge2" class="edge">
<title>n2:e&#45;&gt;c7:w</title>
<path fill="none" stroke="black" stroke-width="3" d="M82.36,-42.5C95.09,-42.5 99.19,-50.59 107.33,-54.89"/>
<polygon fill="black" stroke="black" stroke-width="3" points="103.4,-57.55 113.94,-56.45 105.02,-50.74 103.4,-57.55"/>
</g>
<!-- n3 -->
<g id="node3" class="node">
<title>n3</title>
<polygon fill="none" stroke="black" points="358.44,-62.04 358.44,-76.96 331.39,-87.5 293.15,-87.5 266.11,-76.96 266.11,-62.04 293.15,-51.5 331.39,-51.5 358.44,-62.04"/>
<text text-anchor="middle" x="312.27" y="-64.45" font-family="Times,serif" font-size="14.00">data_out</text>
</g>
<!-- c7&#45;&gt;n3 -->
<g id="edge3" class="edge">
<title>c7:e&#45;&gt;n3:w</title>
<path fill="none" stroke="black" stroke-width="3" d="M230.11,-69.5C241.48,-69.5 246.79,-69.5 254.66,-69.5"/>
<polygon fill="black" stroke="black" stroke-width="3" points="251.57,-73 261.57,-69.5 251.57,-66 251.57,-73"/>
</g>
</g>
</svg>
