<?xml version="1.0" encoding="UTF-8" standalone="no"?>
<!DOCTYPE svg PUBLIC "-//W3C//DTD SVG 1.1//EN"
 "http://www.w3.org/Graphics/SVG/1.1/DTD/svg11.dtd">
<!-- Generated by graphviz version 9.0.0 (20230911.1827)
 -->
<!-- Title: branch_predictor Pages: 1 -->
<svg width="2522pt" height="843pt"
 viewBox="0.00 0.00 2521.92 843.16" xmlns="http://www.w3.org/2000/svg" xmlns:xlink="http://www.w3.org/1999/xlink">
<g id="page0,1_graph0" class="graph" transform="scale(1 1) rotate(0) translate(4 839.16)">
<title>branch_predictor</title>
<polygon fill="white" stroke="none" points="-4,4 -4,-839.16 2517.92,-839.16 2517.92,4 -4,4"/>
<text text-anchor="middle" x="1256.96" y="-7.2" font-family="Times,serif" font-size="14.00">branch_predictor</text>
<!-- n12 -->
<g id="node1" class="node">
<title>n12</title>
<polygon fill="none" stroke="black" points="211.99,-55.21 211.99,-70.12 149.9,-80.66 62.09,-80.66 0,-70.12 0,-55.21 62.09,-44.66 149.9,-44.66 211.99,-55.21"/>
<text text-anchor="middle" x="105.99" y="-57.61" font-family="Times,serif" font-size="14.00">actual_branch_decision</text>
</g>
<!-- c27 -->
<g id="node15" class="node">
<title>c27</title>
<polygon fill="none" stroke="black" points="282.73,-119.16 282.73,-168.16 376.48,-168.16 376.48,-119.16 282.73,-119.16"/>
<text text-anchor="middle" x="295.61" y="-150.86" font-family="Times,serif" font-size="14.00">A</text>
<polyline fill="none" stroke="black" points="282.73,-143.66 308.48,-143.66"/>
<text text-anchor="middle" x="295.61" y="-126.36" font-family="Times,serif" font-size="14.00">B</text>
<polyline fill="none" stroke="black" points="308.48,-119.16 308.48,-168.16"/>
<text text-anchor="middle" x="329.61" y="-146.86" font-family="Times,serif" font-size="14.00">$88</text>
<text text-anchor="middle" x="329.61" y="-130.36" font-family="Times,serif" font-size="14.00">$and</text>
<polyline fill="none" stroke="black" points="350.73,-119.16 350.73,-168.16"/>
<text text-anchor="middle" x="363.61" y="-138.86" font-family="Times,serif" font-size="14.00">Y</text>
</g>
<!-- n12&#45;&gt;c27 -->
<g id="edge17" class="edge">
<title>n12:e&#45;&gt;c27:w</title>
<path fill="none" stroke="black" d="M211.99,-62.66C251.3,-62.66 240.88,-118.84 270.48,-129.82"/>
<polygon fill="black" stroke="black" points="269.68,-133.23 280.11,-131.42 270.82,-126.33 269.68,-133.23"/>
</g>
<!-- c29 -->
<g id="node19" class="node">
<title>c29</title>
<polygon fill="none" stroke="black" points="1928.44,-572.16 1928.44,-621.16 2022.19,-621.16 2022.19,-572.16 1928.44,-572.16"/>
<text text-anchor="middle" x="1941.32" y="-603.86" font-family="Times,serif" font-size="14.00">A</text>
<polyline fill="none" stroke="black" points="1928.44,-596.66 1954.19,-596.66"/>
<text text-anchor="middle" x="1941.32" y="-579.36" font-family="Times,serif" font-size="14.00">B</text>
<polyline fill="none" stroke="black" points="1954.19,-572.16 1954.19,-621.16"/>
<text text-anchor="middle" x="1975.32" y="-599.86" font-family="Times,serif" font-size="14.00">$95</text>
<text text-anchor="middle" x="1975.32" y="-583.36" font-family="Times,serif" font-size="14.00">$and</text>
<polyline fill="none" stroke="black" points="1996.44,-572.16 1996.44,-621.16"/>
<text text-anchor="middle" x="2009.32" y="-591.86" font-family="Times,serif" font-size="14.00">Y</text>
</g>
<!-- n12&#45;&gt;c29 -->
<g id="edge18" class="edge">
<title>n12:e&#45;&gt;c29:w</title>
<path fill="none" stroke="black" d="M211.99,-62.66C343.51,-62.66 376.39,-62.66 507.9,-62.66 507.9,-62.66 507.9,-62.66 1690.3,-62.66 1817,-62.66 1837.34,-149.58 1892.44,-263.66 1921.89,-324.64 1863.94,-556.24 1917.54,-582.28"/>
<polygon fill="black" stroke="black" points="1916.45,-585.62 1926.96,-584.34 1917.94,-578.78 1916.45,-585.62"/>
</g>
<!-- c30 -->
<g id="node20" class="node">
<title>c30</title>
<polygon fill="none" stroke="black" points="1642.43,-250.16 1642.43,-299.16 1736.18,-299.16 1736.18,-250.16 1642.43,-250.16"/>
<text text-anchor="middle" x="1655.3" y="-281.86" font-family="Times,serif" font-size="14.00">A</text>
<polyline fill="none" stroke="black" points="1642.43,-274.66 1668.18,-274.66"/>
<text text-anchor="middle" x="1655.3" y="-257.36" font-family="Times,serif" font-size="14.00">B</text>
<polyline fill="none" stroke="black" points="1668.18,-250.16 1668.18,-299.16"/>
<text text-anchor="middle" x="1689.3" y="-277.86" font-family="Times,serif" font-size="14.00">$97</text>
<text text-anchor="middle" x="1689.3" y="-261.36" font-family="Times,serif" font-size="14.00">$and</text>
<polyline fill="none" stroke="black" points="1710.43,-250.16 1710.43,-299.16"/>
<text text-anchor="middle" x="1723.3" y="-269.86" font-family="Times,serif" font-size="14.00">Y</text>
</g>
<!-- n12&#45;&gt;c30 -->
<g id="edge19" class="edge">
<title>n12:e&#45;&gt;c30:w</title>
<path fill="none" stroke="black" d="M211.99,-62.66C229.16,-62.66 231.28,-52.6 247.99,-48.66 360.9,-22.05 391.89,-24.66 507.9,-24.66 507.9,-24.66 507.9,-24.66 1138.48,-24.66 1353.35,-24.66 1418.67,-66.89 1590.68,-195.66 1617.05,-215.41 1607.23,-252.51 1630.24,-260.93"/>
<polygon fill="black" stroke="black" points="1629.39,-264.34 1639.81,-262.43 1630.47,-257.43 1629.39,-264.34"/>
</g>
<!-- n13 -->
<g id="node2" class="node">
<title>n13</title>
<polygon fill="none" stroke="black" points="570.58,-779.21 570.58,-794.12 534.45,-804.66 483.36,-804.66 447.23,-794.12 447.23,-779.21 483.36,-768.66 534.45,-768.66 570.58,-779.21"/>
<text text-anchor="middle" x="508.9" y="-781.61" font-family="Times,serif" font-size="14.00">branch_addr</text>
</g>
<!-- n14 -->
<g id="node3" class="node">
<title>n14</title>
<polygon fill="none" stroke="black" points="1590.68,-529.21 1590.68,-544.12 1538.65,-554.66 1465.06,-554.66 1413.03,-544.12 1413.03,-529.21 1465.06,-518.66 1538.65,-518.66 1590.68,-529.21"/>
<text text-anchor="middle" x="1501.86" y="-531.61" font-family="Times,serif" font-size="14.00">branch_decode_sig</text>
</g>
<!-- c31 -->
<g id="node22" class="node">
<title>c31</title>
<polygon fill="none" stroke="black" points="1642.05,-540.16 1642.05,-589.16 1736.55,-589.16 1736.55,-540.16 1642.05,-540.16"/>
<text text-anchor="middle" x="1654.93" y="-571.86" font-family="Times,serif" font-size="14.00">A</text>
<polyline fill="none" stroke="black" points="1642.05,-564.66 1667.8,-564.66"/>
<text text-anchor="middle" x="1654.93" y="-547.36" font-family="Times,serif" font-size="14.00">B</text>
<polyline fill="none" stroke="black" points="1667.8,-540.16 1667.8,-589.16"/>
<text text-anchor="middle" x="1689.3" y="-567.86" font-family="Times,serif" font-size="14.00">$100</text>
<text text-anchor="middle" x="1689.3" y="-551.36" font-family="Times,serif" font-size="14.00">$and</text>
<polyline fill="none" stroke="black" points="1710.8,-540.16 1710.8,-589.16"/>
<text text-anchor="middle" x="1723.68" y="-559.86" font-family="Times,serif" font-size="14.00">Y</text>
</g>
<!-- n14&#45;&gt;c31 -->
<g id="edge21" class="edge">
<title>n14:e&#45;&gt;c31:w</title>
<path fill="none" stroke="black" d="M1590.68,-536.66C1609.85,-536.66 1615.71,-547.23 1629.89,-551.19"/>
<polygon fill="black" stroke="black" points="1629.43,-554.66 1639.8,-552.47 1630.33,-547.71 1629.43,-554.66"/>
</g>
<!-- n15 -->
<g id="node4" class="node">
<title>n15</title>
<polygon fill="none" stroke="black" points="411.23,-659.21 411.23,-674.12 363.42,-684.66 295.8,-684.66 247.99,-674.12 247.99,-659.21 295.8,-648.66 363.42,-648.66 411.23,-659.21"/>
<text text-anchor="middle" x="329.61" y="-661.61" font-family="Times,serif" font-size="14.00">branch_mem_sig</text>
</g>
<!-- c41 -->
<g id="node31" class="node">
<title>c41</title>
<polygon fill="none" stroke="black" points="453.03,-654.16 453.03,-703.16 564.78,-703.16 564.78,-654.16 453.03,-654.16"/>
<text text-anchor="middle" x="474.53" y="-685.86" font-family="Times,serif" font-size="14.00">CLK</text>
<polyline fill="none" stroke="black" points="453.03,-678.66 496.03,-678.66"/>
<text text-anchor="middle" x="474.53" y="-661.36" font-family="Times,serif" font-size="14.00">D</text>
<polyline fill="none" stroke="black" points="496.03,-654.16 496.03,-703.16"/>
<text text-anchor="middle" x="517.53" y="-681.86" font-family="Times,serif" font-size="14.00">$544</text>
<text text-anchor="middle" x="517.53" y="-665.36" font-family="Times,serif" font-size="14.00">$dff</text>
<polyline fill="none" stroke="black" points="539.03,-654.16 539.03,-703.16"/>
<text text-anchor="middle" x="551.9" y="-673.86" font-family="Times,serif" font-size="14.00">Q</text>
</g>
<!-- n15&#45;&gt;c41 -->
<g id="edge22" class="edge">
<title>n15:e&#45;&gt;c41:w</title>
<path fill="none" stroke="black" d="M411.23,-666.66C424.79,-666.66 430.72,-666.66 440.46,-666.66"/>
<polygon fill="black" stroke="black" points="440.39,-670.16 450.39,-666.66 440.39,-663.16 440.39,-670.16"/>
</g>
<!-- n16 -->
<g id="node5" class="node">
<title>n16</title>
<polygon fill="none" stroke="black" points="736.38,-696.66 606.58,-678.66 736.38,-660.66 866.18,-678.66 736.38,-696.66"/>
<text text-anchor="middle" x="736.38" y="-673.61" font-family="Times,serif" font-size="14.00">branch_mem_sig_reg</text>
</g>
<!-- c43 -->
<g id="node32" class="node">
<title>c43</title>
<polygon fill="none" stroke="black" points="902.18,-287.91 902.18,-361.41 1001.18,-361.41 1001.18,-287.91 902.18,-287.91"/>
<text text-anchor="middle" x="915.06" y="-344.11" font-family="Times,serif" font-size="14.00">A</text>
<polyline fill="none" stroke="black" points="902.18,-336.91 927.93,-336.91"/>
<text text-anchor="middle" x="915.06" y="-319.61" font-family="Times,serif" font-size="14.00">B</text>
<polyline fill="none" stroke="black" points="902.18,-312.41 927.93,-312.41"/>
<text text-anchor="middle" x="915.06" y="-295.11" font-family="Times,serif" font-size="14.00">S</text>
<polyline fill="none" stroke="black" points="927.93,-287.91 927.93,-361.41"/>
<text text-anchor="middle" x="951.68" y="-327.86" font-family="Times,serif" font-size="14.00">$367</text>
<text text-anchor="middle" x="951.68" y="-311.36" font-family="Times,serif" font-size="14.00">$mux</text>
<polyline fill="none" stroke="black" points="975.43,-287.91 975.43,-361.41"/>
<text text-anchor="middle" x="988.31" y="-319.61" font-family="Times,serif" font-size="14.00">Y</text>
</g>
<!-- n16&#45;&gt;c43 -->
<g id="edge24" class="edge">
<title>n16:e&#45;&gt;c43:w</title>
<path fill="none" stroke="black" d="M866.18,-678.66C1031.42,-678.66 746.9,-317.22 891.05,-300.28"/>
<polygon fill="black" stroke="black" points="890.88,-303.79 900.67,-299.75 890.5,-296.8 890.88,-303.79"/>
</g>
<!-- c44 -->
<g id="node35" class="node">
<title>c44</title>
<polygon fill="none" stroke="black" points="2305.69,-652.91 2305.69,-726.41 2404.69,-726.41 2404.69,-652.91 2305.69,-652.91"/>
<text text-anchor="middle" x="2318.57" y="-709.11" font-family="Times,serif" font-size="14.00">A</text>
<polyline fill="none" stroke="black" points="2305.69,-701.91 2331.44,-701.91"/>
<text text-anchor="middle" x="2318.57" y="-684.61" font-family="Times,serif" font-size="14.00">B</text>
<polyline fill="none" stroke="black" points="2305.69,-677.41 2331.44,-677.41"/>
<text text-anchor="middle" x="2318.57" y="-660.11" font-family="Times,serif" font-size="14.00">S</text>
<polyline fill="none" stroke="black" points="2331.44,-652.91 2331.44,-726.41"/>
<text text-anchor="middle" x="2355.19" y="-692.86" font-family="Times,serif" font-size="14.00">$369</text>
<text text-anchor="middle" x="2355.19" y="-676.36" font-family="Times,serif" font-size="14.00">$mux</text>
<polyline fill="none" stroke="black" points="2378.94,-652.91 2378.94,-726.41"/>
<text text-anchor="middle" x="2391.82" y="-684.61" font-family="Times,serif" font-size="14.00">Y</text>
</g>
<!-- n16&#45;&gt;c44 -->
<g id="edge25" class="edge">
<title>n16:e&#45;&gt;c44:w</title>
<path fill="none" stroke="black" d="M866.18,-678.66C1032.93,-678.66 1063.41,-769.66 1230.16,-769.66 1230.16,-769.66 1230.16,-769.66 2103.07,-769.66 2200.54,-769.66 2204.13,-672.71 2294.26,-665.13"/>
<polygon fill="black" stroke="black" points="2294.33,-668.63 2304.18,-664.73 2294.05,-661.64 2294.33,-668.63"/>
</g>
<!-- n17 -->
<g id="node6" class="node">
<title>n17</title>
<polygon fill="none" stroke="black" points="356.61,-718.21 356.61,-733.12 340.79,-743.66 318.42,-743.66 302.61,-733.12 302.61,-718.21 318.42,-707.66 340.79,-707.66 356.61,-718.21"/>
<text text-anchor="middle" x="329.61" y="-720.61" font-family="Times,serif" font-size="14.00">clk</text>
</g>
<!-- c40 -->
<g id="node30" class="node">
<title>c40</title>
<polygon fill="none" stroke="black" points="1175.28,-457.16 1175.28,-506.16 1287.03,-506.16 1287.03,-457.16 1175.28,-457.16"/>
<text text-anchor="middle" x="1196.78" y="-488.86" font-family="Times,serif" font-size="14.00">CLK</text>
<polyline fill="none" stroke="black" points="1175.28,-481.66 1218.28,-481.66"/>
<text text-anchor="middle" x="1196.78" y="-464.36" font-family="Times,serif" font-size="14.00">D</text>
<polyline fill="none" stroke="black" points="1218.28,-457.16 1218.28,-506.16"/>
<text text-anchor="middle" x="1239.78" y="-484.86" font-family="Times,serif" font-size="14.00">$543</text>
<text text-anchor="middle" x="1239.78" y="-468.36" font-family="Times,serif" font-size="14.00">$dff</text>
<polyline fill="none" stroke="black" points="1261.28,-457.16 1261.28,-506.16"/>
<text text-anchor="middle" x="1274.16" y="-476.86" font-family="Times,serif" font-size="14.00">Q</text>
</g>
<!-- n17&#45;&gt;c40 -->
<g id="edge26" class="edge">
<title>n17:e&#45;&gt;c40:w</title>
<path fill="none" stroke="black" d="M357.61,-725.66C525.53,-725.66 567.46,-731.66 735.38,-731.66 735.38,-731.66 735.38,-731.66 1069.43,-731.66 1181.13,-731.66 1068.06,-510.1 1163.95,-494.53"/>
<polygon fill="black" stroke="black" points="1164.07,-498.03 1173.78,-493.78 1163.54,-491.05 1164.07,-498.03"/>
</g>
<!-- n17&#45;&gt;c41 -->
<g id="edge27" class="edge">
<title>n17:e&#45;&gt;c41:w</title>
<path fill="none" stroke="black" d="M357.61,-725.66C398.29,-725.66 406,-696.67 440.76,-691.46"/>
<polygon fill="black" stroke="black" points="440.67,-694.98 450.39,-690.77 440.17,-687.99 440.67,-694.98"/>
</g>
<!-- n18 -->
<g id="node7" class="node">
<title>n18</title>
<polygon fill="none" stroke="black" points="148.28,-806.21 148.28,-821.12 123.51,-831.66 88.48,-831.66 63.71,-821.12 63.71,-806.21 88.48,-795.66 123.51,-795.66 148.28,-806.21"/>
<text text-anchor="middle" x="105.99" y="-808.61" font-family="Times,serif" font-size="14.00">in_addr</text>
</g>
<!-- c25 -->
<g id="node11" class="node">
<title>c25</title>
<polygon fill="none" stroke="black" points="282.73,-762.16 282.73,-811.16 376.48,-811.16 376.48,-762.16 282.73,-762.16"/>
<text text-anchor="middle" x="295.61" y="-793.86" font-family="Times,serif" font-size="14.00">A</text>
<polyline fill="none" stroke="black" points="282.73,-786.66 308.48,-786.66"/>
<text text-anchor="middle" x="295.61" y="-769.36" font-family="Times,serif" font-size="14.00">B</text>
<polyline fill="none" stroke="black" points="308.48,-762.16 308.48,-811.16"/>
<text text-anchor="middle" x="329.61" y="-789.86" font-family="Times,serif" font-size="14.00">$99</text>
<text text-anchor="middle" x="329.61" y="-773.36" font-family="Times,serif" font-size="14.00">$add</text>
<polyline fill="none" stroke="black" points="350.73,-762.16 350.73,-811.16"/>
<text text-anchor="middle" x="363.61" y="-781.86" font-family="Times,serif" font-size="14.00">Y</text>
</g>
<!-- n18&#45;&gt;c25 -->
<g id="edge28" class="edge">
<title>n18:e&#45;&gt;c25:w</title>
<path fill="none" stroke="black" stroke-width="3" d="M149.99,-813.66C204.84,-813.66 220.63,-800.64 270.14,-798.86"/>
<polygon fill="black" stroke="black" stroke-width="3" points="267.13,-802.42 277.07,-798.74 267.01,-795.42 267.13,-802.42"/>
</g>
<!-- n19 -->
<g id="node8" class="node">
<title>n19</title>
<polygon fill="none" stroke="black" points="140.53,-752.21 140.53,-767.12 120.3,-777.66 91.69,-777.66 71.46,-767.12 71.46,-752.21 91.69,-741.66 120.3,-741.66 140.53,-752.21"/>
<text text-anchor="middle" x="105.99" y="-754.61" font-family="Times,serif" font-size="14.00">offset</text>
</g>
<!-- n19&#45;&gt;c25 -->
<g id="edge29" class="edge">
<title>n19:e&#45;&gt;c25:w</title>
<path fill="none" stroke="black" stroke-width="3" d="M141.99,-759.66C200.38,-759.66 217.09,-772.79 270.11,-774.48"/>
<polygon fill="black" stroke="black" stroke-width="3" points="267.01,-777.94 277.07,-774.59 267.12,-770.94 267.01,-777.94"/>
</g>
<!-- n20 -->
<g id="node9" class="node">
<title>n20</title>
<polygon fill="none" stroke="black" points="1892.44,-557.21 1892.44,-572.12 1861.83,-582.66 1818.54,-582.66 1787.93,-572.12 1787.93,-557.21 1818.54,-546.66 1861.83,-546.66 1892.44,-557.21"/>
<text text-anchor="middle" x="1840.18" y="-559.61" font-family="Times,serif" font-size="14.00">prediction</text>
</g>
<!-- n21 -->
<g id="node10" class="node">
<title>n21</title>
<polygon fill="none" stroke="black" points="1350.03,-499.66 1323.03,-481.66 1350.03,-463.66 1377.03,-481.66 1350.03,-499.66"/>
<text text-anchor="middle" x="1350.03" y="-476.61" font-family="Times,serif" font-size="14.00">s</text>
</g>
<!-- x0 -->
<g id="node13" class="node">
<title>x0</title>
<path fill="none" stroke="black" d="M1482.61,-463.66C1482.61,-463.66 1521.11,-463.66 1521.11,-463.66 1527.11,-463.66 1533.11,-469.66 1533.11,-475.66 1533.11,-475.66 1533.11,-487.66 1533.11,-487.66 1533.11,-493.66 1527.11,-499.66 1521.11,-499.66 1521.11,-499.66 1482.61,-499.66 1482.61,-499.66 1476.61,-499.66 1470.61,-493.66 1470.61,-487.66 1470.61,-487.66 1470.61,-475.66 1470.61,-475.66 1470.61,-469.66 1476.61,-463.66 1482.61,-463.66"/>
<text text-anchor="middle" x="1501.86" y="-476.86" font-family="Times,serif" font-size="14.00">1:1 &#45; 0:0</text>
</g>
<!-- n21&#45;&gt;x0 -->
<g id="edge33" class="edge">
<title>n21:e&#45;&gt;x0:w</title>
<path fill="none" stroke="black" d="M1377.03,-481.66C1414.26,-481.66 1426.29,-481.66 1458.6,-481.66"/>
<polygon fill="black" stroke="black" points="1458.34,-485.16 1468.34,-481.66 1458.34,-478.16 1458.34,-485.16"/>
</g>
<!-- x1 -->
<g id="node14" class="node">
<title>x1</title>
<path fill="none" stroke="black" d="M1482.61,-408.66C1482.61,-408.66 1521.11,-408.66 1521.11,-408.66 1527.11,-408.66 1533.11,-414.66 1533.11,-420.66 1533.11,-420.66 1533.11,-432.66 1533.11,-432.66 1533.11,-438.66 1527.11,-444.66 1521.11,-444.66 1521.11,-444.66 1482.61,-444.66 1482.61,-444.66 1476.61,-444.66 1470.61,-438.66 1470.61,-432.66 1470.61,-432.66 1470.61,-420.66 1470.61,-420.66 1470.61,-414.66 1476.61,-408.66 1482.61,-408.66"/>
<text text-anchor="middle" x="1501.86" y="-421.86" font-family="Times,serif" font-size="14.00">0:0 &#45; 0:0</text>
</g>
<!-- n21&#45;&gt;x1 -->
<g id="edge34" class="edge">
<title>n21:e&#45;&gt;x1:w</title>
<path fill="none" stroke="black" d="M1377.03,-481.66C1397.3,-481.66 1395.78,-464.3 1413.03,-453.66 1433.21,-441.23 1439.92,-430.47 1458.52,-427.49"/>
<polygon fill="black" stroke="black" points="1458.63,-430.99 1468.35,-426.77 1458.12,-424.01 1458.63,-430.99"/>
</g>
<!-- x2 -->
<g id="node16" class="node">
<title>x2</title>
<path fill="none" stroke="black" d="M1482.61,-243.66C1482.61,-243.66 1521.11,-243.66 1521.11,-243.66 1527.11,-243.66 1533.11,-249.66 1533.11,-255.66 1533.11,-255.66 1533.11,-267.66 1533.11,-267.66 1533.11,-273.66 1527.11,-279.66 1521.11,-279.66 1521.11,-279.66 1482.61,-279.66 1482.61,-279.66 1476.61,-279.66 1470.61,-273.66 1470.61,-267.66 1470.61,-267.66 1470.61,-255.66 1470.61,-255.66 1470.61,-249.66 1476.61,-243.66 1482.61,-243.66"/>
<text text-anchor="middle" x="1501.86" y="-256.86" font-family="Times,serif" font-size="14.00">0:0 &#45; 0:0</text>
</g>
<!-- n21&#45;&gt;x2 -->
<g id="edge35" class="edge">
<title>n21:e&#45;&gt;x2:w</title>
<path fill="none" stroke="black" d="M1377.03,-481.66C1420.66,-481.66 1386.43,-323.24 1413.03,-288.66 1427.55,-269.79 1438.27,-263.48 1458.4,-262.02"/>
<polygon fill="black" stroke="black" points="1458.46,-265.52 1468.34,-261.71 1458.24,-258.53 1458.46,-265.52"/>
</g>
<!-- x3 -->
<g id="node18" class="node">
<title>x3</title>
<path fill="none" stroke="black" d="M1820.93,-665.66C1820.93,-665.66 1859.43,-665.66 1859.43,-665.66 1865.43,-665.66 1871.43,-671.66 1871.43,-677.66 1871.43,-677.66 1871.43,-689.66 1871.43,-689.66 1871.43,-695.66 1865.43,-701.66 1859.43,-701.66 1859.43,-701.66 1820.93,-701.66 1820.93,-701.66 1814.93,-701.66 1808.93,-695.66 1808.93,-689.66 1808.93,-689.66 1808.93,-677.66 1808.93,-677.66 1808.93,-671.66 1814.93,-665.66 1820.93,-665.66"/>
<text text-anchor="middle" x="1840.18" y="-678.86" font-family="Times,serif" font-size="14.00">1:1 &#45; 0:0</text>
</g>
<!-- n21&#45;&gt;x3 -->
<g id="edge36" class="edge">
<title>n21:e&#45;&gt;x3:w</title>
<path fill="none" stroke="black" d="M1377.03,-481.66C1463.85,-481.66 1346.93,-617.38 1413.03,-673.66 1477.23,-728.33 1701.37,-687.26 1796.92,-683.88"/>
<polygon fill="black" stroke="black" points="1796.74,-687.38 1806.67,-683.69 1796.61,-680.39 1796.74,-687.38"/>
</g>
<!-- x4 -->
<g id="node21" class="node">
<title>x4</title>
<path fill="none" stroke="black" d="M1482.61,-353.66C1482.61,-353.66 1521.11,-353.66 1521.11,-353.66 1527.11,-353.66 1533.11,-359.66 1533.11,-365.66 1533.11,-365.66 1533.11,-377.66 1533.11,-377.66 1533.11,-383.66 1527.11,-389.66 1521.11,-389.66 1521.11,-389.66 1482.61,-389.66 1482.61,-389.66 1476.61,-389.66 1470.61,-383.66 1470.61,-377.66 1470.61,-377.66 1470.61,-365.66 1470.61,-365.66 1470.61,-359.66 1476.61,-353.66 1482.61,-353.66"/>
<text text-anchor="middle" x="1501.86" y="-366.86" font-family="Times,serif" font-size="14.00">1:1 &#45; 0:0</text>
</g>
<!-- n21&#45;&gt;x4 -->
<g id="edge37" class="edge">
<title>n21:e&#45;&gt;x4:w</title>
<path fill="none" stroke="black" d="M1377.03,-481.66C1417.24,-481.66 1385.09,-427.58 1413.03,-398.66 1429.58,-381.54 1438.87,-374 1458.54,-372.14"/>
<polygon fill="black" stroke="black" points="1458.5,-375.64 1468.34,-371.73 1458.2,-368.65 1458.5,-375.64"/>
</g>
<!-- x5 -->
<g id="node23" class="node">
<title>x5</title>
<path fill="none" stroke="black" d="M1482.61,-573.66C1482.61,-573.66 1521.11,-573.66 1521.11,-573.66 1527.11,-573.66 1533.11,-579.66 1533.11,-585.66 1533.11,-585.66 1533.11,-597.66 1533.11,-597.66 1533.11,-603.66 1527.11,-609.66 1521.11,-609.66 1521.11,-609.66 1482.61,-609.66 1482.61,-609.66 1476.61,-609.66 1470.61,-603.66 1470.61,-597.66 1470.61,-597.66 1470.61,-585.66 1470.61,-585.66 1470.61,-579.66 1476.61,-573.66 1482.61,-573.66"/>
<text text-anchor="middle" x="1501.86" y="-586.86" font-family="Times,serif" font-size="14.00">1:1 &#45; 0:0</text>
</g>
<!-- n21&#45;&gt;x5 -->
<g id="edge38" class="edge">
<title>n21:e&#45;&gt;x5:w</title>
<path fill="none" stroke="black" d="M1377.03,-481.66C1416.84,-481.66 1385.52,-534.9 1413.03,-563.66 1429.61,-580.99 1438.74,-589.11 1458.48,-591.14"/>
<polygon fill="black" stroke="black" points="1458.19,-594.63 1468.34,-591.59 1458.51,-587.64 1458.19,-594.63"/>
</g>
<!-- x6 -->
<g id="node25" class="node">
<title>x6</title>
<path fill="none" stroke="black" d="M1482.61,-628.66C1482.61,-628.66 1521.11,-628.66 1521.11,-628.66 1527.11,-628.66 1533.11,-634.66 1533.11,-640.66 1533.11,-640.66 1533.11,-652.66 1533.11,-652.66 1533.11,-658.66 1527.11,-664.66 1521.11,-664.66 1521.11,-664.66 1482.61,-664.66 1482.61,-664.66 1476.61,-664.66 1470.61,-658.66 1470.61,-652.66 1470.61,-652.66 1470.61,-640.66 1470.61,-640.66 1470.61,-634.66 1476.61,-628.66 1482.61,-628.66"/>
<text text-anchor="middle" x="1501.86" y="-641.86" font-family="Times,serif" font-size="14.00">0:0 &#45; 0:0</text>
</g>
<!-- n21&#45;&gt;x6 -->
<g id="edge39" class="edge">
<title>n21:e&#45;&gt;x6:w</title>
<path fill="none" stroke="black" d="M1377.03,-481.66C1439.99,-481.66 1373.21,-569.91 1413.03,-618.66 1428.2,-637.23 1438.33,-644.48 1458.38,-646.22"/>
<polygon fill="black" stroke="black" points="1458.22,-649.72 1468.34,-646.61 1458.48,-642.72 1458.22,-649.72"/>
</g>
<!-- x7 -->
<g id="node33" class="node">
<title>x7</title>
<path fill="none" stroke="black" d="M1482.61,-298.66C1482.61,-298.66 1521.11,-298.66 1521.11,-298.66 1527.11,-298.66 1533.11,-304.66 1533.11,-310.66 1533.11,-310.66 1533.11,-322.66 1533.11,-322.66 1533.11,-328.66 1527.11,-334.66 1521.11,-334.66 1521.11,-334.66 1482.61,-334.66 1482.61,-334.66 1476.61,-334.66 1470.61,-328.66 1470.61,-322.66 1470.61,-322.66 1470.61,-310.66 1470.61,-310.66 1470.61,-304.66 1476.61,-298.66 1482.61,-298.66"/>
<text text-anchor="middle" x="1501.86" y="-311.86" font-family="Times,serif" font-size="14.00">1:1 &#45; 0:0</text>
</g>
<!-- n21&#45;&gt;x7 -->
<g id="edge40" class="edge">
<title>n21:e&#45;&gt;x7:w</title>
<path fill="none" stroke="black" d="M1377.03,-481.66C1440.42,-481.66 1372.63,-392.5 1413.03,-343.66 1428.21,-325.32 1438.47,-318.64 1458.45,-317.06"/>
<polygon fill="black" stroke="black" points="1458.47,-320.56 1468.34,-316.72 1458.23,-313.56 1458.47,-320.56"/>
</g>
<!-- x9 -->
<g id="node36" class="node">
<title>x9</title>
<path fill="none" stroke="black" d="M2082.82,-798.66C2082.82,-798.66 2121.32,-798.66 2121.32,-798.66 2127.32,-798.66 2133.32,-804.66 2133.32,-810.66 2133.32,-810.66 2133.32,-822.66 2133.32,-822.66 2133.32,-828.66 2127.32,-834.66 2121.32,-834.66 2121.32,-834.66 2082.82,-834.66 2082.82,-834.66 2076.82,-834.66 2070.82,-828.66 2070.82,-822.66 2070.82,-822.66 2070.82,-810.66 2070.82,-810.66 2070.82,-804.66 2076.82,-798.66 2082.82,-798.66"/>
<text text-anchor="middle" x="2102.07" y="-811.86" font-family="Times,serif" font-size="14.00">0:0 &#45; 0:0</text>
</g>
<!-- n21&#45;&gt;x9 -->
<g id="edge41" class="edge">
<title>n21:e&#45;&gt;x9:w</title>
<path fill="none" stroke="black" d="M1377.03,-481.66C1426.79,-481.66 1376.87,-668.49 1413.03,-702.66 1502.44,-787.16 1565.28,-731.66 1688.3,-731.66 1688.3,-731.66 1688.3,-731.66 1841.18,-731.66 1945.78,-731.66 1960.57,-810.63 2058.68,-816.34"/>
<polygon fill="black" stroke="black" points="2058.46,-819.83 2068.56,-816.62 2058.66,-812.84 2058.46,-819.83"/>
</g>
<!-- c25&#45;&gt;n13 -->
<g id="edge20" class="edge">
<title>c25:e&#45;&gt;n13:w</title>
<path fill="none" stroke="black" stroke-width="3" d="M377.61,-786.66C404.32,-786.66 413.74,-786.66 435.72,-786.66"/>
<polygon fill="black" stroke="black" stroke-width="3" points="432.69,-790.16 442.69,-786.66 432.69,-783.16 432.69,-790.16"/>
</g>
<!-- c26 -->
<g id="node12" class="node">
<title>c26</title>
<polygon fill="none" stroke="black" points="1642.43,-414.16 1642.43,-463.16 1736.18,-463.16 1736.18,-414.16 1642.43,-414.16"/>
<text text-anchor="middle" x="1655.3" y="-445.86" font-family="Times,serif" font-size="14.00">A</text>
<polyline fill="none" stroke="black" points="1642.43,-438.66 1668.18,-438.66"/>
<text text-anchor="middle" x="1655.3" y="-421.36" font-family="Times,serif" font-size="14.00">B</text>
<polyline fill="none" stroke="black" points="1668.18,-414.16 1668.18,-463.16"/>
<text text-anchor="middle" x="1689.3" y="-441.86" font-family="Times,serif" font-size="14.00">$87</text>
<text text-anchor="middle" x="1689.3" y="-425.36" font-family="Times,serif" font-size="14.00">$and</text>
<polyline fill="none" stroke="black" points="1710.43,-414.16 1710.43,-463.16"/>
<text text-anchor="middle" x="1723.3" y="-433.86" font-family="Times,serif" font-size="14.00">Y</text>
</g>
<!-- c33 -->
<g id="node26" class="node">
<title>c33</title>
<polygon fill="none" stroke="black" points="465.03,-131.16 465.03,-180.16 552.78,-180.16 552.78,-131.16 465.03,-131.16"/>
<text text-anchor="middle" x="477.9" y="-162.86" font-family="Times,serif" font-size="14.00">A</text>
<polyline fill="none" stroke="black" points="465.03,-155.66 490.78,-155.66"/>
<text text-anchor="middle" x="477.9" y="-138.36" font-family="Times,serif" font-size="14.00">B</text>
<polyline fill="none" stroke="black" points="490.78,-131.16 490.78,-180.16"/>
<text text-anchor="middle" x="508.9" y="-158.86" font-family="Times,serif" font-size="14.00">$89</text>
<text text-anchor="middle" x="508.9" y="-142.36" font-family="Times,serif" font-size="14.00">$or</text>
<polyline fill="none" stroke="black" points="527.03,-131.16 527.03,-180.16"/>
<text text-anchor="middle" x="539.9" y="-150.86" font-family="Times,serif" font-size="14.00">Y</text>
</g>
<!-- c26&#45;&gt;c33 -->
<g id="edge30" class="edge">
<title>c26:e&#45;&gt;c33:w</title>
<path fill="none" stroke="black" d="M1737.3,-438.66C1752.42,-438.66 1730.39,-534.03 1642.43,-463.66 1560.61,-398.21 1668.62,-303.69 1590.68,-233.66 1553.06,-199.86 1189.06,-181.66 1138.48,-181.66 950.68,-181.66 950.68,-181.66 950.68,-181.66 734.78,-181.66 623.17,-327.52 464.9,-180.66 464.37,-180.17 463.87,-179.6 463.4,-178.97"/>
<polygon fill="black" stroke="black" points="466.89,-179.32 463.84,-169.18 459.9,-179.01 466.89,-179.32"/>
</g>
<!-- x0&#45;&gt;c26 -->
<g id="edge1" class="edge">
<title>x0:e&#45;&gt;c26:w</title>
<path fill="none" stroke="black" d="M1546.8,-480.9C1581.51,-476.61 1593.77,-455.62 1628.57,-451.4"/>
<polygon fill="none" stroke="black" points="1546.73,-480.9 1540.98,-485.25 1534.76,-481.61 1540.51,-477.26 1546.73,-480.9"/>
<polygon fill="none" stroke="black" points="1628.42,-451.41 1634.18,-447.07 1640.4,-450.72 1634.64,-455.06 1628.42,-451.41"/>
</g>
<!-- x1&#45;&gt;c26 -->
<g id="edge2" class="edge">
<title>x1:e&#45;&gt;c26:w</title>
<path fill="none" stroke="black" d="M1546.89,-426.66C1580.34,-426.66 1595.01,-426.66 1628.58,-426.66"/>
<polygon fill="none" stroke="black" points="1546.76,-426.66 1540.76,-430.66 1534.76,-426.66 1540.76,-422.66 1546.76,-426.66"/>
<polygon fill="none" stroke="black" points="1628.4,-426.66 1634.4,-422.66 1640.4,-426.66 1634.4,-430.66 1628.4,-426.66"/>
</g>
<!-- c27&#45;&gt;c33 -->
<g id="edge42" class="edge">
<title>c27:e&#45;&gt;c33:w</title>
<path fill="none" stroke="black" d="M377.61,-143.66C411.92,-143.66 423.21,-143.66 452.66,-143.66"/>
<polygon fill="black" stroke="black" points="452.39,-147.16 462.39,-143.66 452.39,-140.16 452.39,-147.16"/>
</g>
<!-- x2&#45;&gt;c27 -->
<g id="edge3" class="edge">
<title>x2:e&#45;&gt;c27:w</title>
<path fill="none" stroke="black" d="M1537.06,-274.13C1536,-276.41 1534.54,-278.57 1532.86,-280.16 1512.77,-299.19 1498.24,-281.46 1470.61,-280.16 1364.28,-275.16 1338.61,-257.66 1232.16,-257.66 735.38,-257.66 735.38,-257.66 735.38,-257.66 534.5,-257.66 423.48,-319.32 290.02,-165.6"/>
<polygon fill="none" stroke="black" points="1537.07,-274.16 1531.7,-269.34 1534.08,-262.54 1539.45,-267.35 1537.07,-274.16"/>
<polygon fill="none" stroke="black" points="289.94,-165.51 283.01,-163.52 282.19,-156.35 289.12,-158.35 289.94,-165.51"/>
</g>
<!-- c28 -->
<g id="node17" class="node">
<title>c28</title>
<polygon fill="none" stroke="black" points="1928.44,-640.16 1928.44,-689.16 2022.19,-689.16 2022.19,-640.16 1928.44,-640.16"/>
<text text-anchor="middle" x="1941.32" y="-671.86" font-family="Times,serif" font-size="14.00">A</text>
<polyline fill="none" stroke="black" points="1928.44,-664.66 1954.19,-664.66"/>
<text text-anchor="middle" x="1941.32" y="-647.36" font-family="Times,serif" font-size="14.00">B</text>
<polyline fill="none" stroke="black" points="1954.19,-640.16 1954.19,-689.16"/>
<text text-anchor="middle" x="1975.32" y="-667.86" font-family="Times,serif" font-size="14.00">$93</text>
<text text-anchor="middle" x="1975.32" y="-651.36" font-family="Times,serif" font-size="14.00">$and</text>
<polyline fill="none" stroke="black" points="1996.44,-640.16 1996.44,-689.16"/>
<text text-anchor="middle" x="2009.32" y="-659.86" font-family="Times,serif" font-size="14.00">Y</text>
</g>
<!-- c35 -->
<g id="node28" class="node">
<title>c35</title>
<polygon fill="none" stroke="black" points="2058.19,-606.16 2058.19,-655.16 2145.94,-655.16 2145.94,-606.16 2058.19,-606.16"/>
<text text-anchor="middle" x="2071.07" y="-637.86" font-family="Times,serif" font-size="14.00">A</text>
<polyline fill="none" stroke="black" points="2058.19,-630.66 2083.94,-630.66"/>
<text text-anchor="middle" x="2071.07" y="-613.36" font-family="Times,serif" font-size="14.00">B</text>
<polyline fill="none" stroke="black" points="2083.94,-606.16 2083.94,-655.16"/>
<text text-anchor="middle" x="2102.07" y="-633.86" font-family="Times,serif" font-size="14.00">$96</text>
<text text-anchor="middle" x="2102.07" y="-617.36" font-family="Times,serif" font-size="14.00">$or</text>
<polyline fill="none" stroke="black" points="2120.19,-606.16 2120.19,-655.16"/>
<text text-anchor="middle" x="2133.07" y="-625.86" font-family="Times,serif" font-size="14.00">Y</text>
</g>
<!-- c28&#45;&gt;c35 -->
<g id="edge46" class="edge">
<title>c28:e&#45;&gt;c35:w</title>
<path fill="none" stroke="black" d="M2022.19,-664.66C2036.26,-664.66 2038.93,-652.29 2047.29,-646.1"/>
<polygon fill="black" stroke="black" points="2048.27,-649.46 2056.75,-643.12 2046.16,-642.79 2048.27,-649.46"/>
</g>
<!-- x3&#45;&gt;c28 -->
<g id="edge4" class="edge">
<title>x3:e&#45;&gt;c28:w</title>
<path fill="none" stroke="black" d="M1885.02,-682.97C1896.68,-681.62 1903.96,-678.7 1915.63,-677.36"/>
<polygon fill="none" stroke="black" points="1885.07,-682.96 1879.29,-687.28 1873.09,-683.61 1878.86,-679.3 1885.07,-682.96"/>
<polygon fill="none" stroke="black" points="1915.56,-677.36 1921.34,-673.04 1927.54,-676.71 1921.77,-681.03 1915.56,-677.36"/>
</g>
<!-- c29&#45;&gt;c35 -->
<g id="edge47" class="edge">
<title>c29:e&#45;&gt;c35:w</title>
<path fill="none" stroke="black" d="M2022.19,-596.66C2036.26,-596.66 2038.93,-609.04 2047.29,-615.23"/>
<polygon fill="black" stroke="black" points="2046.16,-618.54 2056.75,-618.21 2048.27,-611.86 2046.16,-618.54"/>
</g>
<!-- n4 -->
<g id="node39" class="node">
<title>n4</title>
<ellipse fill="black" stroke="black" cx="1840.18" cy="-274.66" rx="1.8" ry="1.8"/>
</g>
<!-- c30&#45;&gt;n4 -->
<g id="edge43" class="edge">
<title>c30:e&#45;&gt;n4:w</title>
<path fill="none" stroke="black" d="M1737.3,-274.66C1777.71,-274.66 1790.53,-274.66 1825.98,-274.66"/>
<polygon fill="black" stroke="black" points="1825.67,-278.16 1835.67,-274.66 1825.67,-271.16 1825.67,-278.16"/>
</g>
<!-- x4&#45;&gt;c30 -->
<g id="edge5" class="edge">
<title>x4:e&#45;&gt;c30:w</title>
<path fill="none" stroke="black" d="M1546.63,-370.72C1564.64,-367.72 1572.13,-357.8 1590.68,-343.66 1613.52,-326.25 1609.67,-297.4 1628.6,-289.02"/>
<polygon fill="none" stroke="black" points="1546.72,-370.71 1541.03,-375.14 1534.75,-371.6 1540.44,-367.17 1546.72,-370.71"/>
<polygon fill="none" stroke="black" points="1628.62,-289.01 1633.79,-283.99 1640.42,-286.83 1635.24,-291.85 1628.62,-289.01"/>
</g>
<!-- c31&#45;&gt;n20 -->
<g id="edge31" class="edge">
<title>c31:e&#45;&gt;n20:w</title>
<path fill="none" stroke="black" d="M1737.3,-564.66C1755.41,-564.66 1762.59,-564.66 1776.42,-564.66"/>
<polygon fill="black" stroke="black" points="1776.41,-568.16 1786.41,-564.66 1776.41,-561.16 1776.41,-568.16"/>
</g>
<!-- x5&#45;&gt;c31 -->
<g id="edge6" class="edge">
<title>x5:e&#45;&gt;c31:w</title>
<path fill="none" stroke="black" d="M1546.5,-591.29C1580.46,-589.23 1594.56,-579.15 1628.43,-577.05"/>
<polygon fill="none" stroke="black" points="1546.75,-591.29 1540.87,-595.46 1534.76,-591.64 1540.64,-587.46 1546.75,-591.29"/>
<polygon fill="none" stroke="black" points="1628.41,-577.05 1634.28,-572.87 1640.4,-576.69 1634.52,-580.87 1628.41,-577.05"/>
</g>
<!-- c32 -->
<g id="node24" class="node">
<title>c32</title>
<polygon fill="none" stroke="black" points="1626.68,-624.16 1626.68,-665.16 1751.93,-665.16 1751.93,-624.16 1626.68,-624.16"/>
<text text-anchor="middle" x="1639.55" y="-639.86" font-family="Times,serif" font-size="14.00">A</text>
<polyline fill="none" stroke="black" points="1652.43,-624.16 1652.43,-665.16"/>
<text text-anchor="middle" x="1689.3" y="-647.86" font-family="Times,serif" font-size="14.00">$94</text>
<text text-anchor="middle" x="1689.3" y="-631.36" font-family="Times,serif" font-size="14.00">$logic_not</text>
<polyline fill="none" stroke="black" points="1726.18,-624.16 1726.18,-665.16"/>
<text text-anchor="middle" x="1739.05" y="-639.86" font-family="Times,serif" font-size="14.00">Y</text>
</g>
<!-- n7 -->
<g id="node40" class="node">
<title>n7</title>
<ellipse fill="black" stroke="black" cx="1840.18" cy="-644.66" rx="1.8" ry="1.8"/>
</g>
<!-- c32&#45;&gt;n7 -->
<g id="edge48" class="edge">
<title>c32:e&#45;&gt;n7:w</title>
<path fill="none" stroke="black" d="M1751.93,-644.66C1785.67,-644.66 1796.88,-644.66 1825.7,-644.66"/>
<polygon fill="black" stroke="black" points="1825.67,-648.16 1835.67,-644.66 1825.67,-641.16 1825.67,-648.16"/>
</g>
<!-- x6&#45;&gt;c32 -->
<g id="edge7" class="edge">
<title>x6:e&#45;&gt;c32:w</title>
<path fill="none" stroke="black" d="M1546.78,-646.59C1573.84,-646.28 1586.62,-645.05 1613.65,-644.74"/>
<polygon fill="none" stroke="black" points="1546.76,-646.59 1540.78,-650.63 1534.76,-646.66 1540.73,-642.63 1546.76,-646.59"/>
<polygon fill="none" stroke="black" points="1613.78,-644.74 1619.75,-640.7 1625.78,-644.67 1619.8,-648.7 1613.78,-644.74"/>
</g>
<!-- c34 -->
<g id="node27" class="node">
<title>c34</title>
<polygon fill="none" stroke="black" points="692.51,-104.16 692.51,-153.16 780.26,-153.16 780.26,-104.16 692.51,-104.16"/>
<text text-anchor="middle" x="705.38" y="-135.86" font-family="Times,serif" font-size="14.00">A</text>
<polyline fill="none" stroke="black" points="692.51,-128.66 718.26,-128.66"/>
<text text-anchor="middle" x="705.38" y="-111.36" font-family="Times,serif" font-size="14.00">B</text>
<polyline fill="none" stroke="black" points="718.26,-104.16 718.26,-153.16"/>
<text text-anchor="middle" x="736.38" y="-131.86" font-family="Times,serif" font-size="14.00">$91</text>
<text text-anchor="middle" x="736.38" y="-115.36" font-family="Times,serif" font-size="14.00">$or</text>
<polyline fill="none" stroke="black" points="754.51,-104.16 754.51,-153.16"/>
<text text-anchor="middle" x="767.38" y="-123.86" font-family="Times,serif" font-size="14.00">Y</text>
</g>
<!-- c33&#45;&gt;c34 -->
<g id="edge51" class="edge">
<title>c33:e&#45;&gt;c34:w</title>
<path fill="none" stroke="black" d="M553.9,-155.66C611.41,-155.66 627.85,-142.53 680.06,-140.84"/>
<polygon fill="black" stroke="black" points="679.93,-144.34 689.87,-140.69 679.81,-137.35 679.93,-144.34"/>
</g>
<!-- c34&#45;&gt;c43 -->
<g id="edge52" class="edge">
<title>c34:e&#45;&gt;c43:w</title>
<path fill="none" stroke="black" d="M781.38,-128.66C879.61,-128.66 806.27,-309.28 890.76,-323.75"/>
<polygon fill="black" stroke="black" points="890.43,-327.23 900.68,-324.54 890.99,-320.25 890.43,-327.23"/>
</g>
<!-- c36 -->
<g id="node29" class="node">
<title>c36</title>
<polygon fill="none" stroke="black" points="2181.94,-594.16 2181.94,-643.16 2269.69,-643.16 2269.69,-594.16 2181.94,-594.16"/>
<text text-anchor="middle" x="2194.82" y="-625.86" font-family="Times,serif" font-size="14.00">A</text>
<polyline fill="none" stroke="black" points="2181.94,-618.66 2207.69,-618.66"/>
<text text-anchor="middle" x="2194.82" y="-601.36" font-family="Times,serif" font-size="14.00">B</text>
<polyline fill="none" stroke="black" points="2207.69,-594.16 2207.69,-643.16"/>
<text text-anchor="middle" x="2225.82" y="-621.86" font-family="Times,serif" font-size="14.00">$98</text>
<text text-anchor="middle" x="2225.82" y="-605.36" font-family="Times,serif" font-size="14.00">$or</text>
<polyline fill="none" stroke="black" points="2243.94,-594.16 2243.94,-643.16"/>
<text text-anchor="middle" x="2256.82" y="-613.86" font-family="Times,serif" font-size="14.00">Y</text>
</g>
<!-- c35&#45;&gt;c36 -->
<g id="edge15" class="edge">
<title>c35:e&#45;&gt;c36:w</title>
<path fill="none" stroke="black" d="M2145.94,-630.66C2157.32,-630.66 2162.63,-630.66 2170.5,-630.66"/>
<polygon fill="black" stroke="black" points="2170.43,-634.16 2180.43,-630.66 2170.43,-627.16 2170.43,-634.16"/>
</g>
<!-- c36&#45;&gt;c44 -->
<g id="edge16" class="edge">
<title>c36:e&#45;&gt;c44:w</title>
<path fill="none" stroke="black" d="M2269.69,-618.66C2300.37,-618.66 2278.31,-672.06 2294.98,-686.24"/>
<polygon fill="black" stroke="black" points="2293.66,-689.49 2304.25,-689.2 2295.79,-682.82 2293.66,-689.49"/>
</g>
<!-- c40&#45;&gt;n21 -->
<g id="edge32" class="edge">
<title>c40:e&#45;&gt;n21:w</title>
<path fill="none" stroke="black" d="M1287.03,-481.66C1298.41,-481.66 1303.72,-481.66 1311.59,-481.66"/>
<polygon fill="black" stroke="black" points="1311.52,-485.16 1321.52,-481.66 1311.52,-478.16 1311.52,-485.16"/>
</g>
<!-- c41&#45;&gt;n16 -->
<g id="edge23" class="edge">
<title>c41:e&#45;&gt;n16:w</title>
<path fill="none" stroke="black" d="M565.9,-678.66C579.46,-678.66 585.39,-678.66 595.14,-678.66"/>
<polygon fill="black" stroke="black" points="595.07,-682.16 605.07,-678.66 595.07,-675.16 595.07,-682.16"/>
</g>
<!-- x8 -->
<g id="node34" class="node">
<title>x8</title>
<path fill="none" stroke="black" d="M1049.18,-286.66C1049.18,-286.66 1087.68,-286.66 1087.68,-286.66 1093.68,-286.66 1099.68,-292.66 1099.68,-298.66 1099.68,-298.66 1099.68,-310.66 1099.68,-310.66 1099.68,-316.66 1093.68,-322.66 1087.68,-322.66 1087.68,-322.66 1049.18,-322.66 1049.18,-322.66 1043.18,-322.66 1037.18,-316.66 1037.18,-310.66 1037.18,-310.66 1037.18,-298.66 1037.18,-298.66 1037.18,-292.66 1043.18,-286.66 1049.18,-286.66"/>
<text text-anchor="middle" x="1068.43" y="-299.86" font-family="Times,serif" font-size="14.00">0:0 &#45; 1:1</text>
</g>
<!-- c43&#45;&gt;x8 -->
<g id="edge9" class="edge">
<title>c43:e&#45;&gt;x8:w</title>
<path fill="none" stroke="black" d="M1013.48,-320.42C1017.71,-317.03 1020.67,-312.29 1024.9,-308.9"/>
<polygon fill="none" stroke="black" points="1013.38,-320.45 1009.01,-326.19 1002.04,-324.37 1006.4,-318.63 1013.38,-320.45"/>
<polygon fill="none" stroke="black" points="1024.99,-308.87 1029.36,-303.13 1036.33,-304.96 1031.96,-310.69 1024.99,-308.87"/>
</g>
<!-- x7&#45;&gt;c43 -->
<g id="edge8" class="edge">
<title>x7:e&#45;&gt;c43:w</title>
<path fill="none" stroke="black" d="M1536.99,-329.06C1535.94,-331.35 1534.49,-333.53 1532.86,-335.16 1529.9,-338.12 1236.34,-351.66 1232.16,-351.66 1136.48,-351.66 1136.48,-351.66 1136.48,-351.66 1118.49,-351.66 957.03,-369.69 911.67,-356.16"/>
<polygon fill="none" stroke="black" points="1537.02,-329.17 1531.67,-324.33 1534.08,-317.54 1539.43,-322.37 1537.02,-329.17"/>
<polygon fill="none" stroke="black" points="911.79,-356.24 904.59,-356.62 901.46,-350.12 908.66,-349.74 911.79,-356.24"/>
</g>
<!-- n1 -->
<g id="node38" class="node">
<title>n1</title>
<ellipse fill="black" stroke="black" cx="1137.48" cy="-304.66" rx="1.8" ry="1.8"/>
</g>
<!-- x8&#45;&gt;n1 -->
<g id="edge13" class="edge">
<title>x8:e&#45;&gt;n1:w</title>
<path fill="none" stroke="black" d="M1099.68,-304.66C1111.06,-304.66 1116.37,-304.66 1124.24,-304.66"/>
<polygon fill="black" stroke="black" points="1124.17,-308.16 1134.17,-304.66 1124.17,-301.16 1124.17,-308.16"/>
</g>
<!-- x10 -->
<g id="node37" class="node">
<title>x10</title>
<path fill="none" stroke="black" d="M2452.69,-313.66C2452.69,-313.66 2491.19,-313.66 2491.19,-313.66 2497.19,-313.66 2503.19,-319.66 2503.19,-325.66 2503.19,-325.66 2503.19,-337.66 2503.19,-337.66 2503.19,-343.66 2497.19,-349.66 2491.19,-349.66 2491.19,-349.66 2452.69,-349.66 2452.69,-349.66 2446.69,-349.66 2440.69,-343.66 2440.69,-337.66 2440.69,-337.66 2440.69,-325.66 2440.69,-325.66 2440.69,-319.66 2446.69,-313.66 2452.69,-313.66"/>
<text text-anchor="middle" x="2471.94" y="-326.86" font-family="Times,serif" font-size="14.00">0:0 &#45; 0:0</text>
</g>
<!-- c44&#45;&gt;x10 -->
<g id="edge11" class="edge">
<title>c44:e&#45;&gt;x10:w</title>
<path fill="none" stroke="black" d="M2417.63,-688.76C2544.4,-669.59 2301.02,-351.8 2427.72,-332.57"/>
<polygon fill="none" stroke="black" points="2417.56,-688.76 2411.86,-693.17 2405.59,-689.6 2411.3,-685.19 2417.56,-688.76"/>
<polygon fill="none" stroke="black" points="2427.82,-332.57 2433.53,-328.16 2439.79,-331.73 2434.09,-336.14 2427.82,-332.57"/>
</g>
<!-- x9&#45;&gt;c44 -->
<g id="edge10" class="edge">
<title>x9:e&#45;&gt;c44:w</title>
<path fill="none" stroke="black" d="M2146.96,-816.73C2199.81,-817.19 2224.38,-819.15 2269.69,-783.66 2292.67,-765.67 2277.88,-728.92 2293.47,-717.87"/>
<polygon fill="none" stroke="black" points="2146.97,-816.73 2140.95,-820.7 2134.97,-816.67 2140.99,-812.7 2146.97,-816.73"/>
<polygon fill="none" stroke="black" points="2293.22,-717.94 2298,-712.55 2304.82,-714.89 2300.03,-720.29 2293.22,-717.94"/>
</g>
<!-- x10&#45;&gt;n1 -->
<g id="edge12" class="edge">
<title>x10:e&#45;&gt;n1:w</title>
<path fill="none" stroke="black" d="M2503.94,-331.66C2522.09,-331.66 2522.11,-394.09 2440.69,-350.16 2288.35,-267.98 2399.92,-24.66 2226.82,-24.66 1839.18,-24.66 1839.18,-24.66 1839.18,-24.66 1503.85,-24.66 1468.5,-242.68 1139.28,-306.46 1139.18,-306.48 1139.08,-306.5 1138.98,-306.53"/>
<polygon fill="black" stroke="black" points="1146.46,-305.83 1135.88,-305.24 1143.79,-312.3 1146.46,-305.83"/>
</g>
<!-- n1&#45;&gt;c40 -->
<g id="edge14" class="edge">
<title>n1:e&#45;&gt;c40:w</title>
<path fill="none" stroke="black" d="M1139.28,-304.66C1209.95,-304.66 1112.95,-450.89 1163.96,-468.03"/>
<polygon fill="black" stroke="black" points="1163.39,-471.48 1173.79,-469.45 1164.39,-464.56 1163.39,-471.48"/>
</g>
<!-- n4&#45;&gt;c34 -->
<g id="edge44" class="edge">
<title>n4:e&#45;&gt;c34:w</title>
<path fill="none" stroke="black" d="M1843.18,-274.66C1857.85,-274.66 1867.45,-283.62 1838.38,-276.46 1674.91,-236.23 1671.21,-100.66 1502.86,-100.66 1067.43,-100.66 1067.43,-100.66 1067.43,-100.66 984.09,-100.66 753.31,-46.79 692.38,-103.66 691.85,-104.16 691.35,-104.73 690.89,-105.36"/>
<polygon fill="black" stroke="black" points="687.38,-105.31 691.32,-115.15 694.37,-105.01 687.38,-105.31"/>
</g>
<!-- n4&#45;&gt;c36 -->
<g id="edge45" class="edge">
<title>n4:e&#45;&gt;c36:w</title>
<path fill="none" stroke="black" d="M1843.18,-274.66C1944.88,-274.66 2067.57,-583.73 2170.74,-605.46"/>
<polygon fill="black" stroke="black" points="2170.12,-608.91 2180.44,-606.5 2170.87,-601.95 2170.12,-608.91"/>
</g>
<!-- n7&#45;&gt;c28 -->
<g id="edge49" class="edge">
<title>n7:e&#45;&gt;c28:w</title>
<path fill="none" stroke="black" d="M1843.18,-644.66C1877.23,-644.66 1888.13,-651.06 1917.3,-652.42"/>
<polygon fill="black" stroke="black" points="1916.85,-655.91 1926.93,-652.63 1917.01,-648.91 1916.85,-655.91"/>
</g>
<!-- n7&#45;&gt;c29 -->
<g id="edge50" class="edge">
<title>n7:e&#45;&gt;c29:w</title>
<path fill="none" stroke="black" d="M1843.18,-644.66C1880.14,-644.66 1886.31,-615.6 1917.01,-609.7"/>
<polygon fill="black" stroke="black" points="1917.29,-613.19 1926.94,-608.8 1916.66,-606.22 1917.29,-613.19"/>
</g>
</g>
</svg>
