<?xml version="1.0" encoding="UTF-8" standalone="no"?>
<!DOCTYPE svg PUBLIC "-//W3C//DTD SVG 1.1//EN"
 "http://www.w3.org/Graphics/SVG/1.1/DTD/svg11.dtd">
<!-- Generated by graphviz version 9.0.0 (20230911.1827)
 -->
<!-- Title: branch_decision Pages: 1 -->
<svg width="983pt" height="257pt"
 viewBox="0.00 0.00 983.19 256.50" xmlns="http://www.w3.org/2000/svg" xmlns:xlink="http://www.w3.org/1999/xlink">
<g id="page0,1_graph0" class="graph" transform="scale(1 1) rotate(0) translate(4 252.5)">
<title>branch_decision</title>
<polygon fill="white" stroke="none" points="-4,4 -4,-252.5 979.19,-252.5 979.19,4 -4,4"/>
<text text-anchor="middle" x="487.59" y="-7.2" font-family="Times,serif" font-size="14.00">branch_decision</text>
<!-- n4 -->
<g id="node1" class="node">
<title>n4</title>
<polygon fill="none" stroke="black" points="113.93,-89.04 113.93,-103.96 90.14,-114.5 56.48,-114.5 32.68,-103.96 32.68,-89.04 56.48,-78.5 90.14,-78.5 113.93,-89.04"/>
<text text-anchor="middle" x="73.31" y="-91.45" font-family="Times,serif" font-size="14.00">Branch</text>
</g>
<!-- c15 -->
<g id="node9" class="node">
<title>c15</title>
<polygon fill="none" stroke="black" points="185.23,-45 185.23,-94 278.98,-94 278.98,-45 185.23,-45"/>
<text text-anchor="middle" x="198.11" y="-76.7" font-family="Times,serif" font-size="14.00">A</text>
<polyline fill="none" stroke="black" points="185.23,-69.5 210.98,-69.5"/>
<text text-anchor="middle" x="198.11" y="-52.2" font-family="Times,serif" font-size="14.00">B</text>
<polyline fill="none" stroke="black" points="210.98,-45 210.98,-94"/>
<text text-anchor="middle" x="232.11" y="-72.7" font-family="Times,serif" font-size="14.00">$48</text>
<text text-anchor="middle" x="232.11" y="-56.2" font-family="Times,serif" font-size="14.00">$and</text>
<polyline fill="none" stroke="black" points="253.23,-45 253.23,-94"/>
<text text-anchor="middle" x="266.11" y="-64.7" font-family="Times,serif" font-size="14.00">Y</text>
</g>
<!-- n4&#45;&gt;c15 -->
<g id="edge6" class="edge">
<title>n4:e&#45;&gt;c15:w</title>
<path fill="none" stroke="black" d="M115.31,-96.5C142.45,-96.5 150.72,-85.22 172.85,-82.22"/>
<polygon fill="black" stroke="black" points="172.84,-85.73 182.6,-81.6 172.39,-78.75 172.84,-85.73"/>
</g>
<!-- n5 -->
<g id="node2" class="node">
<title>n5</title>
<polygon fill="none" stroke="black" points="146.62,-35.04 146.62,-49.96 103.68,-60.5 42.94,-60.5 0,-49.96 0,-35.04 42.94,-24.5 103.68,-24.5 146.62,-35.04"/>
<text text-anchor="middle" x="73.31" y="-37.45" font-family="Times,serif" font-size="14.00">Branch_Enable</text>
</g>
<!-- n5&#45;&gt;c15 -->
<g id="edge7" class="edge">
<title>n5:e&#45;&gt;c15:w</title>
<path fill="none" stroke="black" d="M146.62,-42.5C159.94,-42.5 164.25,-50.76 172.93,-55.02"/>
<polygon fill="black" stroke="black" points="172.11,-58.43 182.63,-57.17 173.62,-51.59 172.11,-58.43"/>
</g>
<!-- n6 -->
<g id="node3" class="node">
<title>n6</title>
<polygon fill="none" stroke="black" points="975.19,-185.04 975.19,-199.96 915.04,-210.5 829.99,-210.5 769.85,-199.96 769.85,-185.04 829.99,-174.5 915.04,-174.5 975.19,-185.04"/>
<text text-anchor="middle" x="872.52" y="-187.45" font-family="Times,serif" font-size="14.00">Branch_Jump_Trigger</text>
</g>
<!-- n7 -->
<g id="node4" class="node">
<title>n7</title>
<polygon fill="none" stroke="black" points="427.49,-62.04 427.49,-76.96 399.8,-87.5 360.64,-87.5 332.95,-76.96 332.95,-62.04 360.64,-51.5 399.8,-51.5 427.49,-62.04"/>
<text text-anchor="middle" x="380.22" y="-64.45" font-family="Times,serif" font-size="14.00">Decision</text>
</g>
<!-- c14 -->
<g id="node8" class="node">
<title>c14</title>
<polygon fill="none" stroke="black" points="494.6,-199 494.6,-248 588.35,-248 588.35,-199 494.6,-199"/>
<text text-anchor="middle" x="507.47" y="-230.7" font-family="Times,serif" font-size="14.00">A</text>
<polyline fill="none" stroke="black" points="494.6,-223.5 520.35,-223.5"/>
<text text-anchor="middle" x="507.47" y="-206.2" font-family="Times,serif" font-size="14.00">B</text>
<polyline fill="none" stroke="black" points="520.35,-199 520.35,-248"/>
<text text-anchor="middle" x="541.47" y="-226.7" font-family="Times,serif" font-size="14.00">$45</text>
<text text-anchor="middle" x="541.47" y="-210.2" font-family="Times,serif" font-size="14.00">$and</text>
<polyline fill="none" stroke="black" points="562.6,-199 562.6,-248"/>
<text text-anchor="middle" x="575.47" y="-218.7" font-family="Times,serif" font-size="14.00">Y</text>
</g>
<!-- n7&#45;&gt;c14 -->
<g id="edge10" class="edge">
<title>n7:e&#45;&gt;c14:w</title>
<path fill="none" stroke="black" d="M429.22,-69.5C494.16,-69.5 432.93,-194.3 482.1,-209.91"/>
<polygon fill="black" stroke="black" points="481.58,-213.37 491.97,-211.29 482.56,-206.44 481.58,-213.37"/>
</g>
<!-- c18 -->
<g id="node12" class="node">
<title>c18</title>
<polygon fill="none" stroke="black" points="478.85,-47 478.85,-88 604.1,-88 604.1,-47 478.85,-47"/>
<text text-anchor="middle" x="491.72" y="-62.7" font-family="Times,serif" font-size="14.00">A</text>
<polyline fill="none" stroke="black" points="504.6,-47 504.6,-88"/>
<text text-anchor="middle" x="541.47" y="-70.7" font-family="Times,serif" font-size="14.00">$49</text>
<text text-anchor="middle" x="541.47" y="-54.2" font-family="Times,serif" font-size="14.00">$logic_not</text>
<polyline fill="none" stroke="black" points="578.35,-47 578.35,-88"/>
<text text-anchor="middle" x="591.22" y="-62.7" font-family="Times,serif" font-size="14.00">Y</text>
</g>
<!-- n7&#45;&gt;c18 -->
<g id="edge11" class="edge">
<title>n7:e&#45;&gt;c18:w</title>
<path fill="none" stroke="black" d="M429.22,-69.5C446.98,-69.5 454,-68.2 467.56,-67.7"/>
<polygon fill="black" stroke="black" points="467.4,-71.2 477.33,-67.53 467.27,-64.2 467.4,-71.2"/>
</g>
<!-- n8 -->
<g id="node5" class="node">
<title>n8</title>
<polygon fill="none" stroke="black" points="575.45,-155.04 575.45,-169.96 555.55,-180.5 527.4,-180.5 507.49,-169.96 507.49,-155.04 527.4,-144.5 555.55,-144.5 575.45,-155.04"/>
<text text-anchor="middle" x="541.47" y="-157.45" font-family="Times,serif" font-size="14.00">Jump</text>
</g>
<!-- c19 -->
<g id="node13" class="node">
<title>c19</title>
<polygon fill="none" stroke="black" points="643.1,-168 643.1,-217 730.85,-217 730.85,-168 643.1,-168"/>
<text text-anchor="middle" x="655.97" y="-199.7" font-family="Times,serif" font-size="14.00">A</text>
<polyline fill="none" stroke="black" points="643.1,-192.5 668.85,-192.5"/>
<text text-anchor="middle" x="655.97" y="-175.2" font-family="Times,serif" font-size="14.00">B</text>
<polyline fill="none" stroke="black" points="668.85,-168 668.85,-217"/>
<text text-anchor="middle" x="686.97" y="-195.7" font-family="Times,serif" font-size="14.00">$46</text>
<text text-anchor="middle" x="686.97" y="-179.2" font-family="Times,serif" font-size="14.00">$or</text>
<polyline fill="none" stroke="black" points="705.1,-168 705.1,-217"/>
<text text-anchor="middle" x="717.97" y="-187.7" font-family="Times,serif" font-size="14.00">Y</text>
</g>
<!-- n8&#45;&gt;c19 -->
<g id="edge12" class="edge">
<title>n8:e&#45;&gt;c19:w</title>
<path fill="none" stroke="black" d="M576.47,-162.5C602.42,-162.5 609.85,-175.79 630.58,-179.53"/>
<polygon fill="black" stroke="black" points="630.2,-183.01 640.46,-180.37 630.8,-176.04 630.2,-183.01"/>
</g>
<!-- n9 -->
<g id="node6" class="node">
<title>n9</title>
<polygon fill="none" stroke="black" points="928.1,-85.04 928.1,-99.96 895.54,-110.5 849.49,-110.5 816.93,-99.96 816.93,-85.04 849.49,-74.5 895.54,-74.5 928.1,-85.04"/>
<text text-anchor="middle" x="872.52" y="-87.45" font-family="Times,serif" font-size="14.00">Mispredict</text>
</g>
<!-- n10 -->
<g id="node7" class="node">
<title>n10</title>
<polygon fill="none" stroke="black" points="281.6,-158.04 281.6,-172.96 252.61,-183.5 211.61,-183.5 182.62,-172.96 182.62,-158.04 211.61,-147.5 252.61,-147.5 281.6,-158.04"/>
<text text-anchor="middle" x="232.11" y="-160.45" font-family="Times,serif" font-size="14.00">Predicted</text>
</g>
<!-- c16 -->
<g id="node10" class="node">
<title>c16</title>
<polygon fill="none" stroke="black" points="640.1,-68 640.1,-117 733.85,-117 733.85,-68 640.1,-68"/>
<text text-anchor="middle" x="652.97" y="-99.7" font-family="Times,serif" font-size="14.00">A</text>
<polyline fill="none" stroke="black" points="640.1,-92.5 665.85,-92.5"/>
<text text-anchor="middle" x="652.97" y="-75.2" font-family="Times,serif" font-size="14.00">B</text>
<polyline fill="none" stroke="black" points="665.85,-68 665.85,-117"/>
<text text-anchor="middle" x="686.97" y="-95.7" font-family="Times,serif" font-size="14.00">$50</text>
<text text-anchor="middle" x="686.97" y="-79.2" font-family="Times,serif" font-size="14.00">$and</text>
<polyline fill="none" stroke="black" points="708.1,-68 708.1,-117"/>
<text text-anchor="middle" x="720.97" y="-87.7" font-family="Times,serif" font-size="14.00">Y</text>
</g>
<!-- n10&#45;&gt;c16 -->
<g id="edge2" class="edge">
<title>n10:e&#45;&gt;c16:w</title>
<path fill="none" stroke="black" d="M281.6,-165.5C439.43,-165.5 476.75,-107.33 628.94,-104.6"/>
<polygon fill="black" stroke="black" points="628.61,-108.1 638.58,-104.51 628.55,-101.1 628.61,-108.1"/>
</g>
<!-- c17 -->
<g id="node11" class="node">
<title>c17</title>
<polygon fill="none" stroke="black" points="317.6,-180 317.6,-221 442.85,-221 442.85,-180 317.6,-180"/>
<text text-anchor="middle" x="330.47" y="-195.7" font-family="Times,serif" font-size="14.00">A</text>
<polyline fill="none" stroke="black" points="343.35,-180 343.35,-221"/>
<text text-anchor="middle" x="380.22" y="-203.7" font-family="Times,serif" font-size="14.00">$43</text>
<text text-anchor="middle" x="380.22" y="-187.2" font-family="Times,serif" font-size="14.00">$logic_not</text>
<polyline fill="none" stroke="black" points="417.1,-180 417.1,-221"/>
<text text-anchor="middle" x="429.97" y="-195.7" font-family="Times,serif" font-size="14.00">Y</text>
</g>
<!-- n10&#45;&gt;c17 -->
<g id="edge3" class="edge">
<title>n10:e&#45;&gt;c17:w</title>
<path fill="none" stroke="black" d="M281.6,-165.5C299.2,-165.5 297.55,-187.29 307.02,-196.49"/>
<polygon fill="black" stroke="black" points="305.59,-199.68 316.18,-199.96 308.08,-193.14 305.59,-199.68"/>
</g>
<!-- c14&#45;&gt;c19 -->
<g id="edge1" class="edge">
<title>c14:e&#45;&gt;c19:w</title>
<path fill="none" stroke="black" d="M589.47,-223.5C610.02,-223.5 615.52,-210.47 630.9,-205.99"/>
<polygon fill="black" stroke="black" points="631.03,-209.51 640.47,-204.7 630.09,-202.57 631.03,-209.51"/>
</g>
<!-- c15&#45;&gt;n7 -->
<g id="edge9" class="edge">
<title>c15:e&#45;&gt;n7:w</title>
<path fill="none" stroke="black" d="M280.11,-69.5C298.57,-69.5 305.78,-69.5 320.02,-69.5"/>
<polygon fill="black" stroke="black" points="319.71,-73 329.71,-69.5 319.71,-66 319.71,-73"/>
</g>
<!-- c16&#45;&gt;n9 -->
<g id="edge13" class="edge">
<title>c16:e&#45;&gt;n9:w</title>
<path fill="none" stroke="black" d="M733.85,-92.5C766.03,-92.5 776.81,-92.5 804.15,-92.5"/>
<polygon fill="black" stroke="black" points="804,-96 814,-92.5 804,-89 804,-96"/>
</g>
<!-- c17&#45;&gt;c14 -->
<g id="edge4" class="edge">
<title>c17:e&#45;&gt;c14:w</title>
<path fill="none" stroke="black" d="M442.85,-200.5C465.71,-200.5 466.61,-224.96 482.27,-232.98"/>
<polygon fill="black" stroke="black" points="481.47,-236.39 491.99,-235.17 483.01,-229.56 481.47,-236.39"/>
</g>
<!-- c18&#45;&gt;c16 -->
<g id="edge5" class="edge">
<title>c18:e&#45;&gt;c16:w</title>
<path fill="none" stroke="black" d="M604.1,-67.5C616.46,-67.5 620.88,-74.36 628.9,-78.12"/>
<polygon fill="black" stroke="black" points="628.11,-81.53 638.62,-80.18 629.56,-74.68 628.11,-81.53"/>
</g>
<!-- c19&#45;&gt;n6 -->
<g id="edge8" class="edge">
<title>c19:e&#45;&gt;n6:w</title>
<path fill="none" stroke="black" d="M731.97,-192.5C744.2,-192.5 749.77,-192.5 758.35,-192.5"/>
<polygon fill="black" stroke="black" points="758.33,-196 768.33,-192.5 758.33,-189 758.33,-196"/>
</g>
</g>
</svg>
