<?xml version="1.0" encoding="UTF-8" standalone="no"?>
<!DOCTYPE svg PUBLIC "-//W3C//DTD SVG 1.1//EN"
 "http://www.w3.org/Graphics/SVG/1.1/DTD/svg11.dtd">
<!-- Generated by graphviz version 9.0.0 (20230911.1827)
 -->
<!-- Title: imm_gen Pages: 1 -->
<svg width="1000pt" height="1275pt"
 viewBox="0.00 0.00 999.66 1274.50" xmlns="http://www.w3.org/2000/svg" xmlns:xlink="http://www.w3.org/1999/xlink">
<g id="page0,1_graph0" class="graph" transform="scale(1 1) rotate(0) translate(4 1270.5)">
<title>imm_gen</title>
<polygon fill="white" stroke="none" points="-4,4 -4,-1270.5 995.66,-1270.5 995.66,4 -4,4"/>
<text text-anchor="middle" x="495.83" y="-7.2" font-family="Times,serif" font-size="14.00">imm_gen</text>
<!-- n8 -->
<g id="node1" class="node">
<title>n8</title>
<polygon fill="none" stroke="black" points="991.66,-940.04 991.66,-954.96 973.38,-965.5 947.53,-965.5 929.25,-954.96 929.25,-940.04 947.53,-929.5 973.38,-929.5 991.66,-940.04"/>
<text text-anchor="middle" x="960.46" y="-942.45" font-family="Times,serif" font-size="14.00">imm</text>
</g>
<!-- n9 -->
<g id="node2" class="node">
<title>n9</title>
<polygon fill="none" stroke="black" points="54,-495.04 54,-509.96 38.18,-520.5 15.82,-520.5 0,-509.96 0,-495.04 15.82,-484.5 38.18,-484.5 54,-495.04"/>
<text text-anchor="middle" x="27" y="-497.45" font-family="Times,serif" font-size="14.00">inst</text>
</g>
<!-- x1 -->
<g id="node6" class="node">
<title>x1</title>
<path fill="none" stroke="black" d="M108.75,-1217C108.75,-1217 198.25,-1217 198.25,-1217 204.25,-1217 210.25,-1223 210.25,-1229 210.25,-1229 210.25,-1254 210.25,-1254 210.25,-1260 204.25,-1266 198.25,-1266 198.25,-1266 108.75,-1266 108.75,-1266 102.75,-1266 96.75,-1260 96.75,-1254 96.75,-1254 96.75,-1229 96.75,-1229 96.75,-1223 102.75,-1217 108.75,-1217"/>
<text text-anchor="middle" x="153.5" y="-1248.7" font-family="Times,serif" font-size="14.00">20x 31:31 &#45; 31:12</text>
<polyline fill="none" stroke="black" points="96.75,-1241.5 210.25,-1241.5"/>
<text text-anchor="middle" x="153.5" y="-1224.2" font-family="Times,serif" font-size="14.00">31:20 &#45; 11:0</text>
</g>
<!-- n9&#45;&gt;x1 -->
<g id="edge25" class="edge">
<title>n9:e&#45;&gt;x1:w</title>
<path fill="none" stroke="black" stroke-width="3" d="M54,-502.5C131.12,-502.5 25.43,-1162.94 85.41,-1224.86"/>
<polygon fill="black" stroke="black" stroke-width="3" points="80.83,-1226.6 91.37,-1227.6 83.75,-1220.24 80.83,-1226.6"/>
</g>
<!-- n9&#45;&gt;x1 -->
<g id="edge26" class="edge">
<title>n9:e&#45;&gt;x1:w</title>
<path fill="none" stroke="black" stroke-width="3" d="M54,-502.5C133.65,-502.5 23.25,-1184.74 85.08,-1248.7"/>
<polygon fill="black" stroke="black" stroke-width="3" points="80.83,-1250.6 91.38,-1251.6 83.76,-1244.24 80.83,-1250.6"/>
</g>
<!-- x2 -->
<g id="node7" class="node">
<title>x2</title>
<path fill="none" stroke="black" d="M102,-25C102,-25 205,-25 205,-25 211,-25 217,-31 217,-37 217,-37 217,-454 217,-454 217,-460 211,-466 205,-466 205,-466 102,-466 102,-466 96,-466 90,-460 90,-454 90,-454 90,-37 90,-37 90,-31 96,-25 102,-25"/>
<text text-anchor="middle" x="153.5" y="-448.7" font-family="Times,serif" font-size="14.00">20x 31:31 &#45; 159:140</text>
<polyline fill="none" stroke="black" points="90,-441.5 217,-441.5"/>
<text text-anchor="middle" x="153.5" y="-424.2" font-family="Times,serif" font-size="14.00">31:21 &#45; 139:129</text>
<polyline fill="none" stroke="black" points="90,-417 217,-417"/>
<text text-anchor="middle" x="153.5" y="-399.7" font-family="Times,serif" font-size="14.00">0 &#45;&gt; 128:128</text>
<polyline fill="none" stroke="black" points="90,-392.5 217,-392.5"/>
<text text-anchor="middle" x="153.5" y="-375.2" font-family="Times,serif" font-size="14.00">20x 31:31 &#45; 127:108</text>
<polyline fill="none" stroke="black" points="90,-368 217,-368"/>
<text text-anchor="middle" x="153.5" y="-350.7" font-family="Times,serif" font-size="14.00">31:25 &#45; 107:101</text>
<polyline fill="none" stroke="black" points="90,-343.5 217,-343.5"/>
<text text-anchor="middle" x="153.5" y="-326.2" font-family="Times,serif" font-size="14.00">11:7 &#45; 100:96</text>
<polyline fill="none" stroke="black" points="90,-319 217,-319"/>
<text text-anchor="middle" x="153.5" y="-301.7" font-family="Times,serif" font-size="14.00">31:12 &#45; 95:76</text>
<polyline fill="none" stroke="black" points="90,-294.5 217,-294.5"/>
<text text-anchor="middle" x="153.5" y="-277.2" font-family="Times,serif" font-size="14.00">0 &#45;&gt; 75:64</text>
<polyline fill="none" stroke="black" points="90,-270 217,-270"/>
<text text-anchor="middle" x="153.5" y="-252.7" font-family="Times,serif" font-size="14.00">12x 31:31 &#45; 63:52</text>
<polyline fill="none" stroke="black" points="90,-245.5 217,-245.5"/>
<text text-anchor="middle" x="153.5" y="-228.2" font-family="Times,serif" font-size="14.00">19:12 &#45; 51:44</text>
<polyline fill="none" stroke="black" points="90,-221 217,-221"/>
<text text-anchor="middle" x="153.5" y="-203.7" font-family="Times,serif" font-size="14.00">20:20 &#45; 43:43</text>
<polyline fill="none" stroke="black" points="90,-196.5 217,-196.5"/>
<text text-anchor="middle" x="153.5" y="-179.2" font-family="Times,serif" font-size="14.00">30:21 &#45; 42:33</text>
<polyline fill="none" stroke="black" points="90,-172 217,-172"/>
<text text-anchor="middle" x="153.5" y="-154.7" font-family="Times,serif" font-size="14.00">0 &#45;&gt; 32:32</text>
<polyline fill="none" stroke="black" points="90,-147.5 217,-147.5"/>
<text text-anchor="middle" x="153.5" y="-130.2" font-family="Times,serif" font-size="14.00">20x 31:31 &#45; 31:12</text>
<polyline fill="none" stroke="black" points="90,-123 217,-123"/>
<text text-anchor="middle" x="153.5" y="-105.7" font-family="Times,serif" font-size="14.00">7:7 &#45; 11:11</text>
<polyline fill="none" stroke="black" points="90,-98.5 217,-98.5"/>
<text text-anchor="middle" x="153.5" y="-81.2" font-family="Times,serif" font-size="14.00">30:25 &#45; 10:5</text>
<polyline fill="none" stroke="black" points="90,-74 217,-74"/>
<text text-anchor="middle" x="153.5" y="-56.7" font-family="Times,serif" font-size="14.00">11:8 &#45; 4:1</text>
<polyline fill="none" stroke="black" points="90,-49.5 217,-49.5"/>
<text text-anchor="middle" x="153.5" y="-32.2" font-family="Times,serif" font-size="14.00">0 &#45;&gt; 0:0</text>
</g>
<!-- n9&#45;&gt;x2 -->
<g id="edge27" class="edge">
<title>n9:e&#45;&gt;x2:w</title>
<path fill="none" stroke="black" stroke-width="3" d="M54,-502.5C148.29,-502.5 4.42,-96.93 79.17,-63.66"/>
<polygon fill="black" stroke="black" stroke-width="3" points="76.43,-67.78 85.55,-62.39 75.06,-60.92 76.43,-67.78"/>
</g>
<!-- n9&#45;&gt;x2 -->
<g id="edge28" class="edge">
<title>n9:e&#45;&gt;x2:w</title>
<path fill="none" stroke="black" stroke-width="3" d="M54,-502.5C142.62,-502.5 10.16,-123.04 78.92,-88.94"/>
<polygon fill="black" stroke="black" stroke-width="3" points="76.55,-93.05 85.57,-87.48 75.05,-86.21 76.55,-93.05"/>
</g>
<!-- n9&#45;&gt;x2 -->
<g id="edge29" class="edge">
<title>n9:e&#45;&gt;x2:w</title>
<path fill="none" stroke="black" stroke-width="3" d="M54,-502.5C131.79,-502.5 20.5,-171.83 79.08,-138.24"/>
<polygon fill="black" stroke="black" stroke-width="3" points="76.75,-142.44 85.6,-136.61 75.04,-135.65 76.75,-142.44"/>
</g>
<!-- n9&#45;&gt;x2 -->
<g id="edge30" class="edge">
<title>n9:e&#45;&gt;x2:w</title>
<path fill="none" stroke="black" stroke-width="3" d="M54,-502.5C120.95,-502.5 30.72,-220.67 79.25,-187.65"/>
<polygon fill="black" stroke="black" stroke-width="3" points="77.03,-191.95 85.64,-185.78 75.06,-185.23 77.03,-191.95"/>
</g>
<!-- n9&#45;&gt;x2 -->
<g id="edge31" class="edge">
<title>n9:e&#45;&gt;x2:w</title>
<path fill="none" stroke="black" stroke-width="3" d="M54,-502.5C115.58,-502.5 35.84,-245.18 79.2,-212.01"/>
<polygon fill="black" stroke="black" stroke-width="3" points="77.25,-216.32 85.68,-209.9 75.09,-209.66 77.25,-216.32"/>
</g>
<!-- n9&#45;&gt;x2 -->
<g id="edge32" class="edge">
<title>n9:e&#45;&gt;x2:w</title>
<path fill="none" stroke="black" stroke-width="3" d="M54,-502.5C110.07,-502.5 40.87,-270 79.33,-237.3"/>
<polygon fill="black" stroke="black" stroke-width="3" points="77.48,-241.68 85.72,-235.02 75.13,-235.08 77.48,-241.68"/>
</g>
<!-- n9&#45;&gt;x2 -->
<g id="edge33" class="edge">
<title>n9:e&#45;&gt;x2:w</title>
<path fill="none" stroke="black" stroke-width="3" d="M54,-502.5C137.38,-502.5 15.05,-146.39 79.14,-113"/>
<polygon fill="black" stroke="black" stroke-width="3" points="76.62,-117.18 85.58,-111.52 75.04,-110.36 76.62,-117.18"/>
</g>
<!-- n9&#45;&gt;x2 -->
<g id="edge34" class="edge">
<title>n9:e&#45;&gt;x2:w</title>
<path fill="none" stroke="black" stroke-width="3" d="M54,-502.5C159.87,-502.5 -6.46,-275.81 78.67,-258.54"/>
<polygon fill="black" stroke="black" stroke-width="3" points="75.84,-262.31 85.48,-257.91 75.2,-255.34 75.84,-262.31"/>
</g>
<!-- n9&#45;&gt;x2 -->
<g id="edge35" class="edge">
<title>n9:e&#45;&gt;x2:w</title>
<path fill="none" stroke="black" stroke-width="3" d="M54,-502.5C138.24,-502.5 14.67,-325.17 78.62,-307.86"/>
<polygon fill="black" stroke="black" stroke-width="3" points="75.98,-311.7 85.49,-307.04 75.15,-304.74 75.98,-311.7"/>
</g>
<!-- n9&#45;&gt;x2 -->
<g id="edge36" class="edge">
<title>n9:e&#45;&gt;x2:w</title>
<path fill="none" stroke="black" stroke-width="3" d="M54,-502.5C127.27,-502.5 25.22,-350.32 78.63,-333.08"/>
<polygon fill="black" stroke="black" stroke-width="3" points="76.08,-336.97 85.5,-332.13 75.12,-330.04 76.08,-336.97"/>
</g>
<!-- n9&#45;&gt;x2 -->
<g id="edge37" class="edge">
<title>n9:e&#45;&gt;x2:w</title>
<path fill="none" stroke="black" stroke-width="3" d="M54,-502.5C116.8,-502.5 35.09,-374.38 78.7,-357.36"/>
<polygon fill="black" stroke="black" stroke-width="3" points="76.22,-361.31 85.52,-356.24 75.08,-354.41 76.22,-361.31"/>
</g>
<!-- n9&#45;&gt;x2 -->
<g id="edge38" class="edge">
<title>n9:e&#45;&gt;x2:w</title>
<path fill="none" stroke="black" stroke-width="3" d="M54,-502.5C106.12,-502.5 44.69,-398.82 79.07,-382.62"/>
<polygon fill="black" stroke="black" stroke-width="3" points="76.39,-386.7 85.54,-381.36 75.06,-379.83 76.39,-386.7"/>
</g>
<!-- n9&#45;&gt;x2 -->
<g id="edge39" class="edge">
<title>n9:e&#45;&gt;x2:w</title>
<path fill="none" stroke="black" stroke-width="3" d="M54,-502.5C85.37,-502.5 62.2,-447.6 79.08,-433.02"/>
<polygon fill="black" stroke="black" stroke-width="3" points="77.24,-437.29 85.68,-430.89 75.09,-430.63 77.24,-437.29"/>
</g>
<!-- n9&#45;&gt;x2 -->
<g id="edge40" class="edge">
<title>n9:e&#45;&gt;x2:w</title>
<path fill="none" stroke="black" stroke-width="3" d="M54,-502.5C76.17,-502.5 68.01,-469.53 79.28,-457.68"/>
<polygon fill="black" stroke="black" stroke-width="3" points="77.72,-462.04 85.77,-455.15 75.18,-455.52 77.72,-462.04"/>
</g>
<!-- x4 -->
<g id="node11" class="node">
<title>x4</title>
<path fill="none" stroke="black" d="M134.25,-905C134.25,-905 172.75,-905 172.75,-905 178.75,-905 184.75,-911 184.75,-917 184.75,-917 184.75,-942 184.75,-942 184.75,-948 178.75,-954 172.75,-954 172.75,-954 134.25,-954 134.25,-954 128.25,-954 122.25,-948 122.25,-942 122.25,-942 122.25,-917 122.25,-917 122.25,-911 128.25,-905 134.25,-905"/>
<text text-anchor="middle" x="153.5" y="-936.7" font-family="Times,serif" font-size="14.00">6:5 &#45; 3:2</text>
<polyline fill="none" stroke="black" points="122.25,-929.5 184.75,-929.5"/>
<text text-anchor="middle" x="153.5" y="-912.2" font-family="Times,serif" font-size="14.00">3:2 &#45; 1:0</text>
</g>
<!-- n9&#45;&gt;x4 -->
<g id="edge41" class="edge">
<title>n9:e&#45;&gt;x4:w</title>
<path fill="none" stroke="black" stroke-width="3" d="M54,-502.5C97.85,-502.5 67.97,-857.58 90,-895.5 96.37,-906.46 101.23,-913.27 110.29,-916.05"/>
<polygon fill="black" stroke="black" stroke-width="3" points="106.63,-919.11 117,-916.92 107.53,-912.17 106.63,-919.11"/>
</g>
<!-- n9&#45;&gt;x4 -->
<g id="edge42" class="edge">
<title>n9:e&#45;&gt;x4:w</title>
<path fill="none" stroke="black" stroke-width="3" d="M54,-502.5C97.85,-502.5 75.13,-854.25 90,-895.5 96.89,-914.62 97,-933.33 110.49,-939.43"/>
<polygon fill="black" stroke="black" stroke-width="3" points="106.56,-942.25 117.04,-940.66 107.86,-935.37 106.56,-942.25"/>
</g>
<!-- x6 -->
<g id="node14" class="node">
<title>x6</title>
<path fill="none" stroke="black" d="M134.25,-783C134.25,-783 172.75,-783 172.75,-783 178.75,-783 184.75,-789 184.75,-795 184.75,-795 184.75,-820 184.75,-820 184.75,-826 178.75,-832 172.75,-832 172.75,-832 134.25,-832 134.25,-832 128.25,-832 122.25,-826 122.25,-820 122.25,-820 122.25,-795 122.25,-795 122.25,-789 128.25,-783 134.25,-783"/>
<text text-anchor="middle" x="153.5" y="-814.7" font-family="Times,serif" font-size="14.00">6:5 &#45; 3:2</text>
<polyline fill="none" stroke="black" points="122.25,-807.5 184.75,-807.5"/>
<text text-anchor="middle" x="153.5" y="-790.2" font-family="Times,serif" font-size="14.00">3:2 &#45; 1:0</text>
</g>
<!-- n9&#45;&gt;x6 -->
<g id="edge43" class="edge">
<title>n9:e&#45;&gt;x6:w</title>
<path fill="none" stroke="black" stroke-width="3" d="M54,-502.5C114.75,-502.5 58.42,-721.6 90,-773.5 96.59,-784.33 101.34,-791.2 110.34,-794.03"/>
<polygon fill="black" stroke="black" stroke-width="3" points="106.63,-797.07 117,-794.91 107.54,-790.13 106.63,-797.07"/>
</g>
<!-- n9&#45;&gt;x6 -->
<g id="edge44" class="edge">
<title>n9:e&#45;&gt;x6:w</title>
<path fill="none" stroke="black" stroke-width="3" d="M54,-502.5C114.75,-502.5 68.24,-716.78 90,-773.5 97.28,-792.48 97.14,-811.27 110.53,-817.42"/>
<polygon fill="black" stroke="black" stroke-width="3" points="106.56,-820.22 117.04,-818.65 107.87,-813.35 106.56,-820.22"/>
</g>
<!-- x8 -->
<g id="node17" class="node">
<title>x8</title>
<path fill="none" stroke="black" d="M134.25,-539C134.25,-539 172.75,-539 172.75,-539 178.75,-539 184.75,-545 184.75,-551 184.75,-551 184.75,-576 184.75,-576 184.75,-582 178.75,-588 172.75,-588 172.75,-588 134.25,-588 134.25,-588 128.25,-588 122.25,-582 122.25,-576 122.25,-576 122.25,-551 122.25,-551 122.25,-545 128.25,-539 134.25,-539"/>
<text text-anchor="middle" x="153.5" y="-570.7" font-family="Times,serif" font-size="14.00">6:5 &#45; 3:2</text>
<polyline fill="none" stroke="black" points="122.25,-563.5 184.75,-563.5"/>
<text text-anchor="middle" x="153.5" y="-546.2" font-family="Times,serif" font-size="14.00">3:2 &#45; 1:0</text>
</g>
<!-- n9&#45;&gt;x8 -->
<g id="edge45" class="edge">
<title>n9:e&#45;&gt;x8:w</title>
<path fill="none" stroke="black" stroke-width="3" d="M54,-502.5C86.87,-502.5 85.37,-541.03 110.46,-549.76"/>
<polygon fill="black" stroke="black" stroke-width="3" points="106.59,-552.69 117.01,-550.79 107.68,-545.77 106.59,-552.69"/>
</g>
<!-- n9&#45;&gt;x8 -->
<g id="edge46" class="edge">
<title>n9:e&#45;&gt;x8:w</title>
<path fill="none" stroke="black" stroke-width="3" d="M54,-502.5C93.87,-502.5 80.77,-561.94 110.29,-573.55"/>
<polygon fill="black" stroke="black" stroke-width="3" points="106.57,-576.45 117.03,-574.72 107.78,-569.56 106.57,-576.45"/>
</g>
<!-- x10 -->
<g id="node20" class="node">
<title>x10</title>
<path fill="none" stroke="black" d="M134.25,-661C134.25,-661 172.75,-661 172.75,-661 178.75,-661 184.75,-667 184.75,-673 184.75,-673 184.75,-698 184.75,-698 184.75,-704 178.75,-710 172.75,-710 172.75,-710 134.25,-710 134.25,-710 128.25,-710 122.25,-704 122.25,-698 122.25,-698 122.25,-673 122.25,-673 122.25,-667 128.25,-661 134.25,-661"/>
<text text-anchor="middle" x="153.5" y="-692.7" font-family="Times,serif" font-size="14.00">6:5 &#45; 3:2</text>
<polyline fill="none" stroke="black" points="122.25,-685.5 184.75,-685.5"/>
<text text-anchor="middle" x="153.5" y="-668.2" font-family="Times,serif" font-size="14.00">3:2 &#45; 1:0</text>
</g>
<!-- n9&#45;&gt;x10 -->
<g id="edge19" class="edge">
<title>n9:e&#45;&gt;x10:w</title>
<path fill="none" stroke="black" stroke-width="3" d="M54,-502.5C131.56,-502.5 49.08,-656.57 110.38,-672.22"/>
<polygon fill="black" stroke="black" stroke-width="3" points="106.65,-675.32 116.99,-672.98 107.45,-668.36 106.65,-675.32"/>
</g>
<!-- n9&#45;&gt;x10 -->
<g id="edge20" class="edge">
<title>n9:e&#45;&gt;x10:w</title>
<path fill="none" stroke="black" stroke-width="3" d="M54,-502.5C122.13,-502.5 62.3,-589.26 90,-651.5 98.19,-669.89 97.51,-688.76 110.26,-695.19"/>
<polygon fill="black" stroke="black" stroke-width="3" points="106.55,-698.01 117.05,-696.59 107.96,-691.15 106.55,-698.01"/>
</g>
<!-- x12 -->
<g id="node23" class="node">
<title>x12</title>
<path fill="none" stroke="black" d="M134.25,-1149C134.25,-1149 172.75,-1149 172.75,-1149 178.75,-1149 184.75,-1155 184.75,-1161 184.75,-1161 184.75,-1186 184.75,-1186 184.75,-1192 178.75,-1198 172.75,-1198 172.75,-1198 134.25,-1198 134.25,-1198 128.25,-1198 122.25,-1192 122.25,-1186 122.25,-1186 122.25,-1161 122.25,-1161 122.25,-1155 128.25,-1149 134.25,-1149"/>
<text text-anchor="middle" x="153.5" y="-1180.7" font-family="Times,serif" font-size="14.00">6:5 &#45; 3:2</text>
<polyline fill="none" stroke="black" points="122.25,-1173.5 184.75,-1173.5"/>
<text text-anchor="middle" x="153.5" y="-1156.2" font-family="Times,serif" font-size="14.00">3:2 &#45; 1:0</text>
</g>
<!-- n9&#45;&gt;x12 -->
<g id="edge21" class="edge">
<title>n9:e&#45;&gt;x12:w</title>
<path fill="none" stroke="black" stroke-width="3" d="M54,-502.5C124.89,-502.5 55.47,-1077.59 90,-1139.5 96.17,-1150.57 101.13,-1157.33 110.25,-1160.07"/>
<polygon fill="black" stroke="black" stroke-width="3" points="106.63,-1163.14 117,-1160.93 107.52,-1156.2 106.63,-1163.14"/>
</g>
<!-- n9&#45;&gt;x12 -->
<g id="edge22" class="edge">
<title>n9:e&#45;&gt;x12:w</title>
<path fill="none" stroke="black" stroke-width="3" d="M54,-502.5C89.45,-502.5 78.57,-1105.95 90,-1139.5 96.56,-1158.74 96.88,-1177.37 110.46,-1183.44"/>
<polygon fill="black" stroke="black" stroke-width="3" points="106.56,-1186.28 117.04,-1184.67 107.85,-1179.39 106.56,-1186.28"/>
</g>
<!-- x14 -->
<g id="node26" class="node">
<title>x14</title>
<path fill="none" stroke="black" d="M134.25,-1027C134.25,-1027 172.75,-1027 172.75,-1027 178.75,-1027 184.75,-1033 184.75,-1039 184.75,-1039 184.75,-1064 184.75,-1064 184.75,-1070 178.75,-1076 172.75,-1076 172.75,-1076 134.25,-1076 134.25,-1076 128.25,-1076 122.25,-1070 122.25,-1064 122.25,-1064 122.25,-1039 122.25,-1039 122.25,-1033 128.25,-1027 134.25,-1027"/>
<text text-anchor="middle" x="153.5" y="-1058.7" font-family="Times,serif" font-size="14.00">6:5 &#45; 3:2</text>
<polyline fill="none" stroke="black" points="122.25,-1051.5 184.75,-1051.5"/>
<text text-anchor="middle" x="153.5" y="-1034.2" font-family="Times,serif" font-size="14.00">3:2 &#45; 1:0</text>
</g>
<!-- n9&#45;&gt;x14 -->
<g id="edge23" class="edge">
<title>n9:e&#45;&gt;x14:w</title>
<path fill="none" stroke="black" stroke-width="3" d="M54,-502.5C111.36,-502.5 61.72,-967.59 90,-1017.5 96.25,-1028.53 101.17,-1035.3 110.27,-1038.07"/>
<polygon fill="black" stroke="black" stroke-width="3" points="106.63,-1041.13 117,-1038.92 107.52,-1034.19 106.63,-1041.13"/>
</g>
<!-- n9&#45;&gt;x14 -->
<g id="edge24" class="edge">
<title>n9:e&#45;&gt;x14:w</title>
<path fill="none" stroke="black" stroke-width="3" d="M54,-502.5C111.36,-502.5 71.13,-963.33 90,-1017.5 96.68,-1036.7 96.93,-1055.35 110.47,-1061.44"/>
<polygon fill="black" stroke="black" stroke-width="3" points="106.56,-1064.27 117.04,-1062.67 107.85,-1057.39 106.56,-1064.27"/>
</g>
<!-- c12 -->
<g id="node3" class="node">
<title>c12</title>
<polygon fill="none" stroke="black" points="524.75,-902 524.75,-943 653,-943 653,-902 524.75,-902"/>
<text text-anchor="middle" x="537.62" y="-917.7" font-family="Times,serif" font-size="14.00">A</text>
<polyline fill="none" stroke="black" points="550.5,-902 550.5,-943"/>
<text text-anchor="middle" x="588.88" y="-925.7" font-family="Times,serif" font-size="14.00">$554</text>
<text text-anchor="middle" x="588.88" y="-909.2" font-family="Times,serif" font-size="14.00">$reduce_or</text>
<polyline fill="none" stroke="black" points="627.25,-902 627.25,-943"/>
<text text-anchor="middle" x="640.12" y="-917.7" font-family="Times,serif" font-size="14.00">Y</text>
</g>
<!-- x3 -->
<g id="node8" class="node">
<title>x3</title>
<path fill="none" stroke="black" d="M701,-861.25C701,-861.25 739.5,-861.25 739.5,-861.25 745.5,-861.25 751.5,-867.25 751.5,-873.25 751.5,-873.25 751.5,-971.75 751.5,-971.75 751.5,-977.75 745.5,-983.75 739.5,-983.75 739.5,-983.75 701,-983.75 701,-983.75 695,-983.75 689,-977.75 689,-971.75 689,-971.75 689,-873.25 689,-873.25 689,-867.25 695,-861.25 701,-861.25"/>
<text text-anchor="middle" x="720.25" y="-966.45" font-family="Times,serif" font-size="14.00">0:0 &#45; 4:4</text>
<polyline fill="none" stroke="black" points="689,-959.25 751.5,-959.25"/>
<text text-anchor="middle" x="720.25" y="-941.95" font-family="Times,serif" font-size="14.00">0:0 &#45; 3:3</text>
<polyline fill="none" stroke="black" points="689,-934.75 751.5,-934.75"/>
<text text-anchor="middle" x="720.25" y="-917.45" font-family="Times,serif" font-size="14.00">0:0 &#45; 2:2</text>
<polyline fill="none" stroke="black" points="689,-910.25 751.5,-910.25"/>
<text text-anchor="middle" x="720.25" y="-892.95" font-family="Times,serif" font-size="14.00">0:0 &#45; 1:1</text>
<polyline fill="none" stroke="black" points="689,-885.75 751.5,-885.75"/>
<text text-anchor="middle" x="720.25" y="-868.45" font-family="Times,serif" font-size="14.00">0:0 &#45; 0:0</text>
</g>
<!-- c12&#45;&gt;x3 -->
<g id="edge11" class="edge">
<title>c12:e&#45;&gt;x3:w</title>
<path fill="none" stroke="black" d="M653,-922.5C664.38,-922.5 669.68,-922.5 677.55,-922.5"/>
<polygon fill="black" stroke="black" points="677.49,-926 687.49,-922.5 677.49,-919 677.49,-926"/>
</g>
<!-- x0 -->
<g id="node4" class="node">
<title>x0</title>
<path fill="none" stroke="black" d="M438.25,-619C438.25,-619 476.75,-619 476.75,-619 482.75,-619 488.75,-625 488.75,-631 488.75,-631 488.75,-656 488.75,-656 488.75,-662 482.75,-668 476.75,-668 476.75,-668 438.25,-668 438.25,-668 432.25,-668 426.25,-662 426.25,-656 426.25,-656 426.25,-631 426.25,-631 426.25,-625 432.25,-619 438.25,-619"/>
<text text-anchor="middle" x="457.5" y="-650.7" font-family="Times,serif" font-size="14.00">0:0 &#45; 1:1</text>
<polyline fill="none" stroke="black" points="426.25,-643.5 488.75,-643.5"/>
<text text-anchor="middle" x="457.5" y="-626.2" font-family="Times,serif" font-size="14.00">0:0 &#45; 0:0</text>
</g>
<!-- x0&#45;&gt;c12 -->
<g id="edge1" class="edge">
<title>x0:e&#45;&gt;c12:w</title>
<path fill="none" stroke="black" stroke-width="3" d="M501.6,-644.68C594.11,-663.56 419.51,-902.21 511.77,-921.29"/>
<polygon fill="none" stroke="black" stroke-width="3" points="503.39,-644.85 497.05,-648.28 491.44,-643.75 497.78,-640.32 503.39,-644.85"/>
<polygon fill="none" stroke="black" stroke-width="3" points="510.11,-921.14 516.45,-917.71 522.06,-922.25 515.71,-925.67 510.11,-921.14"/>
</g>
<!-- c15 -->
<g id="node5" class="node">
<title>c15</title>
<polygon fill="none" stroke="black" points="787.5,-910.75 787.5,-984.25 893.25,-984.25 893.25,-910.75 787.5,-910.75"/>
<text text-anchor="middle" x="800.38" y="-966.95" font-family="Times,serif" font-size="14.00">A</text>
<polyline fill="none" stroke="black" points="787.5,-959.75 813.25,-959.75"/>
<text text-anchor="middle" x="800.38" y="-942.45" font-family="Times,serif" font-size="14.00">B</text>
<polyline fill="none" stroke="black" points="787.5,-935.25 813.25,-935.25"/>
<text text-anchor="middle" x="800.38" y="-917.95" font-family="Times,serif" font-size="14.00">S</text>
<polyline fill="none" stroke="black" points="813.25,-910.75 813.25,-984.25"/>
<text text-anchor="middle" x="840.38" y="-950.7" font-family="Times,serif" font-size="14.00">$360</text>
<text text-anchor="middle" x="840.38" y="-934.2" font-family="Times,serif" font-size="14.00">$pmux</text>
<polyline fill="none" stroke="black" points="867.5,-910.75 867.5,-984.25"/>
<text text-anchor="middle" x="880.38" y="-942.45" font-family="Times,serif" font-size="14.00">Y</text>
</g>
<!-- c15&#45;&gt;n8 -->
<g id="edge18" class="edge">
<title>c15:e&#45;&gt;n8:w</title>
<path fill="none" stroke="black" stroke-width="3" d="M893.25,-947.5C904.62,-947.5 909.93,-947.5 917.8,-947.5"/>
<polygon fill="black" stroke="black" stroke-width="3" points="914.71,-951 924.71,-947.5 914.71,-944 914.71,-951"/>
</g>
<!-- x1&#45;&gt;c15 -->
<g id="edge2" class="edge">
<title>x1:e&#45;&gt;c15:w</title>
<path fill="none" stroke="black" stroke-width="3" d="M224.3,-1241.35C323.48,-1238.99 351.08,-1209.5 456.5,-1209.5 456.5,-1209.5 456.5,-1209.5 589.88,-1209.5 621.01,-1209.5 730.32,-1014.01 775.81,-978.12"/>
<polygon fill="none" stroke="black" stroke-width="3" points="226.2,-1241.33 220.25,-1245.4 214.2,-1241.47 220.16,-1237.4 226.2,-1241.33"/>
<polygon fill="none" stroke="black" stroke-width="3" points="774.25,-978.87 777.92,-972.67 785.06,-973.67 781.39,-979.88 774.25,-978.87"/>
</g>
<!-- x2&#45;&gt;c15 -->
<g id="edge3" class="edge">
<title>x2:e&#45;&gt;c15:w</title>
<path fill="none" stroke="black" stroke-width="3" d="M229.92,-246.01C337.54,-254.75 340.49,-372.5 456.5,-372.5 456.5,-372.5 456.5,-372.5 589.88,-372.5 597.6,-372.5 749.59,-853.95 781.83,-935.75"/>
<polygon fill="none" stroke="black" stroke-width="3" points="231.69,-246.08 225.54,-249.84 219.7,-245.61 225.86,-241.85 231.69,-246.08"/>
<polygon fill="none" stroke="black" stroke-width="3" points="781.11,-934.26 787.32,-937.92 786.32,-945.06 780.11,-941.4 781.11,-934.26"/>
</g>
<!-- x3&#45;&gt;c15 -->
<g id="edge4" class="edge">
<title>x3:e&#45;&gt;c15:w</title>
<path fill="none" stroke="black" stroke-width="3" d="M764.22,-922.5C767.82,-922.5 770.95,-922.5 774.53,-922.5"/>
<polygon fill="none" stroke="black" stroke-width="3" points="766.2,-922.5 760.2,-926.5 754.2,-922.5 760.2,-918.5 766.2,-922.5"/>
<polygon fill="none" stroke="black" stroke-width="3" points="772.8,-922.5 778.8,-918.5 784.8,-922.5 778.8,-926.5 772.8,-922.5"/>
</g>
<!-- v5 -->
<g id="node9" class="node">
<title>v5</title>
<ellipse fill="none" stroke="black" cx="153.5" cy="-868.5" rx="35.49" ry="18"/>
<text text-anchor="middle" x="153.5" y="-863.45" font-family="Times,serif" font-size="14.00">4&#39;1100</text>
</g>
<!-- c16 -->
<g id="node10" class="node">
<title>c16</title>
<polygon fill="none" stroke="black" points="253,-856 253,-905 390.25,-905 390.25,-856 253,-856"/>
<text text-anchor="middle" x="265.88" y="-887.7" font-family="Times,serif" font-size="14.00">A</text>
<polyline fill="none" stroke="black" points="253,-880.5 278.75,-880.5"/>
<text text-anchor="middle" x="265.88" y="-863.2" font-family="Times,serif" font-size="14.00">B</text>
<polyline fill="none" stroke="black" points="278.75,-856 278.75,-905"/>
<text text-anchor="middle" x="321.62" y="-883.7" font-family="Times,serif" font-size="14.00">$361_CMP0</text>
<text text-anchor="middle" x="321.62" y="-867.2" font-family="Times,serif" font-size="14.00">$eq</text>
<polyline fill="none" stroke="black" points="364.5,-856 364.5,-905"/>
<text text-anchor="middle" x="377.38" y="-875.7" font-family="Times,serif" font-size="14.00">Y</text>
</g>
<!-- v5&#45;&gt;c16 -->
<g id="edge50" class="edge">
<title>v5:e&#45;&gt;c16:w</title>
<path fill="none" stroke="black" stroke-width="3" d="M190.5,-868.5C214.05,-868.5 222.62,-868.5 241.61,-868.5"/>
<polygon fill="black" stroke="black" stroke-width="3" points="238.46,-872 248.46,-868.5 238.46,-865 238.46,-872"/>
</g>
<!-- c16&#45;&gt;x3 -->
<g id="edge12" class="edge">
<title>c16:e&#45;&gt;x3:w</title>
<path fill="none" stroke="black" d="M390.25,-880.5C519.17,-880.5 554.16,-873.9 677.58,-873.52"/>
<polygon fill="black" stroke="black" points="677.49,-877.02 687.49,-873.5 677.48,-870.02 677.49,-877.02"/>
</g>
<!-- x4&#45;&gt;c16 -->
<g id="edge5" class="edge">
<title>x4:e&#45;&gt;c16:w</title>
<path fill="none" stroke="black" stroke-width="3" d="M198.34,-927.4C216.51,-920.89 222.02,-901.05 240.22,-894.57"/>
<polygon fill="none" stroke="black" stroke-width="3" points="200.01,-927.13 194.73,-932.05 188.17,-929.06 193.45,-924.15 200.01,-927.13"/>
<polygon fill="none" stroke="black" stroke-width="3" points="238.49,-894.85 243.77,-889.94 250.33,-892.93 245.05,-897.84 238.49,-894.85"/>
</g>
<!-- v7 -->
<g id="node12" class="node">
<title>v7</title>
<ellipse fill="none" stroke="black" cx="153.5" cy="-746.5" rx="35.49" ry="18"/>
<text text-anchor="middle" x="153.5" y="-741.45" font-family="Times,serif" font-size="14.00">4&#39;1111</text>
</g>
<!-- c17 -->
<g id="node13" class="node">
<title>c17</title>
<polygon fill="none" stroke="black" points="253,-771 253,-820 390.25,-820 390.25,-771 253,-771"/>
<text text-anchor="middle" x="265.88" y="-802.7" font-family="Times,serif" font-size="14.00">A</text>
<polyline fill="none" stroke="black" points="253,-795.5 278.75,-795.5"/>
<text text-anchor="middle" x="265.88" y="-778.2" font-family="Times,serif" font-size="14.00">B</text>
<polyline fill="none" stroke="black" points="278.75,-771 278.75,-820"/>
<text text-anchor="middle" x="321.62" y="-798.7" font-family="Times,serif" font-size="14.00">$362_CMP0</text>
<text text-anchor="middle" x="321.62" y="-782.2" font-family="Times,serif" font-size="14.00">$eq</text>
<polyline fill="none" stroke="black" points="364.5,-771 364.5,-820"/>
<text text-anchor="middle" x="377.38" y="-790.7" font-family="Times,serif" font-size="14.00">Y</text>
</g>
<!-- v7&#45;&gt;c17 -->
<g id="edge51" class="edge">
<title>v7:e&#45;&gt;c17:w</title>
<path fill="none" stroke="black" stroke-width="3" d="M190.5,-746.5C218.49,-746.5 220.66,-774.32 241.79,-781.72"/>
<polygon fill="black" stroke="black" stroke-width="3" points="238.09,-784.67 248.52,-782.79 239.19,-777.76 238.09,-784.67"/>
</g>
<!-- c17&#45;&gt;x3 -->
<g id="edge13" class="edge">
<title>c17:e&#45;&gt;x3:w</title>
<path fill="none" stroke="black" d="M390.25,-795.5C511.69,-795.5 544.22,-816.5 653,-870.5 666.72,-877.31 668.81,-889.52 678.01,-894.87"/>
<polygon fill="black" stroke="black" points="676.99,-898.22 687.53,-897.15 678.62,-891.41 676.99,-898.22"/>
</g>
<!-- x6&#45;&gt;c17 -->
<g id="edge6" class="edge">
<title>x6:e&#45;&gt;c17:w</title>
<path fill="none" stroke="black" stroke-width="3" d="M198.37,-807.5C214.71,-807.5 223.93,-807.5 240.33,-807.5"/>
<polygon fill="none" stroke="black" stroke-width="3" points="200.2,-807.5 194.2,-811.5 188.2,-807.5 194.2,-803.5 200.2,-807.5"/>
<polygon fill="none" stroke="black" stroke-width="3" points="238.3,-807.5 244.3,-803.5 250.3,-807.5 244.3,-811.5 238.3,-807.5"/>
</g>
<!-- v9 -->
<g id="node15" class="node">
<title>v9</title>
<ellipse fill="none" stroke="black" cx="153.5" cy="-502.5" rx="35.49" ry="18"/>
<text text-anchor="middle" x="153.5" y="-497.45" font-family="Times,serif" font-size="14.00">4&#39;0001</text>
</g>
<!-- c18 -->
<g id="node16" class="node">
<title>c18</title>
<polygon fill="none" stroke="black" points="253,-527 253,-576 390.25,-576 390.25,-527 253,-527"/>
<text text-anchor="middle" x="265.88" y="-558.7" font-family="Times,serif" font-size="14.00">A</text>
<polyline fill="none" stroke="black" points="253,-551.5 278.75,-551.5"/>
<text text-anchor="middle" x="265.88" y="-534.2" font-family="Times,serif" font-size="14.00">B</text>
<polyline fill="none" stroke="black" points="278.75,-527 278.75,-576"/>
<text text-anchor="middle" x="321.62" y="-554.7" font-family="Times,serif" font-size="14.00">$363_CMP0</text>
<text text-anchor="middle" x="321.62" y="-538.2" font-family="Times,serif" font-size="14.00">$eq</text>
<polyline fill="none" stroke="black" points="364.5,-527 364.5,-576"/>
<text text-anchor="middle" x="377.38" y="-546.7" font-family="Times,serif" font-size="14.00">Y</text>
</g>
<!-- v9&#45;&gt;c18 -->
<g id="edge52" class="edge">
<title>v9:e&#45;&gt;c18:w</title>
<path fill="none" stroke="black" stroke-width="3" d="M190.5,-502.5C218.49,-502.5 220.66,-530.32 241.79,-537.72"/>
<polygon fill="black" stroke="black" stroke-width="3" points="238.09,-540.67 248.52,-538.79 239.19,-533.76 238.09,-540.67"/>
</g>
<!-- c18&#45;&gt;x0 -->
<g id="edge14" class="edge">
<title>c18:e&#45;&gt;x0:w</title>
<path fill="none" stroke="black" d="M390.25,-551.5C424.52,-551.5 396.24,-613.3 415.36,-628.26"/>
<polygon fill="black" stroke="black" points="414.22,-631.58 424.8,-631.07 416.21,-624.87 414.22,-631.58"/>
</g>
<!-- x8&#45;&gt;c18 -->
<g id="edge7" class="edge">
<title>x8:e&#45;&gt;c18:w</title>
<path fill="none" stroke="black" stroke-width="3" d="M198.37,-563.5C214.71,-563.5 223.93,-563.5 240.33,-563.5"/>
<polygon fill="none" stroke="black" stroke-width="3" points="200.2,-563.5 194.2,-567.5 188.2,-563.5 194.2,-559.5 200.2,-563.5"/>
<polygon fill="none" stroke="black" stroke-width="3" points="238.3,-563.5 244.3,-559.5 250.3,-563.5 244.3,-567.5 238.3,-563.5"/>
</g>
<!-- v11 -->
<g id="node18" class="node">
<title>v11</title>
<ellipse fill="none" stroke="black" cx="153.5" cy="-624.5" rx="35.49" ry="18"/>
<text text-anchor="middle" x="153.5" y="-619.45" font-family="Times,serif" font-size="14.00">4&#39;0101</text>
</g>
<!-- c19 -->
<g id="node19" class="node">
<title>c19</title>
<polygon fill="none" stroke="black" points="253,-631 253,-680 390.25,-680 390.25,-631 253,-631"/>
<text text-anchor="middle" x="265.88" y="-662.7" font-family="Times,serif" font-size="14.00">A</text>
<polyline fill="none" stroke="black" points="253,-655.5 278.75,-655.5"/>
<text text-anchor="middle" x="265.88" y="-638.2" font-family="Times,serif" font-size="14.00">B</text>
<polyline fill="none" stroke="black" points="278.75,-631 278.75,-680"/>
<text text-anchor="middle" x="321.62" y="-658.7" font-family="Times,serif" font-size="14.00">$364_CMP0</text>
<text text-anchor="middle" x="321.62" y="-642.2" font-family="Times,serif" font-size="14.00">$eq</text>
<polyline fill="none" stroke="black" points="364.5,-631 364.5,-680"/>
<text text-anchor="middle" x="377.38" y="-650.7" font-family="Times,serif" font-size="14.00">Y</text>
</g>
<!-- v11&#45;&gt;c19 -->
<g id="edge47" class="edge">
<title>v11:e&#45;&gt;c19:w</title>
<path fill="none" stroke="black" stroke-width="3" d="M190.5,-624.5C215.34,-624.5 222.17,-638.4 241.8,-642.42"/>
<polygon fill="black" stroke="black" stroke-width="3" points="238.19,-645.59 248.48,-643.07 238.86,-638.62 238.19,-645.59"/>
</g>
<!-- c19&#45;&gt;x0 -->
<g id="edge15" class="edge">
<title>c19:e&#45;&gt;x0:w</title>
<path fill="none" stroke="black" d="M390.25,-655.5C401.62,-655.5 406.93,-655.5 414.8,-655.5"/>
<polygon fill="black" stroke="black" points="414.74,-659 424.74,-655.5 414.74,-652 414.74,-659"/>
</g>
<!-- x10&#45;&gt;c19 -->
<g id="edge8" class="edge">
<title>x10:e&#45;&gt;c19:w</title>
<path fill="none" stroke="black" stroke-width="3" d="M198.37,-684.32C215.18,-681.03 223.54,-671.82 240.47,-668.62"/>
<polygon fill="none" stroke="black" stroke-width="3" points="200.14,-684.16 194.53,-688.69 188.19,-685.25 193.8,-680.72 200.14,-684.16"/>
<polygon fill="none" stroke="black" stroke-width="3" points="238.35,-668.8 243.98,-664.29 250.31,-667.74 244.68,-672.26 238.35,-668.8"/>
</g>
<!-- v13 -->
<g id="node21" class="node">
<title>v13</title>
<ellipse fill="none" stroke="black" cx="153.5" cy="-1112.5" rx="35.49" ry="18"/>
<text text-anchor="middle" x="153.5" y="-1107.45" font-family="Times,serif" font-size="14.00">4&#39;0100</text>
</g>
<!-- c20 -->
<g id="node22" class="node">
<title>c20</title>
<polygon fill="none" stroke="black" points="253,-1100 253,-1149 390.25,-1149 390.25,-1100 253,-1100"/>
<text text-anchor="middle" x="265.88" y="-1131.7" font-family="Times,serif" font-size="14.00">A</text>
<polyline fill="none" stroke="black" points="253,-1124.5 278.75,-1124.5"/>
<text text-anchor="middle" x="265.88" y="-1107.2" font-family="Times,serif" font-size="14.00">B</text>
<polyline fill="none" stroke="black" points="278.75,-1100 278.75,-1149"/>
<text text-anchor="middle" x="321.62" y="-1127.7" font-family="Times,serif" font-size="14.00">$365_CMP0</text>
<text text-anchor="middle" x="321.62" y="-1111.2" font-family="Times,serif" font-size="14.00">$eq</text>
<polyline fill="none" stroke="black" points="364.5,-1100 364.5,-1149"/>
<text text-anchor="middle" x="377.38" y="-1119.7" font-family="Times,serif" font-size="14.00">Y</text>
</g>
<!-- v13&#45;&gt;c20 -->
<g id="edge48" class="edge">
<title>v13:e&#45;&gt;c20:w</title>
<path fill="none" stroke="black" stroke-width="3" d="M190.5,-1112.5C214.05,-1112.5 222.62,-1112.5 241.61,-1112.5"/>
<polygon fill="black" stroke="black" stroke-width="3" points="238.46,-1116 248.46,-1112.5 238.46,-1109 238.46,-1116"/>
</g>
<!-- c20&#45;&gt;x3 -->
<g id="edge16" class="edge">
<title>c20:e&#45;&gt;x3:w</title>
<path fill="none" stroke="black" d="M390.25,-1124.5C463.8,-1124.5 598.44,-963.7 677.72,-948.63"/>
<polygon fill="black" stroke="black" points="677.89,-952.13 687.49,-947.65 677.19,-945.17 677.89,-952.13"/>
</g>
<!-- x12&#45;&gt;c20 -->
<g id="edge9" class="edge">
<title>x12:e&#45;&gt;c20:w</title>
<path fill="none" stroke="black" stroke-width="3" d="M198.34,-1171.4C216.51,-1164.89 222.02,-1145.05 240.22,-1138.57"/>
<polygon fill="none" stroke="black" stroke-width="3" points="200.01,-1171.13 194.73,-1176.05 188.17,-1173.06 193.45,-1168.15 200.01,-1171.13"/>
<polygon fill="none" stroke="black" stroke-width="3" points="238.49,-1138.85 243.77,-1133.94 250.33,-1136.93 245.05,-1141.84 238.49,-1138.85"/>
</g>
<!-- v15 -->
<g id="node24" class="node">
<title>v15</title>
<ellipse fill="none" stroke="black" cx="153.5" cy="-990.5" rx="35.49" ry="18"/>
<text text-anchor="middle" x="153.5" y="-985.45" font-family="Times,serif" font-size="14.00">4&#39;1101</text>
</g>
<!-- c21 -->
<g id="node25" class="node">
<title>c21</title>
<polygon fill="none" stroke="black" points="253,-985 253,-1034 390.25,-1034 390.25,-985 253,-985"/>
<text text-anchor="middle" x="265.88" y="-1016.7" font-family="Times,serif" font-size="14.00">A</text>
<polyline fill="none" stroke="black" points="253,-1009.5 278.75,-1009.5"/>
<text text-anchor="middle" x="265.88" y="-992.2" font-family="Times,serif" font-size="14.00">B</text>
<polyline fill="none" stroke="black" points="278.75,-985 278.75,-1034"/>
<text text-anchor="middle" x="321.62" y="-1012.7" font-family="Times,serif" font-size="14.00">$366_CMP0</text>
<text text-anchor="middle" x="321.62" y="-996.2" font-family="Times,serif" font-size="14.00">$eq</text>
<polyline fill="none" stroke="black" points="364.5,-985 364.5,-1034"/>
<text text-anchor="middle" x="377.38" y="-1004.7" font-family="Times,serif" font-size="14.00">Y</text>
</g>
<!-- v15&#45;&gt;c21 -->
<g id="edge49" class="edge">
<title>v15:e&#45;&gt;c21:w</title>
<path fill="none" stroke="black" stroke-width="3" d="M190.5,-990.5C214.19,-990.5 222.54,-995.53 241.56,-997.06"/>
<polygon fill="black" stroke="black" stroke-width="3" points="238.34,-1000.44 248.46,-997.33 238.6,-993.45 238.34,-1000.44"/>
</g>
<!-- c21&#45;&gt;x3 -->
<g id="edge17" class="edge">
<title>c21:e&#45;&gt;x3:w</title>
<path fill="none" stroke="black" d="M390.25,-1009.5C520.18,-1009.5 553.24,-973.69 677.5,-971.6"/>
<polygon fill="black" stroke="black" points="677.52,-975.1 687.49,-971.51 677.46,-968.1 677.52,-975.1"/>
</g>
<!-- x14&#45;&gt;c21 -->
<g id="edge10" class="edge">
<title>x14:e&#45;&gt;c21:w</title>
<path fill="none" stroke="black" stroke-width="3" d="M198.27,-1049.71C215.9,-1044.36 222.69,-1028.53 240.38,-1023.24"/>
<polygon fill="none" stroke="black" stroke-width="3" points="200.06,-1049.46 194.67,-1054.26 188.18,-1051.13 193.57,-1046.33 200.06,-1049.46"/>
<polygon fill="none" stroke="black" stroke-width="3" points="238.43,-1023.51 243.83,-1018.73 250.32,-1021.87 244.92,-1026.65 238.43,-1023.51"/>
</g>
</g>
</svg>
