<?xml version="1.0" encoding="UTF-8" standalone="no"?>
<!DOCTYPE svg PUBLIC "-//W3C//DTD SVG 1.1//EN"
 "http://www.w3.org/Graphics/SVG/1.1/DTD/svg11.dtd">
<!-- Generated by graphviz version 9.0.0 (20230911.1827)
 -->
<!-- Title: instruction_memory Pages: 1 -->
<svg width="553pt" height="287pt"
 viewBox="0.00 0.00 552.97 286.50" xmlns="http://www.w3.org/2000/svg" xmlns:xlink="http://www.w3.org/1999/xlink">
<g id="page0,1_graph0" class="graph" transform="scale(1 1) rotate(0) translate(4 282.5)">
<title>instruction_memory</title>
<polygon fill="white" stroke="none" points="-4,4 -4,-282.5 548.97,-282.5 548.97,4 -4,4"/>
<text text-anchor="middle" x="272.49" y="-7.2" font-family="Times,serif" font-size="14.00">instruction_memory</text>
<!-- n1 -->
<g id="node1" class="node">
<title>n1</title>
<polygon fill="none" stroke="black" points="65.03,-138.04 65.03,-152.96 47.72,-163.5 23.25,-163.5 5.94,-152.96 5.94,-138.04 23.25,-127.5 47.72,-127.5 65.03,-138.04"/>
<text text-anchor="middle" x="35.49" y="-140.45" font-family="Times,serif" font-size="14.00">addr</text>
</g>
<!-- x2 -->
<g id="node9" class="node">
<title>x2</title>
<path fill="none" stroke="black" d="M152.6,-133C152.6,-133 204.6,-133 204.6,-133 210.6,-133 216.6,-139 216.6,-145 216.6,-145 216.6,-170 216.6,-170 216.6,-176 210.6,-182 204.6,-182 204.6,-182 152.6,-182 152.6,-182 146.6,-182 140.6,-176 140.6,-170 140.6,-170 140.6,-145 140.6,-145 140.6,-139 146.6,-133 152.6,-133"/>
<text text-anchor="middle" x="178.6" y="-164.7" font-family="Times,serif" font-size="14.00">0 &#45;&gt; 31:30</text>
<polyline fill="none" stroke="black" points="140.6,-157.5 216.6,-157.5"/>
<text text-anchor="middle" x="178.6" y="-140.2" font-family="Times,serif" font-size="14.00">31:2 &#45; 29:0</text>
</g>
<!-- n1&#45;&gt;x2 -->
<g id="edge2" class="edge">
<title>n1:e&#45;&gt;x2:w</title>
<path fill="none" stroke="black" stroke-width="3" d="M66.49,-145.5C94.79,-145.5 104.6,-145.5 128.14,-145.5"/>
<polygon fill="black" stroke="black" stroke-width="3" points="125.06,-149 135.06,-145.5 125.06,-142 125.06,-149"/>
</g>
<!-- n2 -->
<g id="node2" class="node">
<title>n2</title>
<polygon fill="none" stroke="black" points="544.97,-89.04 544.97,-103.96 529.15,-114.5 506.79,-114.5 490.97,-103.96 490.97,-89.04 506.79,-78.5 529.15,-78.5 544.97,-89.04"/>
<text text-anchor="middle" x="517.97" y="-91.45" font-family="Times,serif" font-size="14.00">out</text>
</g>
<!-- v0 -->
<g id="node3" class="node">
<title>v0</title>
<ellipse fill="none" stroke="black" cx="35.49" cy="-260.5" rx="27" ry="18"/>
<text text-anchor="middle" x="35.49" y="-255.45" font-family="Times,serif" font-size="14.00">0</text>
</g>
<!-- c5 -->
<g id="node5" class="node">
<title>c5</title>
<polygon fill="none" stroke="black" points="106.97,-212 106.97,-261 250.22,-261 250.22,-212 106.97,-212"/>
<text text-anchor="middle" x="134.1" y="-243.7" font-family="Times,serif" font-size="14.00">ADDR</text>
<polyline fill="none" stroke="black" points="106.97,-236.5 161.22,-236.5"/>
<text text-anchor="middle" x="134.1" y="-219.2" font-family="Times,serif" font-size="14.00">DATA</text>
<polyline fill="none" stroke="black" points="161.22,-212 161.22,-261"/>
<text text-anchor="middle" x="195.85" y="-239.7" font-family="Times,serif" font-size="14.00">$162</text>
<text text-anchor="middle" x="195.85" y="-223.2" font-family="Times,serif" font-size="14.00">$meminit</text>
<polyline fill="none" stroke="black" points="230.47,-212 230.47,-261"/>
<text text-anchor="middle" x="240.35" y="-231.7" font-family="Times,serif" font-size="14.00"> </text>
</g>
<!-- v0&#45;&gt;c5 -->
<g id="edge4" class="edge">
<title>v0:e&#45;&gt;c5:w</title>
<path fill="none" stroke="black" stroke-width="3" d="M63.49,-260.5C79.15,-260.5 84.64,-253.18 95.86,-249.97"/>
<polygon fill="black" stroke="black" stroke-width="3" points="93.02,-253.88 102.47,-249.1 92.1,-246.94 93.02,-253.88"/>
</g>
<!-- v1 -->
<g id="node4" class="node">
<title>v1</title>
<ellipse fill="none" stroke="black" cx="35.49" cy="-206.5" rx="35.49" ry="18"/>
<text text-anchor="middle" x="35.49" y="-201.45" font-family="Times,serif" font-size="14.00">32768&#39;</text>
</g>
<!-- v1&#45;&gt;c5 -->
<g id="edge5" class="edge">
<title>v1:e&#45;&gt;c5:w</title>
<path fill="none" stroke="black" stroke-width="3" d="M70.97,-206.5C84.25,-206.5 87.79,-216.42 96.05,-221.53"/>
<polygon fill="black" stroke="black" stroke-width="3" points="92.02,-224.06 102.59,-223.31 93.86,-217.3 92.02,-224.06"/>
</g>
<!-- v3 -->
<g id="node6" class="node">
<title>v3</title>
<ellipse fill="none" stroke="black" cx="178.6" cy="-96.5" rx="27" ry="18"/>
<text text-anchor="middle" x="178.6" y="-91.45" font-family="Times,serif" font-size="14.00">1&#39;x</text>
</g>
<!-- c8 -->
<g id="node8" class="node">
<title>c8</title>
<polygon fill="none" stroke="black" points="286.22,-59.75 286.22,-133.25 454.97,-133.25 454.97,-59.75 286.22,-59.75"/>
<text text-anchor="middle" x="313.35" y="-115.95" font-family="Times,serif" font-size="14.00">ADDR</text>
<polyline fill="none" stroke="black" points="286.22,-108.75 340.47,-108.75"/>
<text text-anchor="middle" x="313.35" y="-91.45" font-family="Times,serif" font-size="14.00">CLK</text>
<polyline fill="none" stroke="black" points="286.22,-84.25 340.47,-84.25"/>
<text text-anchor="middle" x="313.35" y="-66.95" font-family="Times,serif" font-size="14.00">EN</text>
<polyline fill="none" stroke="black" points="340.47,-59.75 340.47,-133.25"/>
<text text-anchor="middle" x="371.72" y="-99.7" font-family="Times,serif" font-size="14.00">$160</text>
<text text-anchor="middle" x="371.72" y="-83.2" font-family="Times,serif" font-size="14.00">$memrd</text>
<polyline fill="none" stroke="black" points="402.97,-59.75 402.97,-133.25"/>
<text text-anchor="middle" x="428.97" y="-91.45" font-family="Times,serif" font-size="14.00">DATA</text>
</g>
<!-- v3&#45;&gt;c8 -->
<g id="edge6" class="edge">
<title>v3:e&#45;&gt;c8:w</title>
<path fill="none" stroke="black" d="M206.6,-96.5C237.84,-96.5 248.39,-96.5 274.79,-96.5"/>
<polygon fill="black" stroke="black" points="274.71,-100 284.71,-96.5 274.71,-93 274.71,-100"/>
</g>
<!-- v4 -->
<g id="node7" class="node">
<title>v4</title>
<ellipse fill="none" stroke="black" cx="178.6" cy="-42.5" rx="27" ry="18"/>
<text text-anchor="middle" x="178.6" y="-37.45" font-family="Times,serif" font-size="14.00">1&#39;x</text>
</g>
<!-- v4&#45;&gt;c8 -->
<g id="edge7" class="edge">
<title>v4:e&#45;&gt;c8:w</title>
<path fill="none" stroke="black" d="M206.6,-42.5C240.14,-42.5 247.22,-65.5 274.97,-70.54"/>
<polygon fill="black" stroke="black" points="274.45,-74 284.71,-71.37 275.05,-67.03 274.45,-74"/>
</g>
<!-- c8&#45;&gt;n2 -->
<g id="edge3" class="edge">
<title>c8:e&#45;&gt;n2:w</title>
<path fill="none" stroke="black" stroke-width="3" d="M454.97,-96.5C466.35,-96.5 471.66,-96.5 479.52,-96.5"/>
<polygon fill="black" stroke="black" stroke-width="3" points="476.43,-100 486.43,-96.5 476.43,-93 476.43,-100"/>
</g>
<!-- x2&#45;&gt;c8 -->
<g id="edge1" class="edge">
<title>x2:e&#45;&gt;c8:w</title>
<path fill="none" stroke="black" stroke-width="3" d="M230.26,-155.56C248.98,-149.31 254.82,-129.71 273.53,-123.45"/>
<polygon fill="none" stroke="black" stroke-width="3" points="232.13,-155.28 226.8,-160.14 220.27,-157.09 225.6,-152.23 232.13,-155.28"/>
<polygon fill="none" stroke="black" stroke-width="3" points="271.69,-123.73 277.01,-118.86 283.55,-121.91 278.22,-126.77 271.69,-123.73"/>
</g>
</g>
</svg>
