<?xml version="1.0" encoding="UTF-8" standalone="no"?>
<!DOCTYPE svg PUBLIC "-//W3C//DTD SVG 1.1//EN"
 "http://www.w3.org/Graphics/SVG/1.1/DTD/svg11.dtd">
<!-- Generated by graphviz version 9.0.0 (20230911.1827)
 -->
<!-- Title: csr_file Pages: 1 -->
<svg width="1311pt" height="510pt"
 viewBox="0.00 0.00 1311.02 510.00" xmlns="http://www.w3.org/2000/svg" xmlns:xlink="http://www.w3.org/1999/xlink">
<g id="page0,1_graph0" class="graph" transform="scale(1 1) rotate(0) translate(4 506)">
<title>csr_file</title>
<polygon fill="white" stroke="none" points="-4,4 -4,-506 1307.02,-506 1307.02,4 -4,4"/>
<text text-anchor="middle" x="651.51" y="-7.2" font-family="Times,serif" font-size="14.00">csr_file</text>
<!-- n8 -->
<g id="node1" class="node">
<title>n8</title>
<polygon fill="none" stroke="black" points="922.39,-349.54 922.39,-364.46 906.58,-375 884.21,-375 868.39,-364.46 868.39,-349.54 884.21,-339 906.58,-339 922.39,-349.54"/>
<text text-anchor="middle" x="895.39" y="-351.95" font-family="Times,serif" font-size="14.00">clk</text>
</g>
<!-- c22 -->
<g id="node12" class="node">
<title>c22</title>
<polygon fill="none" stroke="black" points="1015.77,-402.5 1015.77,-451.5 1127.52,-451.5 1127.52,-402.5 1015.77,-402.5"/>
<text text-anchor="middle" x="1037.27" y="-434.2" font-family="Times,serif" font-size="14.00">CLK</text>
<polyline fill="none" stroke="black" points="1015.77,-427 1058.77,-427"/>
<text text-anchor="middle" x="1037.27" y="-409.7" font-family="Times,serif" font-size="14.00">D</text>
<polyline fill="none" stroke="black" points="1058.77,-402.5 1058.77,-451.5"/>
<text text-anchor="middle" x="1080.27" y="-430.2" font-family="Times,serif" font-size="14.00">$516</text>
<text text-anchor="middle" x="1080.27" y="-413.7" font-family="Times,serif" font-size="14.00">$dff</text>
<polyline fill="none" stroke="black" points="1101.77,-402.5 1101.77,-451.5"/>
<text text-anchor="middle" x="1114.64" y="-422.2" font-family="Times,serif" font-size="14.00">Q</text>
</g>
<!-- n8&#45;&gt;c22 -->
<g id="edge20" class="edge">
<title>n8:e&#45;&gt;c22:w</title>
<path fill="none" stroke="black" d="M923.39,-357C951.17,-357 958.86,-365.7 979.77,-384 998.15,-400.08 990.54,-427.71 1004.61,-436.34"/>
<polygon fill="black" stroke="black" points="1003.76,-439.74 1014.3,-438.65 1005.38,-432.93 1003.76,-439.74"/>
</g>
<!-- c23 -->
<g id="node13" class="node">
<title>c23</title>
<polygon fill="none" stroke="black" points="1015.77,-320.5 1015.77,-369.5 1127.52,-369.5 1127.52,-320.5 1015.77,-320.5"/>
<text text-anchor="middle" x="1037.27" y="-352.2" font-family="Times,serif" font-size="14.00">CLK</text>
<polyline fill="none" stroke="black" points="1015.77,-345 1058.77,-345"/>
<text text-anchor="middle" x="1037.27" y="-327.7" font-family="Times,serif" font-size="14.00">D</text>
<polyline fill="none" stroke="black" points="1058.77,-320.5 1058.77,-369.5"/>
<text text-anchor="middle" x="1080.27" y="-348.2" font-family="Times,serif" font-size="14.00">$517</text>
<text text-anchor="middle" x="1080.27" y="-331.7" font-family="Times,serif" font-size="14.00">$dff</text>
<polyline fill="none" stroke="black" points="1101.77,-320.5 1101.77,-369.5"/>
<text text-anchor="middle" x="1114.64" y="-340.2" font-family="Times,serif" font-size="14.00">Q</text>
</g>
<!-- n8&#45;&gt;c23 -->
<g id="edge21" class="edge">
<title>n8:e&#45;&gt;c23:w</title>
<path fill="none" stroke="black" d="M923.39,-357C960.44,-357 972.41,-357 1004.56,-357"/>
<polygon fill="black" stroke="black" points="1004.25,-360.5 1014.25,-357 1004.25,-353.5 1004.25,-360.5"/>
</g>
<!-- c24 -->
<g id="node14" class="node">
<title>c24</title>
<polygon fill="none" stroke="black" points="1015.77,-198.5 1015.77,-247.5 1127.52,-247.5 1127.52,-198.5 1015.77,-198.5"/>
<text text-anchor="middle" x="1037.27" y="-230.2" font-family="Times,serif" font-size="14.00">CLK</text>
<polyline fill="none" stroke="black" points="1015.77,-223 1058.77,-223"/>
<text text-anchor="middle" x="1037.27" y="-205.7" font-family="Times,serif" font-size="14.00">D</text>
<polyline fill="none" stroke="black" points="1058.77,-198.5 1058.77,-247.5"/>
<text text-anchor="middle" x="1080.27" y="-226.2" font-family="Times,serif" font-size="14.00">$518</text>
<text text-anchor="middle" x="1080.27" y="-209.7" font-family="Times,serif" font-size="14.00">$dff</text>
<polyline fill="none" stroke="black" points="1101.77,-198.5 1101.77,-247.5"/>
<text text-anchor="middle" x="1114.64" y="-218.2" font-family="Times,serif" font-size="14.00">Q</text>
</g>
<!-- n8&#45;&gt;c24 -->
<g id="edge22" class="edge">
<title>n8:e&#45;&gt;c24:w</title>
<path fill="none" stroke="black" d="M923.39,-357C987.29,-357 952.63,-249.33 1004.59,-236.29"/>
<polygon fill="black" stroke="black" points="1004.73,-239.79 1014.26,-235.17 1003.93,-232.84 1004.73,-239.79"/>
</g>
<!-- c25 -->
<g id="node15" class="node">
<title>c25</title>
<polygon fill="none" stroke="black" points="1015.77,-130.5 1015.77,-179.5 1127.52,-179.5 1127.52,-130.5 1015.77,-130.5"/>
<text text-anchor="middle" x="1037.27" y="-162.2" font-family="Times,serif" font-size="14.00">CLK</text>
<polyline fill="none" stroke="black" points="1015.77,-155 1058.77,-155"/>
<text text-anchor="middle" x="1037.27" y="-137.7" font-family="Times,serif" font-size="14.00">D</text>
<polyline fill="none" stroke="black" points="1058.77,-130.5 1058.77,-179.5"/>
<text text-anchor="middle" x="1080.27" y="-158.2" font-family="Times,serif" font-size="14.00">$519</text>
<text text-anchor="middle" x="1080.27" y="-141.7" font-family="Times,serif" font-size="14.00">$dff</text>
<polyline fill="none" stroke="black" points="1101.77,-130.5 1101.77,-179.5"/>
<text text-anchor="middle" x="1114.64" y="-150.2" font-family="Times,serif" font-size="14.00">Q</text>
</g>
<!-- n8&#45;&gt;c25 -->
<g id="edge23" class="edge">
<title>n8:e&#45;&gt;c25:w</title>
<path fill="none" stroke="black" d="M923.39,-357C974.41,-357 957.72,-303.01 979.77,-257 996.5,-222.1 977.45,-177.26 1004.65,-168.52"/>
<polygon fill="black" stroke="black" points="1004.83,-172.02 1014.27,-167.2 1003.89,-165.09 1004.83,-172.02"/>
</g>
<!-- n9 -->
<g id="node2" class="node">
<title>n9</title>
<polygon fill="none" stroke="black" points="670.4,-476.54 670.4,-491.46 632.65,-502 579.26,-502 541.5,-491.46 541.5,-476.54 579.26,-466 632.65,-466 670.4,-476.54"/>
<text text-anchor="middle" x="605.95" y="-478.95" font-family="Times,serif" font-size="14.00">rdAddr_CSR</text>
</g>
<!-- c18 -->
<g id="node9" class="node">
<title>c18</title>
<polygon fill="none" stroke="black" points="811.02,-393.25 811.02,-466.75 979.77,-466.75 979.77,-393.25 811.02,-393.25"/>
<text text-anchor="middle" x="838.14" y="-449.45" font-family="Times,serif" font-size="14.00">ADDR</text>
<polyline fill="none" stroke="black" points="811.02,-442.25 865.27,-442.25"/>
<text text-anchor="middle" x="838.14" y="-424.95" font-family="Times,serif" font-size="14.00">CLK</text>
<polyline fill="none" stroke="black" points="811.02,-417.75 865.27,-417.75"/>
<text text-anchor="middle" x="838.14" y="-400.45" font-family="Times,serif" font-size="14.00">EN</text>
<polyline fill="none" stroke="black" points="865.27,-393.25 865.27,-466.75"/>
<text text-anchor="middle" x="896.52" y="-433.2" font-family="Times,serif" font-size="14.00">$277</text>
<text text-anchor="middle" x="896.52" y="-416.7" font-family="Times,serif" font-size="14.00">$memrd</text>
<polyline fill="none" stroke="black" points="927.77,-393.25 927.77,-466.75"/>
<text text-anchor="middle" x="953.77" y="-424.95" font-family="Times,serif" font-size="14.00">DATA</text>
</g>
<!-- n9&#45;&gt;c18 -->
<g id="edge24" class="edge">
<title>n9:e&#45;&gt;c18:w</title>
<path fill="none" stroke="black" stroke-width="3" d="M671.95,-484C731.14,-484 746.09,-458.51 799.75,-455.33"/>
<polygon fill="black" stroke="black" stroke-width="3" points="796.58,-458.92 806.48,-455.13 796.38,-451.92 796.58,-458.92"/>
</g>
<!-- n10 -->
<g id="node3" class="node">
<title>n10</title>
<polygon fill="none" stroke="black" points="1290.51,-419.54 1290.51,-434.46 1256.98,-445 1209.56,-445 1176.02,-434.46 1176.02,-419.54 1209.56,-409 1256.98,-409 1290.51,-419.54"/>
<text text-anchor="middle" x="1233.27" y="-421.95" font-family="Times,serif" font-size="14.00">rdVal_CSR</text>
</g>
<!-- n11 -->
<g id="node4" class="node">
<title>n11</title>
<polygon fill="none" stroke="black" points="143.6,-249.54 143.6,-264.46 104.55,-275 49.33,-275 10.28,-264.46 10.28,-249.54 49.33,-239 104.55,-239 143.6,-249.54"/>
<text text-anchor="middle" x="76.94" y="-251.95" font-family="Times,serif" font-size="14.00">wrAddr_CSR</text>
</g>
<!-- c32 -->
<g id="node24" class="node">
<title>c32</title>
<polygon fill="none" stroke="black" points="189.88,-234.25 189.88,-307.75 288.88,-307.75 288.88,-234.25 189.88,-234.25"/>
<text text-anchor="middle" x="202.76" y="-290.45" font-family="Times,serif" font-size="14.00">A</text>
<polyline fill="none" stroke="black" points="189.88,-283.25 215.63,-283.25"/>
<text text-anchor="middle" x="202.76" y="-265.95" font-family="Times,serif" font-size="14.00">B</text>
<polyline fill="none" stroke="black" points="189.88,-258.75 215.63,-258.75"/>
<text text-anchor="middle" x="202.76" y="-241.45" font-family="Times,serif" font-size="14.00">S</text>
<polyline fill="none" stroke="black" points="215.63,-234.25 215.63,-307.75"/>
<text text-anchor="middle" x="239.38" y="-274.2" font-family="Times,serif" font-size="14.00">$293</text>
<text text-anchor="middle" x="239.38" y="-257.7" font-family="Times,serif" font-size="14.00">$mux</text>
<polyline fill="none" stroke="black" points="263.13,-234.25 263.13,-307.75"/>
<text text-anchor="middle" x="276.01" y="-265.95" font-family="Times,serif" font-size="14.00">Y</text>
</g>
<!-- n11&#45;&gt;c32 -->
<g id="edge6" class="edge">
<title>n11:e&#45;&gt;c32:w</title>
<path fill="none" stroke="black" stroke-width="3" d="M144.94,-257C161.45,-257 166.86,-265.72 178.69,-269.39"/>
<polygon fill="black" stroke="black" stroke-width="3" points="174.99,-272.4 185.39,-270.36 175.99,-265.47 174.99,-272.4"/>
</g>
<!-- n12 -->
<g id="node5" class="node">
<title>n12</title>
<polygon fill="none" stroke="black" points="665.41,-203.54 665.41,-218.46 630.58,-229 581.32,-229 546.49,-218.46 546.49,-203.54 581.32,-193 630.58,-193 665.41,-203.54"/>
<text text-anchor="middle" x="605.95" y="-205.95" font-family="Times,serif" font-size="14.00">wrVal_CSR</text>
</g>
<!-- c31 -->
<g id="node22" class="node">
<title>c31</title>
<polygon fill="none" stroke="black" points="845.89,-174.25 845.89,-247.75 944.89,-247.75 944.89,-174.25 845.89,-174.25"/>
<text text-anchor="middle" x="858.77" y="-230.45" font-family="Times,serif" font-size="14.00">A</text>
<polyline fill="none" stroke="black" points="845.89,-223.25 871.64,-223.25"/>
<text text-anchor="middle" x="858.77" y="-205.95" font-family="Times,serif" font-size="14.00">B</text>
<polyline fill="none" stroke="black" points="845.89,-198.75 871.64,-198.75"/>
<text text-anchor="middle" x="858.77" y="-181.45" font-family="Times,serif" font-size="14.00">S</text>
<polyline fill="none" stroke="black" points="871.64,-174.25 871.64,-247.75"/>
<text text-anchor="middle" x="895.39" y="-214.2" font-family="Times,serif" font-size="14.00">$291</text>
<text text-anchor="middle" x="895.39" y="-197.7" font-family="Times,serif" font-size="14.00">$mux</text>
<polyline fill="none" stroke="black" points="919.14,-174.25 919.14,-247.75"/>
<text text-anchor="middle" x="932.02" y="-205.95" font-family="Times,serif" font-size="14.00">Y</text>
</g>
<!-- n12&#45;&gt;c31 -->
<g id="edge7" class="edge">
<title>n12:e&#45;&gt;c31:w</title>
<path fill="none" stroke="black" stroke-width="3" d="M666.95,-211C741.96,-211 763.46,-211 833.25,-211"/>
<polygon fill="black" stroke="black" stroke-width="3" points="829.85,-214.5 839.85,-211 829.85,-207.5 829.85,-214.5"/>
</g>
<!-- n13 -->
<g id="node6" class="node">
<title>n13</title>
<polygon fill="none" stroke="black" points="109.26,-161.54 109.26,-176.46 90.33,-187 63.56,-187 44.63,-176.46 44.63,-161.54 63.56,-151 90.33,-151 109.26,-161.54"/>
<text text-anchor="middle" x="76.94" y="-163.95" font-family="Times,serif" font-size="14.00">write</text>
</g>
<!-- c30 -->
<g id="node19" class="node">
<title>c30</title>
<polygon fill="none" stroke="black" points="189.88,-53.25 189.88,-126.75 288.88,-126.75 288.88,-53.25 189.88,-53.25"/>
<text text-anchor="middle" x="202.76" y="-109.45" font-family="Times,serif" font-size="14.00">A</text>
<polyline fill="none" stroke="black" points="189.88,-102.25 215.63,-102.25"/>
<text text-anchor="middle" x="202.76" y="-84.95" font-family="Times,serif" font-size="14.00">B</text>
<polyline fill="none" stroke="black" points="189.88,-77.75 215.63,-77.75"/>
<text text-anchor="middle" x="202.76" y="-60.45" font-family="Times,serif" font-size="14.00">S</text>
<polyline fill="none" stroke="black" points="215.63,-53.25 215.63,-126.75"/>
<text text-anchor="middle" x="239.38" y="-93.2" font-family="Times,serif" font-size="14.00">$289</text>
<text text-anchor="middle" x="239.38" y="-76.7" font-family="Times,serif" font-size="14.00">$mux</text>
<polyline fill="none" stroke="black" points="263.13,-53.25 263.13,-126.75"/>
<text text-anchor="middle" x="276.01" y="-84.95" font-family="Times,serif" font-size="14.00">Y</text>
</g>
<!-- n13&#45;&gt;c30 -->
<g id="edge8" class="edge">
<title>n13:e&#45;&gt;c30:w</title>
<path fill="none" stroke="black" d="M110.94,-169C133.49,-169 138.96,-158.9 153.88,-142 175.86,-117.11 157.83,-76.49 178.79,-67.02"/>
<polygon fill="black" stroke="black" points="179.18,-70.51 188.39,-65.27 177.93,-63.62 179.18,-70.51"/>
</g>
<!-- n13&#45;&gt;c31 -->
<g id="edge9" class="edge">
<title>n13:e&#45;&gt;c31:w</title>
<path fill="none" stroke="black" d="M110.94,-169C406.16,-169 479.9,-176.41 775.02,-184 801.64,-184.68 811.01,-185.68 832.92,-185.94"/>
<polygon fill="black" stroke="black" points="832.86,-189.44 842.88,-185.99 832.9,-182.44 832.86,-189.44"/>
</g>
<!-- n13&#45;&gt;c32 -->
<g id="edge10" class="edge">
<title>n13:e&#45;&gt;c32:w</title>
<path fill="none" stroke="black" d="M110.94,-169C155.74,-169 143.65,-233.33 178.67,-244.39"/>
<polygon fill="black" stroke="black" points="177.99,-247.83 188.39,-245.79 178.98,-240.9 177.99,-247.83"/>
</g>
<!-- v0 -->
<g id="node7" class="node">
<title>v0</title>
<ellipse fill="none" stroke="black" cx="605.95" cy="-430" rx="27" ry="18"/>
<text text-anchor="middle" x="605.95" y="-424.95" font-family="Times,serif" font-size="14.00">1&#39;x</text>
</g>
<!-- v0&#45;&gt;c18 -->
<g id="edge25" class="edge">
<title>v0:e&#45;&gt;c18:w</title>
<path fill="none" stroke="black" d="M633.95,-430C708.8,-430 730.26,-430 799.9,-430"/>
<polygon fill="black" stroke="black" points="799.5,-433.5 809.5,-430 799.5,-426.5 799.5,-433.5"/>
</g>
<!-- v1 -->
<g id="node8" class="node">
<title>v1</title>
<ellipse fill="none" stroke="black" cx="605.95" cy="-376" rx="27" ry="18"/>
<text text-anchor="middle" x="605.95" y="-370.95" font-family="Times,serif" font-size="14.00">1&#39;x</text>
</g>
<!-- v1&#45;&gt;c18 -->
<g id="edge26" class="edge">
<title>v1:e&#45;&gt;c18:w</title>
<path fill="none" stroke="black" d="M633.95,-376C709.8,-376 729.41,-402.24 799.77,-404.8"/>
<polygon fill="black" stroke="black" points="799.44,-408.29 809.5,-404.97 799.57,-401.3 799.44,-408.29"/>
</g>
<!-- c18&#45;&gt;c22 -->
<g id="edge16" class="edge">
<title>c18:e&#45;&gt;c22:w</title>
<path fill="none" stroke="black" stroke-width="3" d="M979.77,-430C992.5,-430 996.6,-421.91 1004.74,-417.61"/>
<polygon fill="black" stroke="black" stroke-width="3" points="1002.43,-421.76 1011.35,-416.05 1000.81,-414.95 1002.43,-421.76"/>
</g>
<!-- v2 -->
<g id="node10" class="node">
<title>v2</title>
<ellipse fill="none" stroke="black" cx="1071.64" cy="-284" rx="27" ry="18"/>
<text text-anchor="middle" x="1071.64" y="-278.95" font-family="Times,serif" font-size="14.00">1&#39;x</text>
</g>
<!-- c19 -->
<g id="node11" class="node">
<title>c19</title>
<polygon fill="none" stroke="black" points="1163.52,-204 1163.52,-302 1303.02,-302 1303.02,-204 1163.52,-204"/>
<text text-anchor="middle" x="1190.64" y="-284.7" font-family="Times,serif" font-size="14.00">ADDR</text>
<polyline fill="none" stroke="black" points="1163.52,-277.5 1217.77,-277.5"/>
<text text-anchor="middle" x="1190.64" y="-260.2" font-family="Times,serif" font-size="14.00">CLK</text>
<polyline fill="none" stroke="black" points="1163.52,-253 1217.77,-253"/>
<text text-anchor="middle" x="1190.64" y="-235.7" font-family="Times,serif" font-size="14.00">DATA</text>
<polyline fill="none" stroke="black" points="1163.52,-228.5 1217.77,-228.5"/>
<text text-anchor="middle" x="1190.64" y="-211.2" font-family="Times,serif" font-size="14.00">EN</text>
<polyline fill="none" stroke="black" points="1217.77,-204 1217.77,-302"/>
<text text-anchor="middle" x="1250.52" y="-256.2" font-family="Times,serif" font-size="14.00">$278</text>
<text text-anchor="middle" x="1250.52" y="-239.7" font-family="Times,serif" font-size="14.00">$memwr</text>
<polyline fill="none" stroke="black" points="1283.27,-204 1283.27,-302"/>
<text text-anchor="middle" x="1293.14" y="-248.2" font-family="Times,serif" font-size="14.00"> </text>
</g>
<!-- v2&#45;&gt;c19 -->
<g id="edge27" class="edge">
<title>v2:e&#45;&gt;c19:w</title>
<path fill="none" stroke="black" d="M1099.64,-284C1124.98,-284 1132.04,-270.1 1152.09,-266.08"/>
<polygon fill="black" stroke="black" points="1152.38,-269.56 1162.01,-265.14 1151.73,-262.59 1152.38,-269.56"/>
</g>
<!-- c22&#45;&gt;n10 -->
<g id="edge5" class="edge">
<title>c22:e&#45;&gt;n10:w</title>
<path fill="none" stroke="black" stroke-width="3" d="M1127.52,-427C1144.43,-427 1151.23,-427 1164.04,-427"/>
<polygon fill="black" stroke="black" stroke-width="3" points="1160.73,-430.5 1170.73,-427 1160.73,-423.5 1160.73,-430.5"/>
</g>
<!-- c23&#45;&gt;c19 -->
<g id="edge17" class="edge">
<title>c23:e&#45;&gt;c19:w</title>
<path fill="none" stroke="black" stroke-width="3" d="M1127.52,-345C1151.94,-345 1140.27,-306.57 1152.85,-293.96"/>
<polygon fill="black" stroke="black" stroke-width="3" points="1151.1,-298.34 1159.26,-291.58 1148.67,-291.77 1151.1,-298.34"/>
</g>
<!-- c24&#45;&gt;c19 -->
<g id="edge18" class="edge">
<title>c24:e&#45;&gt;c19:w</title>
<path fill="none" stroke="black" stroke-width="3" d="M1127.52,-223C1140.79,-223 1144.34,-232.92 1152.6,-238.03"/>
<polygon fill="black" stroke="black" stroke-width="3" points="1148.57,-240.56 1159.14,-239.81 1150.41,-233.8 1148.57,-240.56"/>
</g>
<!-- c25&#45;&gt;c19 -->
<g id="edge19" class="edge">
<title>c25:e&#45;&gt;c19:w</title>
<path fill="none" stroke="black" stroke-width="3" d="M1127.52,-155C1154.33,-155 1138.75,-199.23 1152.98,-212.37"/>
<polygon fill="black" stroke="black" stroke-width="3" points="1148.63,-214.57 1159.23,-214.52 1150.91,-207.95 1148.63,-214.57"/>
</g>
<!-- x3 -->
<g id="node16" class="node">
<title>x3</title>
<path fill="none" stroke="black" d="M854.02,-119C854.02,-119 936.77,-119 936.77,-119 942.77,-119 948.77,-125 948.77,-131 948.77,-131 948.77,-143 948.77,-143 948.77,-149 942.77,-155 936.77,-155 936.77,-155 854.02,-155 854.02,-155 848.02,-155 842.02,-149 842.02,-143 842.02,-143 842.02,-131 842.02,-131 842.02,-125 848.02,-119 854.02,-119"/>
<text text-anchor="middle" x="895.39" y="-132.2" font-family="Times,serif" font-size="14.00">32x 31:31 &#45; 31:0</text>
</g>
<!-- x3&#45;&gt;c25 -->
<g id="edge1" class="edge">
<title>x3:e&#45;&gt;c25:w</title>
<path fill="none" stroke="black" stroke-width="3" d="M962.35,-137.43C978.13,-138.54 987.07,-141.47 1002.86,-142.57"/>
<polygon fill="none" stroke="black" stroke-width="3" points="964.09,-137.49 957.96,-141.29 952.1,-137.09 958.23,-133.29 964.09,-137.49"/>
<polygon fill="none" stroke="black" stroke-width="3" points="1001.07,-142.51 1007.2,-138.71 1013.07,-142.91 1006.94,-146.71 1001.07,-142.51"/>
</g>
<!-- v4 -->
<g id="node17" class="node">
<title>v4</title>
<ellipse fill="none" stroke="black" cx="76.94" cy="-115" rx="27" ry="18"/>
<text text-anchor="middle" x="76.94" y="-109.95" font-family="Times,serif" font-size="14.00">1&#39;0</text>
</g>
<!-- v4&#45;&gt;c30 -->
<g id="edge28" class="edge">
<title>v4:e&#45;&gt;c30:w</title>
<path fill="none" stroke="black" d="M104.94,-115C138.56,-115 149.73,-115 178.44,-115"/>
<polygon fill="black" stroke="black" points="178.37,-118.5 188.37,-115 178.37,-111.5 178.37,-118.5"/>
</g>
<!-- v5 -->
<g id="node18" class="node">
<title>v5</title>
<ellipse fill="none" stroke="black" cx="76.94" cy="-61" rx="27" ry="18"/>
<text text-anchor="middle" x="76.94" y="-55.95" font-family="Times,serif" font-size="14.00">1&#39;1</text>
</g>
<!-- v5&#45;&gt;c30 -->
<g id="edge29" class="edge">
<title>v5:e&#45;&gt;c30:w</title>
<path fill="none" stroke="black" d="M104.94,-61C140.78,-61 148.59,-84.41 178.73,-89.16"/>
<polygon fill="black" stroke="black" points="178.14,-92.63 188.37,-89.89 178.66,-85.65 178.14,-92.63"/>
</g>
<!-- x6 -->
<g id="node20" class="node">
<title>x6</title>
<path fill="none" stroke="black" d="M336.88,-72C336.88,-72 388.88,-72 388.88,-72 394.88,-72 400.88,-78 400.88,-84 400.88,-84 400.88,-96 400.88,-96 400.88,-102 394.88,-108 388.88,-108 388.88,-108 336.88,-108 336.88,-108 330.88,-108 324.88,-102 324.88,-96 324.88,-96 324.88,-84 324.88,-84 324.88,-78 330.88,-72 336.88,-72"/>
<text text-anchor="middle" x="362.88" y="-85.2" font-family="Times,serif" font-size="14.00">0:0 &#45; 31:31</text>
</g>
<!-- c30&#45;&gt;x6 -->
<g id="edge2" class="edge">
<title>c30:e&#45;&gt;x6:w</title>
<path fill="none" stroke="black" d="M301.61,-90C305.2,-90 308.34,-90 311.91,-90"/>
<polygon fill="none" stroke="black" points="301.79,-90 295.78,-94 289.79,-90 295.79,-86 301.79,-90"/>
<polygon fill="none" stroke="black" points="311.98,-90 317.98,-86 323.98,-90 317.98,-94 311.98,-90"/>
</g>
<!-- n3 -->
<g id="node27" class="node">
<title>n3</title>
<ellipse fill="black" stroke="black" cx="605.95" cy="-90" rx="1.8" ry="1.8"/>
</g>
<!-- x6&#45;&gt;n3 -->
<g id="edge13" class="edge">
<title>x6:e&#45;&gt;n3:w</title>
<path fill="none" stroke="black" stroke-width="3" d="M400.88,-90C486.83,-90 511.09,-90 591.74,-90"/>
<polygon fill="black" stroke="black" stroke-width="3" points="588.41,-93.5 598.41,-90 588.41,-86.5 588.41,-93.5"/>
</g>
<!-- v7 -->
<g id="node21" class="node">
<title>v7</title>
<ellipse fill="none" stroke="black" cx="605.95" cy="-265" rx="169.07" ry="18"/>
<text text-anchor="middle" x="605.95" y="-259.95" font-family="Times,serif" font-size="14.00">32&#39;xxxxxxxxxxxxxxxxxxxxxxxxxxxxxxxx</text>
</g>
<!-- v7&#45;&gt;c31 -->
<g id="edge30" class="edge">
<title>v7:e&#45;&gt;c31:w</title>
<path fill="none" stroke="black" stroke-width="3" d="M775.02,-265C804.26,-265 809.86,-242.8 833.19,-237.25"/>
<polygon fill="black" stroke="black" stroke-width="3" points="830.33,-241.09 839.88,-236.5 829.55,-234.13 830.33,-241.09"/>
</g>
<!-- c31&#45;&gt;c24 -->
<g id="edge11" class="edge">
<title>c31:e&#45;&gt;c24:w</title>
<path fill="none" stroke="black" stroke-width="3" d="M946.39,-211C973.01,-211 982.39,-211 1004.3,-211"/>
<polygon fill="black" stroke="black" stroke-width="3" points="1001.23,-214.5 1011.23,-211 1001.23,-207.5 1001.23,-214.5"/>
</g>
<!-- v8 -->
<g id="node23" class="node">
<title>v8</title>
<ellipse fill="none" stroke="black" cx="76.94" cy="-311" rx="76.94" ry="18"/>
<text text-anchor="middle" x="76.94" y="-305.95" font-family="Times,serif" font-size="14.00">12&#39;xxxxxxxxxxxx</text>
</g>
<!-- v8&#45;&gt;c32 -->
<g id="edge31" class="edge">
<title>v8:e&#45;&gt;c32:w</title>
<path fill="none" stroke="black" stroke-width="3" d="M153.88,-311C166.61,-311 170.71,-302.91 178.86,-298.61"/>
<polygon fill="black" stroke="black" stroke-width="3" points="176.54,-302.76 185.47,-297.05 174.93,-295.95 176.54,-302.76"/>
</g>
<!-- c32&#45;&gt;c23 -->
<g id="edge4" class="edge">
<title>c32:e&#45;&gt;c23:w</title>
<path fill="none" stroke="black" stroke-width="3" d="M288.88,-271C355.32,-271 370.82,-285.01 436.88,-292 677.41,-317.45 738.6,-311.51 979.77,-330 991.15,-330.87 996.43,-332.02 1004.3,-332.61"/>
<polygon fill="black" stroke="black" stroke-width="3" points="1001.12,-336.01 1011.23,-332.85 1001.35,-329.01 1001.12,-336.01"/>
</g>
<!-- x9 -->
<g id="node25" class="node">
<title>x9</title>
<path fill="none" stroke="black" d="M854.02,-25C854.02,-25 936.77,-25 936.77,-25 942.77,-25 948.77,-31 948.77,-37 948.77,-37 948.77,-49 948.77,-49 948.77,-55 942.77,-61 936.77,-61 936.77,-61 854.02,-61 854.02,-61 848.02,-61 842.02,-55 842.02,-49 842.02,-49 842.02,-37 842.02,-37 842.02,-31 848.02,-25 854.02,-25"/>
<text text-anchor="middle" x="895.39" y="-38.2" font-family="Times,serif" font-size="14.00">31x 31:31 &#45; 30:0</text>
</g>
<!-- x10 -->
<g id="node26" class="node">
<title>x10</title>
<path fill="none" stroke="black" d="M1045.64,-49C1045.64,-49 1097.64,-49 1097.64,-49 1103.64,-49 1109.64,-55 1109.64,-61 1109.64,-61 1109.64,-73 1109.64,-73 1109.64,-79 1103.64,-85 1097.64,-85 1097.64,-85 1045.64,-85 1045.64,-85 1039.64,-85 1033.64,-79 1033.64,-73 1033.64,-73 1033.64,-61 1033.64,-61 1033.64,-55 1039.64,-49 1045.64,-49"/>
<text text-anchor="middle" x="1071.64" y="-62.2" font-family="Times,serif" font-size="14.00">30:0 &#45; 30:0</text>
</g>
<!-- x9&#45;&gt;x10 -->
<g id="edge3" class="edge">
<title>x9:e&#45;&gt;x10:w</title>
<path fill="none" stroke="black" stroke-width="3" d="M962.08,-43.97C985.97,-47.83 995.92,-62.06 1019.72,-65.99"/>
<polygon fill="none" stroke="black" stroke-width="3" points="964.05,-44.12 957.77,-47.65 952.09,-43.21 958.38,-39.68 964.05,-44.12"/>
<polygon fill="none" stroke="black" stroke-width="3" points="1017.98,-65.85 1024.28,-62.33 1029.95,-66.79 1023.65,-70.31 1017.98,-65.85"/>
</g>
<!-- x10&#45;&gt;n3 -->
<g id="edge12" class="edge">
<title>x10:e&#45;&gt;n3:w</title>
<path fill="none" stroke="black" stroke-width="3" d="M1110.64,-67C1118.88,-67 1115.59,-79.8 1109.64,-85.5 1069.4,-124.11 663.52,-91.45 607.75,-91.8 607.65,-91.8 607.54,-91.8 607.45,-91.81"/>
<polygon fill="black" stroke="black" stroke-width="3" points="617.75,-92.19 607.16,-91.7 615.13,-98.68 617.75,-92.19"/>
</g>
<!-- n3&#45;&gt;x3 -->
<g id="edge14" class="edge">
<title>n3:e&#45;&gt;x3:w</title>
<path fill="none" stroke="black" stroke-width="3" d="M608.95,-90C710.44,-90 734.27,-133.58 830,-136.81"/>
<polygon fill="black" stroke="black" stroke-width="3" points="826.8,-140.26 836.85,-136.92 826.91,-133.26 826.8,-140.26"/>
</g>
<!-- n3&#45;&gt;x9 -->
<g id="edge15" class="edge">
<title>n3:e&#45;&gt;x9:w</title>
<path fill="none" stroke="black" stroke-width="3" d="M608.95,-90C710.44,-90 734.27,-46.42 830,-43.19"/>
<polygon fill="black" stroke="black" stroke-width="3" points="826.91,-46.74 836.85,-43.08 826.8,-39.74 826.91,-46.74"/>
</g>
</g>
</svg>
