<?xml version="1.0" encoding="UTF-8" standalone="no"?>
<!DOCTYPE svg PUBLIC "-//W3C//DTD SVG 1.1//EN"
 "http://www.w3.org/Graphics/SVG/1.1/DTD/svg11.dtd">
<!-- Generated by graphviz version 9.0.0 (20230911.1827)
 -->
<!-- Title: adder Pages: 1 -->
<svg width="302pt" height="123pt"
 viewBox="0.00 0.00 302.35 122.50" xmlns="http://www.w3.org/2000/svg" xmlns:xlink="http://www.w3.org/1999/xlink">
<g id="page0,1_graph0" class="graph" transform="scale(1 1) rotate(0) translate(4 118.5)">
<title>adder</title>
<polygon fill="white" stroke="none" points="-4,4 -4,-118.5 298.35,-118.5 298.35,4 -4,4"/>
<text text-anchor="middle" x="147.18" y="-7.2" font-family="Times,serif" font-size="14.00">adder</text>
<!-- n1 -->
<g id="node1" class="node">
<title>n1</title>
<polygon fill="none" stroke="black" points="74.6,-89.04 74.6,-103.96 52.75,-114.5 21.85,-114.5 0,-103.96 0,-89.04 21.85,-78.5 52.75,-78.5 74.6,-89.04"/>
<text text-anchor="middle" x="37.3" y="-91.45" font-family="Times,serif" font-size="14.00">input1</text>
</g>
<!-- c7 -->
<g id="node4" class="node">
<title>c7</title>
<polygon fill="none" stroke="black" points="110.6,-45 110.6,-94 204.35,-94 204.35,-45 110.6,-45"/>
<text text-anchor="middle" x="123.48" y="-76.7" font-family="Times,serif" font-size="14.00">A</text>
<polyline fill="none" stroke="black" points="110.6,-69.5 136.35,-69.5"/>
<text text-anchor="middle" x="123.48" y="-52.2" font-family="Times,serif" font-size="14.00">B</text>
<polyline fill="none" stroke="black" points="136.35,-45 136.35,-94"/>
<text text-anchor="middle" x="157.48" y="-72.7" font-family="Times,serif" font-size="14.00">$1</text>
<text text-anchor="middle" x="157.48" y="-56.2" font-family="Times,serif" font-size="14.00">$add</text>
<polyline fill="none" stroke="black" points="178.6,-45 178.6,-94"/>
<text text-anchor="middle" x="191.48" y="-64.7" font-family="Times,serif" font-size="14.00">Y</text>
</g>
<!-- n1&#45;&gt;c7 -->
<g id="edge1" class="edge">
<title>n1:e&#45;&gt;c7:w</title>
<path fill="none" stroke="black" stroke-width="3" d="M74.6,-96.5C87.33,-96.5 91.43,-88.41 99.58,-84.11"/>
<polygon fill="black" stroke="black" stroke-width="3" points="97.26,-88.26 106.18,-82.55 95.65,-81.45 97.26,-88.26"/>
</g>
<!-- n2 -->
<g id="node2" class="node">
<title>n2</title>
<polygon fill="none" stroke="black" points="74.6,-35.04 74.6,-49.96 52.75,-60.5 21.85,-60.5 0,-49.96 0,-35.04 21.85,-24.5 52.75,-24.5 74.6,-35.04"/>
<text text-anchor="middle" x="37.3" y="-37.45" font-family="Times,serif" font-size="14.00">input2</text>
</g>
<!-- n2&#45;&gt;c7 -->
<g id="edge2" class="edge">
<title>n2:e&#45;&gt;c7:w</title>
<path fill="none" stroke="black" stroke-width="3" d="M74.6,-42.5C87.33,-42.5 91.43,-50.59 99.58,-54.89"/>
<polygon fill="black" stroke="black" stroke-width="3" points="95.65,-57.55 106.18,-56.45 97.26,-50.74 95.65,-57.55"/>
</g>
<!-- n3 -->
<g id="node3" class="node">
<title>n3</title>
<polygon fill="none" stroke="black" points="294.35,-62.04 294.35,-76.96 278.54,-87.5 256.17,-87.5 240.35,-76.96 240.35,-62.04 256.17,-51.5 278.54,-51.5 294.35,-62.04"/>
<text text-anchor="middle" x="267.35" y="-64.45" font-family="Times,serif" font-size="14.00">out</text>
</g>
<!-- c7&#45;&gt;n3 -->
<g id="edge3" class="edge">
<title>c7:e&#45;&gt;n3:w</title>
<path fill="none" stroke="black" stroke-width="3" d="M204.35,-69.5C215.73,-69.5 221.04,-69.5 228.91,-69.5"/>
<polygon fill="black" stroke="black" stroke-width="3" points="225.81,-73 235.81,-69.5 225.81,-66 225.81,-73"/>
</g>
</g>
</svg>
